G04 #@! TF.GenerationSoftware,KiCad,Pcbnew,7.0.7*
G04 #@! TF.CreationDate,2023-12-28T09:21:25+02:00*
G04 #@! TF.ProjectId,LED Dimmer,4c454420-4469-46d6-9d65-722e6b696361,rev?*
G04 #@! TF.SameCoordinates,Original*
G04 #@! TF.FileFunction,Soldermask,Top*
G04 #@! TF.FilePolarity,Negative*
%FSLAX46Y46*%
G04 Gerber Fmt 4.6, Leading zero omitted, Abs format (unit mm)*
G04 Created by KiCad (PCBNEW 7.0.7) date 2023-12-28 09:21:25*
%MOMM*%
%LPD*%
G01*
G04 APERTURE LIST*
G04 Aperture macros list*
%AMRoundRect*
0 Rectangle with rounded corners*
0 $1 Rounding radius*
0 $2 $3 $4 $5 $6 $7 $8 $9 X,Y pos of 4 corners*
0 Add a 4 corners polygon primitive as box body*
4,1,4,$2,$3,$4,$5,$6,$7,$8,$9,$2,$3,0*
0 Add four circle primitives for the rounded corners*
1,1,$1+$1,$2,$3*
1,1,$1+$1,$4,$5*
1,1,$1+$1,$6,$7*
1,1,$1+$1,$8,$9*
0 Add four rect primitives between the rounded corners*
20,1,$1+$1,$2,$3,$4,$5,0*
20,1,$1+$1,$4,$5,$6,$7,0*
20,1,$1+$1,$6,$7,$8,$9,0*
20,1,$1+$1,$8,$9,$2,$3,0*%
%AMFreePoly0*
4,1,9,3.862500,-0.866500,0.737500,-0.866500,0.737500,-0.450000,-0.737500,-0.450000,-0.737500,0.450000,0.737500,0.450000,0.737500,0.866500,3.862500,0.866500,3.862500,-0.866500,3.862500,-0.866500,$1*%
G04 Aperture macros list end*
%ADD10R,3.000000X3.000000*%
%ADD11C,3.000000*%
%ADD12RoundRect,0.250000X0.350000X0.450000X-0.350000X0.450000X-0.350000X-0.450000X0.350000X-0.450000X0*%
%ADD13R,1.700000X1.700000*%
%ADD14O,1.700000X1.700000*%
%ADD15RoundRect,0.155000X-0.212500X-0.155000X0.212500X-0.155000X0.212500X0.155000X-0.212500X0.155000X0*%
%ADD16RoundRect,0.250000X-0.450000X0.350000X-0.450000X-0.350000X0.450000X-0.350000X0.450000X0.350000X0*%
%ADD17C,2.000000*%
%ADD18R,0.650000X2.000000*%
%ADD19RoundRect,0.250000X-0.325000X-0.450000X0.325000X-0.450000X0.325000X0.450000X-0.325000X0.450000X0*%
%ADD20RoundRect,0.155000X-0.155000X0.212500X-0.155000X-0.212500X0.155000X-0.212500X0.155000X0.212500X0*%
%ADD21RoundRect,0.250000X-0.350000X-0.450000X0.350000X-0.450000X0.350000X0.450000X-0.350000X0.450000X0*%
%ADD22RoundRect,0.250000X1.000000X-1.500000X1.000000X1.500000X-1.000000X1.500000X-1.000000X-1.500000X0*%
%ADD23RoundRect,0.155000X0.155000X-0.212500X0.155000X0.212500X-0.155000X0.212500X-0.155000X-0.212500X0*%
%ADD24RoundRect,0.250000X2.000000X-1.400000X2.000000X1.400000X-2.000000X1.400000X-2.000000X-1.400000X0*%
%ADD25R,4.000000X7.000000*%
%ADD26R,0.400000X0.600000*%
%ADD27R,0.400000X0.550000*%
%ADD28R,2.650000X2.030000*%
%ADD29R,0.800000X1.900000*%
%ADD30R,1.300000X0.900000*%
%ADD31FreePoly0,180.000000*%
%ADD32RoundRect,0.250000X-1.000000X1.500000X-1.000000X-1.500000X1.000000X-1.500000X1.000000X1.500000X0*%
%ADD33R,1.600000X1.600000*%
%ADD34O,1.600000X1.600000*%
%ADD35RoundRect,0.250000X-0.362500X-1.075000X0.362500X-1.075000X0.362500X1.075000X-0.362500X1.075000X0*%
%ADD36RoundRect,0.250000X1.075000X-0.362500X1.075000X0.362500X-1.075000X0.362500X-1.075000X-0.362500X0*%
G04 APERTURE END LIST*
D10*
X237190000Y-90874000D03*
D11*
X237190000Y-85794000D03*
D12*
X183864000Y-111252000D03*
X181864000Y-111252000D03*
D13*
X183896000Y-92456000D03*
D14*
X183896000Y-89916000D03*
X183896000Y-87376000D03*
X183896000Y-84836000D03*
D15*
X192726500Y-87122000D03*
X193861500Y-87122000D03*
D16*
X201676000Y-84090000D03*
X201676000Y-86090000D03*
D17*
X189842000Y-121484000D03*
X196342000Y-121484000D03*
X189842000Y-125984000D03*
X196342000Y-125984000D03*
D18*
X208620000Y-94152000D03*
X209570000Y-94152000D03*
X210520000Y-94152000D03*
X210520000Y-90732000D03*
X209570000Y-90732000D03*
X208620000Y-90732000D03*
D19*
X174972000Y-103632000D03*
X177022000Y-103632000D03*
D20*
X197104000Y-81220500D03*
X197104000Y-82355500D03*
D21*
X203470000Y-100838000D03*
X205470000Y-100838000D03*
D22*
X234396000Y-104284000D03*
X234396000Y-97784000D03*
D17*
X211380000Y-121448000D03*
X217880000Y-121448000D03*
X211380000Y-125948000D03*
X217880000Y-125948000D03*
D12*
X183864000Y-107442000D03*
X181864000Y-107442000D03*
D19*
X174972000Y-111252000D03*
X177022000Y-111252000D03*
D23*
X197104000Y-84895500D03*
X197104000Y-83760500D03*
D15*
X204918500Y-110744000D03*
X206053500Y-110744000D03*
D17*
X173518000Y-91134000D03*
X173518000Y-84634000D03*
X178018000Y-91134000D03*
X178018000Y-84634000D03*
D12*
X183864000Y-115062000D03*
X181864000Y-115062000D03*
D24*
X216788000Y-97986000D03*
X225588000Y-97986000D03*
D16*
X201676000Y-87900000D03*
X201676000Y-89900000D03*
D25*
X216442000Y-109162000D03*
X226442000Y-109162000D03*
D26*
X217083000Y-87496000D03*
X216433000Y-87496000D03*
X215783000Y-87496000D03*
X215133000Y-87496000D03*
D27*
X217083000Y-90721000D03*
X216433000Y-90721000D03*
D28*
X216108000Y-89431000D03*
D27*
X215783000Y-90721000D03*
X215133000Y-90721000D03*
D23*
X199390000Y-98611500D03*
X199390000Y-97476500D03*
D29*
X209824000Y-108376000D03*
X211724000Y-108376000D03*
X210774000Y-105376000D03*
D19*
X174972000Y-107442000D03*
X177022000Y-107442000D03*
D30*
X194482000Y-84558000D03*
D31*
X194394500Y-83058000D03*
D30*
X194482000Y-81558000D03*
D20*
X206268000Y-91874500D03*
X206268000Y-93009500D03*
D16*
X184912000Y-96536000D03*
X184912000Y-98536000D03*
D21*
X204486000Y-108712000D03*
X206486000Y-108712000D03*
D12*
X183880000Y-103632000D03*
X181880000Y-103632000D03*
D17*
X200562000Y-121448000D03*
X207062000Y-121448000D03*
X200562000Y-125948000D03*
X207062000Y-125948000D03*
D32*
X225760000Y-84830000D03*
X225760000Y-91330000D03*
D17*
X179174000Y-121448000D03*
X185674000Y-121448000D03*
X179174000Y-125948000D03*
X185674000Y-125948000D03*
D33*
X189494000Y-90175000D03*
D34*
X189494000Y-92715000D03*
X189494000Y-95255000D03*
X189494000Y-97795000D03*
X189494000Y-100335000D03*
X189494000Y-102875000D03*
X189494000Y-105415000D03*
X189494000Y-107955000D03*
X189494000Y-110495000D03*
X189494000Y-113035000D03*
X197114000Y-113035000D03*
X197114000Y-110495000D03*
X197114000Y-107955000D03*
X197114000Y-105415000D03*
X197114000Y-102875000D03*
X197114000Y-100335000D03*
X197114000Y-97795000D03*
X197114000Y-95255000D03*
X197114000Y-92715000D03*
X197114000Y-90175000D03*
D35*
X206937500Y-86048000D03*
X211562500Y-86048000D03*
D10*
X237190000Y-116020000D03*
D11*
X237190000Y-110940000D03*
D12*
X205470000Y-103378000D03*
X203470000Y-103378000D03*
D36*
X210774000Y-102330500D03*
X210774000Y-97705500D03*
D19*
X174981000Y-115062000D03*
X177031000Y-115062000D03*
M02*
