M48
; DRILL file {KiCad 7.0.7} date Thu Dec 28 09:22:00 2023
; FORMAT={-:-/ absolute / metric / decimal}
; #@! TF.CreationDate,2023-12-28T09:22:00+02:00
; #@! TF.GenerationSoftware,Kicad,Pcbnew,7.0.7
; #@! TF.FileFunction,Plated,1,2,PTH
FMAT,2
METRIC
; #@! TA.AperFunction,Plated,PTH,ViaDrill
T1C0.400
; #@! TA.AperFunction,Plated,PTH,ComponentDrill
T2C0.800
; #@! TA.AperFunction,Plated,PTH,ComponentDrill
T3C1.000
; #@! TA.AperFunction,Plated,PTH,ComponentDrill
T4C1.100
; #@! TA.AperFunction,Plated,PTH,ComponentDrill
T5C1.520
%
G90
G05
T1
X175.514Y-104.902
X175.514Y-108.712
X175.514Y-112.522
X175.514Y-116.332
X186.69Y-98.044
X190.246Y-83.058
X191.77Y-83.058
X193.04Y-83.058
X194.564Y-83.058
X194.564Y-87.122
X196.088Y-82.55
X196.088Y-83.566
X198.12Y-81.28
X199.39Y-96.774
X200.914Y-90.678
X207.284Y-92.95
X209.55Y-92.964
X209.57Y-89.14
X210.82Y-106.934
X211.328Y-94.234
X215.392Y-88.9
X215.392Y-89.916
X215.392Y-92.202
X215.392Y-93.472
X215.392Y-94.742
X216.916Y-88.9
X216.916Y-89.916
X216.916Y-92.202
X216.916Y-93.472
X216.916Y-94.742
X218.44Y-92.202
X218.44Y-93.472
X218.44Y-94.742
X225.806Y-90.932
X225.806Y-92.71
X225.806Y-94.488
X225.806Y-96.266
X225.806Y-98.044
X227.838Y-90.932
X227.838Y-92.71
X227.838Y-94.488
X227.838Y-98.044
X227.838Y-101.346
X227.838Y-103.124
X229.87Y-90.932
X229.87Y-92.71
X229.87Y-94.488
X229.87Y-98.044
X229.87Y-101.346
X229.87Y-103.124
X231.902Y-90.932
X231.902Y-92.71
X231.902Y-94.488
X231.902Y-98.044
X231.902Y-101.346
X231.902Y-103.124
X233.934Y-90.932
X233.934Y-92.71
X233.934Y-94.488
X233.934Y-98.044
X233.934Y-101.346
X234.442Y-107.95
X234.442Y-110.236
X234.442Y-112.522
X234.442Y-114.808
X234.442Y-117.094
X234.442Y-119.38
X235.966Y-101.346
X235.966Y-119.38
X237.998Y-94.234
X237.998Y-96.012
X237.998Y-97.79
X237.998Y-99.568
X237.998Y-101.346
X237.998Y-103.124
X237.998Y-119.38
X240.03Y-94.234
X240.03Y-96.012
X240.03Y-97.79
X240.03Y-99.568
X240.03Y-101.346
X240.03Y-103.124
X240.03Y-104.902
X240.03Y-110.236
X240.03Y-114.808
X240.03Y-117.094
X240.03Y-119.38
T2
X189.494Y-90.175
X189.494Y-92.715
X189.494Y-95.255
X189.494Y-97.795
X189.494Y-100.335
X189.494Y-102.875
X189.494Y-105.415
X189.494Y-107.955
X189.494Y-110.495
X189.494Y-113.035
X197.114Y-90.175
X197.114Y-92.715
X197.114Y-95.255
X197.114Y-97.795
X197.114Y-100.335
X197.114Y-102.875
X197.114Y-105.415
X197.114Y-107.955
X197.114Y-110.495
X197.114Y-113.035
T3
X183.896Y-84.836
X183.896Y-87.376
X183.896Y-89.916
X183.896Y-92.456
T4
X173.518Y-84.634
X173.518Y-91.134
X178.018Y-84.634
X178.018Y-91.134
X179.174Y-121.448
X179.174Y-125.948
X185.674Y-121.448
X185.674Y-125.948
X189.842Y-121.484
X189.842Y-125.984
X196.342Y-121.484
X196.342Y-125.984
X200.562Y-121.448
X200.562Y-125.948
X207.062Y-121.448
X207.062Y-125.948
X211.38Y-121.448
X211.38Y-125.948
X217.88Y-121.448
X217.88Y-125.948
T5
X237.19Y-85.794
X237.19Y-90.874
X237.19Y-110.94
X237.19Y-116.02
T0
M30
