G04 #@! TF.GenerationSoftware,KiCad,Pcbnew,7.0.7*
G04 #@! TF.CreationDate,2023-12-28T09:21:24+02:00*
G04 #@! TF.ProjectId,LED Dimmer,4c454420-4469-46d6-9d65-722e6b696361,rev?*
G04 #@! TF.SameCoordinates,Original*
G04 #@! TF.FileFunction,Copper,L1,Top*
G04 #@! TF.FilePolarity,Positive*
%FSLAX46Y46*%
G04 Gerber Fmt 4.6, Leading zero omitted, Abs format (unit mm)*
G04 Created by KiCad (PCBNEW 7.0.7) date 2023-12-28 09:21:24*
%MOMM*%
%LPD*%
G01*
G04 APERTURE LIST*
G04 Aperture macros list*
%AMRoundRect*
0 Rectangle with rounded corners*
0 $1 Rounding radius*
0 $2 $3 $4 $5 $6 $7 $8 $9 X,Y pos of 4 corners*
0 Add a 4 corners polygon primitive as box body*
4,1,4,$2,$3,$4,$5,$6,$7,$8,$9,$2,$3,0*
0 Add four circle primitives for the rounded corners*
1,1,$1+$1,$2,$3*
1,1,$1+$1,$4,$5*
1,1,$1+$1,$6,$7*
1,1,$1+$1,$8,$9*
0 Add four rect primitives between the rounded corners*
20,1,$1+$1,$2,$3,$4,$5,0*
20,1,$1+$1,$4,$5,$6,$7,0*
20,1,$1+$1,$6,$7,$8,$9,0*
20,1,$1+$1,$8,$9,$2,$3,0*%
%AMFreePoly0*
4,1,9,3.862500,-0.866500,0.737500,-0.866500,0.737500,-0.450000,-0.737500,-0.450000,-0.737500,0.450000,0.737500,0.450000,0.737500,0.866500,3.862500,0.866500,3.862500,-0.866500,3.862500,-0.866500,$1*%
G04 Aperture macros list end*
G04 #@! TA.AperFunction,ComponentPad*
%ADD10R,3.000000X3.000000*%
G04 #@! TD*
G04 #@! TA.AperFunction,ComponentPad*
%ADD11C,3.000000*%
G04 #@! TD*
G04 #@! TA.AperFunction,SMDPad,CuDef*
%ADD12RoundRect,0.250000X0.350000X0.450000X-0.350000X0.450000X-0.350000X-0.450000X0.350000X-0.450000X0*%
G04 #@! TD*
G04 #@! TA.AperFunction,ComponentPad*
%ADD13R,1.700000X1.700000*%
G04 #@! TD*
G04 #@! TA.AperFunction,ComponentPad*
%ADD14O,1.700000X1.700000*%
G04 #@! TD*
G04 #@! TA.AperFunction,SMDPad,CuDef*
%ADD15RoundRect,0.155000X-0.212500X-0.155000X0.212500X-0.155000X0.212500X0.155000X-0.212500X0.155000X0*%
G04 #@! TD*
G04 #@! TA.AperFunction,SMDPad,CuDef*
%ADD16RoundRect,0.250000X-0.450000X0.350000X-0.450000X-0.350000X0.450000X-0.350000X0.450000X0.350000X0*%
G04 #@! TD*
G04 #@! TA.AperFunction,ComponentPad*
%ADD17C,2.000000*%
G04 #@! TD*
G04 #@! TA.AperFunction,SMDPad,CuDef*
%ADD18R,0.650000X2.000000*%
G04 #@! TD*
G04 #@! TA.AperFunction,SMDPad,CuDef*
%ADD19RoundRect,0.250000X-0.325000X-0.450000X0.325000X-0.450000X0.325000X0.450000X-0.325000X0.450000X0*%
G04 #@! TD*
G04 #@! TA.AperFunction,SMDPad,CuDef*
%ADD20RoundRect,0.155000X-0.155000X0.212500X-0.155000X-0.212500X0.155000X-0.212500X0.155000X0.212500X0*%
G04 #@! TD*
G04 #@! TA.AperFunction,SMDPad,CuDef*
%ADD21RoundRect,0.250000X-0.350000X-0.450000X0.350000X-0.450000X0.350000X0.450000X-0.350000X0.450000X0*%
G04 #@! TD*
G04 #@! TA.AperFunction,SMDPad,CuDef*
%ADD22RoundRect,0.250000X1.000000X-1.500000X1.000000X1.500000X-1.000000X1.500000X-1.000000X-1.500000X0*%
G04 #@! TD*
G04 #@! TA.AperFunction,SMDPad,CuDef*
%ADD23RoundRect,0.155000X0.155000X-0.212500X0.155000X0.212500X-0.155000X0.212500X-0.155000X-0.212500X0*%
G04 #@! TD*
G04 #@! TA.AperFunction,SMDPad,CuDef*
%ADD24RoundRect,0.250000X2.000000X-1.400000X2.000000X1.400000X-2.000000X1.400000X-2.000000X-1.400000X0*%
G04 #@! TD*
G04 #@! TA.AperFunction,SMDPad,CuDef*
%ADD25R,4.000000X7.000000*%
G04 #@! TD*
G04 #@! TA.AperFunction,SMDPad,CuDef*
%ADD26R,0.400000X0.600000*%
G04 #@! TD*
G04 #@! TA.AperFunction,SMDPad,CuDef*
%ADD27R,0.400000X0.550000*%
G04 #@! TD*
G04 #@! TA.AperFunction,SMDPad,CuDef*
%ADD28R,2.650000X2.030000*%
G04 #@! TD*
G04 #@! TA.AperFunction,SMDPad,CuDef*
%ADD29R,0.800000X1.900000*%
G04 #@! TD*
G04 #@! TA.AperFunction,SMDPad,CuDef*
%ADD30R,1.300000X0.900000*%
G04 #@! TD*
G04 #@! TA.AperFunction,SMDPad,CuDef*
%ADD31FreePoly0,180.000000*%
G04 #@! TD*
G04 #@! TA.AperFunction,SMDPad,CuDef*
%ADD32RoundRect,0.250000X-1.000000X1.500000X-1.000000X-1.500000X1.000000X-1.500000X1.000000X1.500000X0*%
G04 #@! TD*
G04 #@! TA.AperFunction,ComponentPad*
%ADD33R,1.600000X1.600000*%
G04 #@! TD*
G04 #@! TA.AperFunction,ComponentPad*
%ADD34O,1.600000X1.600000*%
G04 #@! TD*
G04 #@! TA.AperFunction,SMDPad,CuDef*
%ADD35RoundRect,0.250000X-0.362500X-1.075000X0.362500X-1.075000X0.362500X1.075000X-0.362500X1.075000X0*%
G04 #@! TD*
G04 #@! TA.AperFunction,SMDPad,CuDef*
%ADD36RoundRect,0.250000X1.075000X-0.362500X1.075000X0.362500X-1.075000X0.362500X-1.075000X-0.362500X0*%
G04 #@! TD*
G04 #@! TA.AperFunction,ViaPad*
%ADD37C,0.800000*%
G04 #@! TD*
G04 #@! TA.AperFunction,Conductor*
%ADD38C,0.300000*%
G04 #@! TD*
G04 #@! TA.AperFunction,Conductor*
%ADD39C,2.000000*%
G04 #@! TD*
G04 #@! TA.AperFunction,Conductor*
%ADD40C,0.500000*%
G04 #@! TD*
G04 APERTURE END LIST*
D10*
X237190000Y-90874000D03*
D11*
X237190000Y-85794000D03*
D12*
X183864000Y-111252000D03*
X181864000Y-111252000D03*
D13*
X183896000Y-92456000D03*
D14*
X183896000Y-89916000D03*
X183896000Y-87376000D03*
X183896000Y-84836000D03*
D15*
X192726500Y-87122000D03*
X193861500Y-87122000D03*
D16*
X201676000Y-84090000D03*
X201676000Y-86090000D03*
D17*
X189842000Y-121484000D03*
X196342000Y-121484000D03*
X189842000Y-125984000D03*
X196342000Y-125984000D03*
D18*
X208620000Y-94152000D03*
X209570000Y-94152000D03*
X210520000Y-94152000D03*
X210520000Y-90732000D03*
X209570000Y-90732000D03*
X208620000Y-90732000D03*
D19*
X174972000Y-103632000D03*
X177022000Y-103632000D03*
D20*
X197104000Y-81220500D03*
X197104000Y-82355500D03*
D21*
X203470000Y-100838000D03*
X205470000Y-100838000D03*
D22*
X234396000Y-104284000D03*
X234396000Y-97784000D03*
D17*
X211380000Y-121448000D03*
X217880000Y-121448000D03*
X211380000Y-125948000D03*
X217880000Y-125948000D03*
D12*
X183864000Y-107442000D03*
X181864000Y-107442000D03*
D19*
X174972000Y-111252000D03*
X177022000Y-111252000D03*
D23*
X197104000Y-84895500D03*
X197104000Y-83760500D03*
D15*
X204918500Y-110744000D03*
X206053500Y-110744000D03*
D17*
X173518000Y-91134000D03*
X173518000Y-84634000D03*
X178018000Y-91134000D03*
X178018000Y-84634000D03*
D12*
X183864000Y-115062000D03*
X181864000Y-115062000D03*
D24*
X216788000Y-97986000D03*
X225588000Y-97986000D03*
D16*
X201676000Y-87900000D03*
X201676000Y-89900000D03*
D25*
X216442000Y-109162000D03*
X226442000Y-109162000D03*
D26*
X217083000Y-87496000D03*
X216433000Y-87496000D03*
X215783000Y-87496000D03*
X215133000Y-87496000D03*
D27*
X217083000Y-90721000D03*
X216433000Y-90721000D03*
D28*
X216108000Y-89431000D03*
D27*
X215783000Y-90721000D03*
X215133000Y-90721000D03*
D23*
X199390000Y-98611500D03*
X199390000Y-97476500D03*
D29*
X209824000Y-108376000D03*
X211724000Y-108376000D03*
X210774000Y-105376000D03*
D19*
X174972000Y-107442000D03*
X177022000Y-107442000D03*
D30*
X194482000Y-84558000D03*
D31*
X194394500Y-83058000D03*
D30*
X194482000Y-81558000D03*
D20*
X206268000Y-91874500D03*
X206268000Y-93009500D03*
D16*
X184912000Y-96536000D03*
X184912000Y-98536000D03*
D21*
X204486000Y-108712000D03*
X206486000Y-108712000D03*
D12*
X183880000Y-103632000D03*
X181880000Y-103632000D03*
D17*
X200562000Y-121448000D03*
X207062000Y-121448000D03*
X200562000Y-125948000D03*
X207062000Y-125948000D03*
D32*
X225760000Y-84830000D03*
X225760000Y-91330000D03*
D17*
X179174000Y-121448000D03*
X185674000Y-121448000D03*
X179174000Y-125948000D03*
X185674000Y-125948000D03*
D33*
X189494000Y-90175000D03*
D34*
X189494000Y-92715000D03*
X189494000Y-95255000D03*
X189494000Y-97795000D03*
X189494000Y-100335000D03*
X189494000Y-102875000D03*
X189494000Y-105415000D03*
X189494000Y-107955000D03*
X189494000Y-110495000D03*
X189494000Y-113035000D03*
X197114000Y-113035000D03*
X197114000Y-110495000D03*
X197114000Y-107955000D03*
X197114000Y-105415000D03*
X197114000Y-102875000D03*
X197114000Y-100335000D03*
X197114000Y-97795000D03*
X197114000Y-95255000D03*
X197114000Y-92715000D03*
X197114000Y-90175000D03*
D35*
X206937500Y-86048000D03*
X211562500Y-86048000D03*
D10*
X237190000Y-116020000D03*
D11*
X237190000Y-110940000D03*
D12*
X205470000Y-103378000D03*
X203470000Y-103378000D03*
D36*
X210774000Y-102330500D03*
X210774000Y-97705500D03*
D19*
X174981000Y-115062000D03*
X177031000Y-115062000D03*
D37*
X196088000Y-83566000D03*
X235966000Y-119380000D03*
X240030000Y-117094000D03*
X233934000Y-101346000D03*
X227838000Y-103124000D03*
X229870000Y-94488000D03*
X231902000Y-98044000D03*
X175514000Y-112522000D03*
X237998000Y-97790000D03*
X191770000Y-83058000D03*
X240030000Y-104902000D03*
X237998000Y-101346000D03*
X240030000Y-101346000D03*
X196088000Y-82550000D03*
X227838000Y-92710000D03*
X231902000Y-90932000D03*
X199390000Y-96774000D03*
X237998000Y-94234000D03*
X193040000Y-83058000D03*
X211328000Y-94234000D03*
X237998000Y-103124000D03*
X175514000Y-116332000D03*
X227838000Y-90932000D03*
X234442000Y-114808000D03*
X237998000Y-119380000D03*
X200914000Y-90678000D03*
X231902000Y-103124000D03*
X233934000Y-94488000D03*
X240030000Y-114808000D03*
X240030000Y-103124000D03*
X231902000Y-94488000D03*
X229870000Y-98044000D03*
X231902000Y-92710000D03*
X175514000Y-104902000D03*
X237998000Y-99568000D03*
X225806000Y-96266000D03*
X234442000Y-110236000D03*
X225806000Y-92710000D03*
X234442000Y-107950000D03*
X229870000Y-103124000D03*
X237998000Y-96012000D03*
X190246000Y-83058000D03*
X227838000Y-94488000D03*
X227838000Y-101346000D03*
X229870000Y-101346000D03*
X240030000Y-97790000D03*
X233934000Y-98044000D03*
X234442000Y-112522000D03*
X231902000Y-101346000D03*
X240030000Y-94234000D03*
X194564000Y-87122000D03*
X210820000Y-106934000D03*
X235966000Y-101346000D03*
X227838000Y-98044000D03*
X225806000Y-94488000D03*
X207284000Y-92950000D03*
X233934000Y-90932000D03*
X194564000Y-83058000D03*
X225806000Y-98044000D03*
X240030000Y-119380000D03*
X234442000Y-119380000D03*
X225806000Y-90932000D03*
X229870000Y-92710000D03*
X229870000Y-90932000D03*
X240030000Y-110236000D03*
X240030000Y-96012000D03*
X175514000Y-108712000D03*
X233934000Y-92710000D03*
X240030000Y-99568000D03*
X234442000Y-117094000D03*
X198120000Y-81280000D03*
X186690000Y-98044000D03*
X209550000Y-92964000D03*
X209570000Y-89140000D03*
X215392000Y-89916000D03*
X215392000Y-88900000D03*
X216916000Y-92202000D03*
X215392000Y-92202000D03*
X216916000Y-93472000D03*
X215392000Y-94742000D03*
X216916000Y-88900000D03*
X216916000Y-94742000D03*
X218440000Y-92202000D03*
X218440000Y-93472000D03*
X216916000Y-89916000D03*
X218440000Y-94742000D03*
X215392000Y-93472000D03*
D38*
X197114000Y-105415000D02*
X201935000Y-105415000D01*
X201935000Y-105415000D02*
X204486000Y-107966000D01*
X204486000Y-107966000D02*
X204486000Y-108712000D01*
X204486000Y-108712000D02*
X204486000Y-110311500D01*
X204486000Y-110311500D02*
X204918500Y-110744000D01*
X206486000Y-108712000D02*
X206486000Y-110311500D01*
X206486000Y-108712000D02*
X206822000Y-108376000D01*
X206822000Y-108376000D02*
X209824000Y-108376000D01*
X206486000Y-110311500D02*
X206053500Y-110744000D01*
D39*
X225806000Y-98044000D02*
X225864000Y-97986000D01*
X225806000Y-90932000D02*
X225806000Y-91284000D01*
X229870000Y-90932000D02*
X229812000Y-90874000D01*
X225760000Y-92664000D02*
X225806000Y-92710000D01*
X225806000Y-94488000D02*
X225760000Y-94534000D01*
D38*
X199390000Y-97476500D02*
X199390000Y-96774000D01*
X174981000Y-115062000D02*
X174981000Y-115799000D01*
D39*
X233934000Y-98044000D02*
X233992000Y-97986000D01*
D38*
X174972000Y-103632000D02*
X174972000Y-104360000D01*
X205470000Y-100838000D02*
X205470000Y-95996000D01*
D40*
X196282500Y-82355500D02*
X196088000Y-82550000D01*
X191770000Y-83058000D02*
X190246000Y-83058000D01*
D38*
X242062000Y-82804000D02*
X242062000Y-111148000D01*
X242062000Y-111148000D02*
X237190000Y-116020000D01*
D39*
X226216000Y-90874000D02*
X226158000Y-90932000D01*
X233992000Y-90874000D02*
X233934000Y-90932000D01*
D38*
X204216000Y-83820000D02*
X206756000Y-81280000D01*
D39*
X225760000Y-92756000D02*
X225760000Y-94442000D01*
X233934000Y-90932000D02*
X233876000Y-90874000D01*
D38*
X207224500Y-93009500D02*
X207284000Y-92950000D01*
D40*
X197104000Y-82355500D02*
X196282500Y-82355500D01*
D38*
X206756000Y-81280000D02*
X240538000Y-81280000D01*
D39*
X231960000Y-90874000D02*
X231902000Y-90932000D01*
D38*
X204216000Y-94742000D02*
X204216000Y-83820000D01*
D39*
X227838000Y-98044000D02*
X227896000Y-97986000D01*
D38*
X174972000Y-111980000D02*
X175514000Y-112522000D01*
X206268000Y-93009500D02*
X207224500Y-93009500D01*
X174972000Y-107442000D02*
X174972000Y-108170000D01*
D39*
X225864000Y-97986000D02*
X227780000Y-97986000D01*
D38*
X211246000Y-94152000D02*
X210520000Y-94152000D01*
D39*
X231844000Y-97986000D02*
X231902000Y-98044000D01*
X233992000Y-97986000D02*
X234194000Y-97986000D01*
X229928000Y-97986000D02*
X231844000Y-97986000D01*
X231844000Y-90874000D02*
X229928000Y-90874000D01*
D38*
X210820000Y-106934000D02*
X211724000Y-107838000D01*
D39*
X231902000Y-98044000D02*
X231960000Y-97986000D01*
X225760000Y-97814000D02*
X225588000Y-97986000D01*
X225748000Y-97986000D02*
X225806000Y-98044000D01*
D40*
X193861500Y-87122000D02*
X194564000Y-87122000D01*
D38*
X174981000Y-115799000D02*
X175514000Y-116332000D01*
D39*
X233876000Y-90874000D02*
X231960000Y-90874000D01*
D38*
X174972000Y-104360000D02*
X175514000Y-104902000D01*
D39*
X225760000Y-94534000D02*
X225760000Y-96220000D01*
X231960000Y-97986000D02*
X233876000Y-97986000D01*
D38*
X201676000Y-89916000D02*
X200914000Y-90678000D01*
D39*
X225588000Y-97986000D02*
X225748000Y-97986000D01*
D38*
X240538000Y-81280000D02*
X242062000Y-82804000D01*
D39*
X231902000Y-90932000D02*
X231844000Y-90874000D01*
X225806000Y-91284000D02*
X225760000Y-91330000D01*
X229928000Y-90874000D02*
X229870000Y-90932000D01*
X225806000Y-96266000D02*
X225760000Y-96312000D01*
X227780000Y-90874000D02*
X226216000Y-90874000D01*
D38*
X211724000Y-107838000D02*
X211724000Y-108376000D01*
D39*
X227896000Y-90874000D02*
X227838000Y-90932000D01*
X229812000Y-90874000D02*
X227896000Y-90874000D01*
X225806000Y-92710000D02*
X225760000Y-92756000D01*
X229812000Y-97986000D02*
X229870000Y-98044000D01*
X225760000Y-96220000D02*
X225806000Y-96266000D01*
D40*
X196282500Y-83760500D02*
X196088000Y-83566000D01*
D38*
X174972000Y-111252000D02*
X174972000Y-111980000D01*
D39*
X227896000Y-97986000D02*
X229812000Y-97986000D01*
D38*
X174972000Y-108170000D02*
X175514000Y-108712000D01*
D39*
X225760000Y-96312000D02*
X225760000Y-97814000D01*
X237190000Y-90874000D02*
X233992000Y-90874000D01*
X225760000Y-94442000D02*
X225806000Y-94488000D01*
X233876000Y-97986000D02*
X233934000Y-98044000D01*
D40*
X197104000Y-83760500D02*
X196282500Y-83760500D01*
D39*
X229870000Y-98044000D02*
X229928000Y-97986000D01*
D38*
X201676000Y-89900000D02*
X201676000Y-89916000D01*
X205470000Y-95996000D02*
X204216000Y-94742000D01*
D39*
X225760000Y-91330000D02*
X225760000Y-92664000D01*
X226158000Y-90932000D02*
X225806000Y-90932000D01*
D38*
X211328000Y-94234000D02*
X211246000Y-94152000D01*
D39*
X227780000Y-97986000D02*
X227838000Y-98044000D01*
X227838000Y-90932000D02*
X227780000Y-90874000D01*
X234194000Y-97986000D02*
X234396000Y-97784000D01*
D40*
X194482000Y-81558000D02*
X196766500Y-81558000D01*
X197104000Y-81220500D02*
X198060500Y-81220500D01*
D38*
X215842000Y-86048000D02*
X216433000Y-86639000D01*
D40*
X196766500Y-81558000D02*
X197104000Y-81220500D01*
D38*
X208620000Y-90732000D02*
X205740000Y-87852000D01*
X214935000Y-86048000D02*
X215842000Y-86048000D01*
X215783000Y-86896000D02*
X215783000Y-87496000D01*
D40*
X198060500Y-81220500D02*
X198120000Y-81280000D01*
D38*
X215842000Y-86048000D02*
X216604000Y-86048000D01*
X205740000Y-84582000D02*
X206248000Y-84074000D01*
D39*
X212780500Y-84830000D02*
X225760000Y-84830000D01*
X211562500Y-86048000D02*
X212780500Y-84830000D01*
D38*
X216433000Y-86639000D02*
X216433000Y-87496000D01*
X206248000Y-84074000D02*
X209588500Y-84074000D01*
X198866000Y-81280000D02*
X198120000Y-81280000D01*
D39*
X237190000Y-85794000D02*
X226724000Y-85794000D01*
X226724000Y-85794000D02*
X225760000Y-84830000D01*
D38*
X214935000Y-86048000D02*
X215783000Y-86896000D01*
X216604000Y-86048000D02*
X217083000Y-86527000D01*
X201676000Y-84090000D02*
X198866000Y-81280000D01*
X205740000Y-87852000D02*
X205740000Y-84582000D01*
X206268000Y-91874500D02*
X207477500Y-91874500D01*
X217083000Y-86527000D02*
X217083000Y-87496000D01*
X211562500Y-86048000D02*
X214935000Y-86048000D01*
X209588500Y-84074000D02*
X211562500Y-86048000D01*
X207477500Y-91874500D02*
X208620000Y-90732000D01*
D40*
X196766500Y-84558000D02*
X197104000Y-84895500D01*
D38*
X186944000Y-90170000D02*
X186949000Y-90175000D01*
D40*
X189673500Y-90175000D02*
X192726500Y-87122000D01*
X189499000Y-90170000D02*
X189494000Y-90175000D01*
D38*
X186949000Y-90175000D02*
X189494000Y-90175000D01*
D40*
X193908401Y-85852000D02*
X196147500Y-85852000D01*
D38*
X184658000Y-92456000D02*
X186944000Y-90170000D01*
D40*
X196147500Y-85852000D02*
X197104000Y-84895500D01*
D38*
X183896000Y-92456000D02*
X184658000Y-92456000D01*
D40*
X189494000Y-90175000D02*
X189673500Y-90175000D01*
D38*
X183896000Y-95520000D02*
X183896000Y-92456000D01*
X184912000Y-96536000D02*
X183896000Y-95520000D01*
D40*
X192726500Y-87033901D02*
X193908401Y-85852000D01*
X192726500Y-87122000D02*
X192726500Y-87033901D01*
X194482000Y-84558000D02*
X196766500Y-84558000D01*
D38*
X184912000Y-98536000D02*
X186198000Y-98536000D01*
X197114000Y-100335000D02*
X197666500Y-100335000D01*
X186198000Y-98536000D02*
X186690000Y-98044000D01*
X197666500Y-100335000D02*
X199390000Y-98611500D01*
X178018000Y-84634000D02*
X178018000Y-91134000D01*
X181880000Y-103632000D02*
X177022000Y-103632000D01*
X181864000Y-107442000D02*
X177022000Y-107442000D01*
X181864000Y-111252000D02*
X177022000Y-111252000D01*
X181864000Y-115062000D02*
X177031000Y-115062000D01*
X210774000Y-102330500D02*
X210774000Y-105376000D01*
X208620000Y-94152000D02*
X208620000Y-92630000D01*
X211424000Y-90732000D02*
X214660000Y-87496000D01*
X210520000Y-90732000D02*
X211424000Y-90732000D01*
X210245000Y-92082000D02*
X210520000Y-91807000D01*
X209168000Y-92082000D02*
X210245000Y-92082000D01*
X210520000Y-91807000D02*
X210520000Y-90732000D01*
X214660000Y-87496000D02*
X215133000Y-87496000D01*
X208620000Y-92630000D02*
X209168000Y-92082000D01*
X209570000Y-92984000D02*
X209570000Y-94152000D01*
X209550000Y-95207000D02*
X210774000Y-96431000D01*
X209550000Y-92964000D02*
X209570000Y-92984000D01*
X208742000Y-86048000D02*
X209504000Y-86810000D01*
X209504000Y-89074000D02*
X209570000Y-89140000D01*
X206937500Y-86048000D02*
X208742000Y-86048000D01*
X209550000Y-92964000D02*
X209550000Y-95207000D01*
X209570000Y-90732000D02*
X209570000Y-89140000D01*
X210774000Y-96431000D02*
X210774000Y-97705500D01*
X209504000Y-86810000D02*
X209504000Y-89074000D01*
X200147000Y-102875000D02*
X200914000Y-102108000D01*
X197114000Y-102875000D02*
X200147000Y-102875000D01*
X203470000Y-100838000D02*
X203470000Y-102362000D01*
X203470000Y-102362000D02*
X203470000Y-103378000D01*
X200914000Y-102108000D02*
X203470000Y-102108000D01*
X191511000Y-92715000D02*
X197358000Y-86868000D01*
X197358000Y-86868000D02*
X201676000Y-86868000D01*
X189494000Y-92715000D02*
X191511000Y-92715000D01*
X201676000Y-87900000D02*
X201676000Y-86868000D01*
X201676000Y-86868000D02*
X201676000Y-86090000D01*
X189842000Y-125984000D02*
X187960000Y-124102000D01*
X187960000Y-112029000D02*
X189494000Y-110495000D01*
X187960000Y-124102000D02*
X187960000Y-112029000D01*
X189842000Y-125984000D02*
X196342000Y-125984000D01*
X207062000Y-125948000D02*
X200562000Y-125948000D01*
X200562000Y-125948000D02*
X198628000Y-124014000D01*
X189494000Y-117358000D02*
X189494000Y-113035000D01*
X196150000Y-124014000D02*
X189494000Y-117358000D01*
X198628000Y-124014000D02*
X196150000Y-124014000D01*
X211380000Y-125948000D02*
X209296000Y-123864000D01*
X197114000Y-115072000D02*
X197114000Y-113035000D01*
X205906000Y-123864000D02*
X197114000Y-115072000D01*
X209296000Y-123864000D02*
X205906000Y-123864000D01*
X211380000Y-125948000D02*
X217880000Y-125948000D01*
D39*
X216788000Y-94614000D02*
X216788000Y-94106000D01*
X216154000Y-103378000D02*
X216154000Y-108874000D01*
X216788000Y-97986000D02*
X216788000Y-94870000D01*
X216916000Y-94742000D02*
X216788000Y-94614000D01*
X216788000Y-97986000D02*
X216788000Y-102744000D01*
X215392000Y-94742000D02*
X215900000Y-93218000D01*
X215392000Y-92202000D02*
X215392000Y-93472000D01*
X216916000Y-92202000D02*
X215392000Y-92202000D01*
X216154000Y-108874000D02*
X216442000Y-109162000D01*
X216916000Y-93472000D02*
X216916000Y-92202000D01*
X216788000Y-94870000D02*
X216916000Y-94742000D01*
X216788000Y-94106000D02*
X216916000Y-93472000D01*
X216788000Y-102744000D02*
X216154000Y-103378000D01*
X215392000Y-93472000D02*
X215392000Y-94742000D01*
D38*
X240284000Y-81788000D02*
X241562000Y-83066000D01*
X206420000Y-96184000D02*
X204724000Y-94488000D01*
X241562000Y-83066000D02*
X241562000Y-106568000D01*
D39*
X237190000Y-110940000D02*
X237190000Y-107078000D01*
D38*
X206420000Y-102428000D02*
X206420000Y-96184000D01*
X205470000Y-103378000D02*
X206420000Y-102428000D01*
D39*
X226442000Y-109162000D02*
X229518000Y-109162000D01*
D38*
X204724000Y-94488000D02*
X204724000Y-84074000D01*
D39*
X229518000Y-109162000D02*
X234396000Y-104284000D01*
D38*
X204724000Y-84074000D02*
X207010000Y-81788000D01*
D39*
X237190000Y-107078000D02*
X234396000Y-104284000D01*
D38*
X207010000Y-81788000D02*
X240284000Y-81788000D01*
X241562000Y-106568000D02*
X237190000Y-110940000D01*
X187452000Y-124170000D02*
X187452000Y-109997000D01*
X187452000Y-109997000D02*
X189494000Y-107955000D01*
X179174000Y-125948000D02*
X185674000Y-125948000D01*
X185674000Y-125948000D02*
X187452000Y-124170000D01*
X183880000Y-103409000D02*
X183880000Y-103632000D01*
X189494000Y-97795000D02*
X183880000Y-103409000D01*
X183864000Y-107442000D02*
X184912000Y-107442000D01*
X185166000Y-104663000D02*
X189494000Y-100335000D01*
X185166000Y-107188000D02*
X185166000Y-104663000D01*
X184912000Y-107442000D02*
X185166000Y-107188000D01*
X184912000Y-111252000D02*
X183864000Y-111252000D01*
X185928000Y-110236000D02*
X184912000Y-111252000D01*
X189494000Y-102875000D02*
X185928000Y-106441000D01*
X185928000Y-106441000D02*
X185928000Y-110236000D01*
X189494000Y-105415000D02*
X186682000Y-108227000D01*
X186682000Y-108227000D02*
X186682000Y-112244000D01*
X186682000Y-112244000D02*
X183864000Y-115062000D01*
G04 #@! TA.AperFunction,Conductor*
G36*
X219119804Y-88353685D02*
G01*
X219165559Y-88406489D01*
X219176765Y-88457896D01*
X219182525Y-95332034D01*
X219182526Y-95332035D01*
X219610946Y-95630900D01*
X219654666Y-95685399D01*
X219664000Y-95732598D01*
X219664000Y-96140341D01*
X219644315Y-96207380D01*
X219591511Y-96253135D01*
X219522353Y-96263079D01*
X219458797Y-96234054D01*
X219434461Y-96205438D01*
X219380315Y-96117654D01*
X219256345Y-95993684D01*
X219107124Y-95901643D01*
X219107119Y-95901641D01*
X218940697Y-95846494D01*
X218940690Y-95846493D01*
X218837986Y-95836000D01*
X217038000Y-95836000D01*
X217038000Y-100135999D01*
X217468639Y-100135999D01*
X217535678Y-100155684D01*
X217581433Y-100208488D01*
X217591377Y-100277646D01*
X217562352Y-100341202D01*
X217556320Y-100347680D01*
X217378000Y-100525999D01*
X217378000Y-105038000D01*
X217358315Y-105105039D01*
X217305511Y-105150794D01*
X217254000Y-105162000D01*
X216692000Y-105162000D01*
X216692000Y-113162000D01*
X218489828Y-113162000D01*
X218489844Y-113161999D01*
X218549372Y-113155598D01*
X218549379Y-113155596D01*
X218684086Y-113105354D01*
X218684093Y-113105350D01*
X218799187Y-113019190D01*
X218799190Y-113019187D01*
X218885350Y-112904093D01*
X218885354Y-112904086D01*
X218915818Y-112822409D01*
X218957689Y-112766475D01*
X219023153Y-112742058D01*
X219091426Y-112756909D01*
X219140832Y-112806315D01*
X219156000Y-112865742D01*
X219156000Y-113610000D01*
X219136315Y-113677039D01*
X219083511Y-113722794D01*
X219032000Y-113734000D01*
X213692000Y-113734000D01*
X213624961Y-113714315D01*
X213579206Y-113661511D01*
X213568000Y-113610000D01*
X213568000Y-109412000D01*
X213942000Y-109412000D01*
X213942000Y-112709844D01*
X213948401Y-112769372D01*
X213948403Y-112769379D01*
X213998645Y-112904086D01*
X213998649Y-112904093D01*
X214084809Y-113019187D01*
X214084812Y-113019190D01*
X214199906Y-113105350D01*
X214199913Y-113105354D01*
X214334620Y-113155596D01*
X214334627Y-113155598D01*
X214394155Y-113161999D01*
X214394172Y-113162000D01*
X216192000Y-113162000D01*
X216192000Y-109412000D01*
X213942000Y-109412000D01*
X213568000Y-109412000D01*
X213568000Y-108912000D01*
X213942000Y-108912000D01*
X216192000Y-108912000D01*
X216192000Y-105162000D01*
X214394155Y-105162000D01*
X214334627Y-105168401D01*
X214334620Y-105168403D01*
X214199913Y-105218645D01*
X214199906Y-105218649D01*
X214084812Y-105304809D01*
X214084809Y-105304812D01*
X213998649Y-105419906D01*
X213998645Y-105419913D01*
X213948403Y-105554620D01*
X213948401Y-105554627D01*
X213942000Y-105614155D01*
X213942000Y-108912000D01*
X213568000Y-108912000D01*
X213568000Y-98236000D01*
X214038001Y-98236000D01*
X214038001Y-99435986D01*
X214048494Y-99538697D01*
X214103641Y-99705119D01*
X214103643Y-99705124D01*
X214195684Y-99854345D01*
X214319654Y-99978315D01*
X214468875Y-100070356D01*
X214468880Y-100070358D01*
X214635302Y-100125505D01*
X214635309Y-100125506D01*
X214738019Y-100135999D01*
X216537999Y-100135999D01*
X216538000Y-100135998D01*
X216538000Y-98236000D01*
X214038001Y-98236000D01*
X213568000Y-98236000D01*
X213568000Y-97736000D01*
X214038000Y-97736000D01*
X216538000Y-97736000D01*
X216538000Y-95836000D01*
X214738028Y-95836000D01*
X214738012Y-95836001D01*
X214635302Y-95846494D01*
X214468880Y-95901641D01*
X214468875Y-95901643D01*
X214319654Y-95993684D01*
X214195684Y-96117654D01*
X214103643Y-96266875D01*
X214103641Y-96266880D01*
X214048494Y-96433302D01*
X214048493Y-96433309D01*
X214038000Y-96536013D01*
X214038000Y-97736000D01*
X213568000Y-97736000D01*
X213568000Y-89681000D01*
X214283000Y-89681000D01*
X214283000Y-90493844D01*
X214289401Y-90553372D01*
X214289403Y-90553379D01*
X214339645Y-90688086D01*
X214339647Y-90688089D01*
X214408266Y-90779753D01*
X214432683Y-90845218D01*
X214432999Y-90854063D01*
X214432999Y-91043827D01*
X214433000Y-91043844D01*
X214439401Y-91103372D01*
X214439403Y-91103379D01*
X214489645Y-91238086D01*
X214489649Y-91238093D01*
X214575809Y-91353187D01*
X214575812Y-91353190D01*
X214690906Y-91439350D01*
X214690913Y-91439354D01*
X214825620Y-91489596D01*
X214825627Y-91489598D01*
X214885155Y-91495999D01*
X214885172Y-91496000D01*
X214933000Y-91496000D01*
X214933000Y-90921000D01*
X215333000Y-90921000D01*
X215333000Y-91496000D01*
X215380828Y-91496000D01*
X215380841Y-91495999D01*
X215444743Y-91489128D01*
X215471257Y-91489128D01*
X215535158Y-91495999D01*
X215535172Y-91496000D01*
X215583000Y-91496000D01*
X215583000Y-90921000D01*
X215983000Y-90921000D01*
X215983000Y-91496000D01*
X216030828Y-91496000D01*
X216030841Y-91495999D01*
X216094743Y-91489128D01*
X216121257Y-91489128D01*
X216185158Y-91495999D01*
X216185172Y-91496000D01*
X216232999Y-91496000D01*
X216233000Y-90921000D01*
X216633000Y-90921000D01*
X216633000Y-91496000D01*
X216680828Y-91496000D01*
X216680841Y-91495999D01*
X216744743Y-91489128D01*
X216771257Y-91489128D01*
X216835158Y-91495999D01*
X216835172Y-91496000D01*
X216883000Y-91496000D01*
X216883000Y-90921000D01*
X216633000Y-90921000D01*
X216233000Y-90921000D01*
X215983000Y-90921000D01*
X215583000Y-90921000D01*
X215333000Y-90921000D01*
X214933000Y-90921000D01*
X214933000Y-90645000D01*
X214952685Y-90577961D01*
X215005489Y-90532206D01*
X215057000Y-90521000D01*
X217159000Y-90521000D01*
X217226039Y-90540685D01*
X217271794Y-90593489D01*
X217283000Y-90645000D01*
X217283000Y-91496000D01*
X217330828Y-91496000D01*
X217330844Y-91495999D01*
X217390372Y-91489598D01*
X217390379Y-91489596D01*
X217525086Y-91439354D01*
X217525093Y-91439350D01*
X217640187Y-91353190D01*
X217640190Y-91353187D01*
X217726350Y-91238093D01*
X217726354Y-91238086D01*
X217776596Y-91103379D01*
X217776598Y-91103372D01*
X217782999Y-91043844D01*
X217783000Y-91043827D01*
X217783000Y-90854064D01*
X217802685Y-90787025D01*
X217807733Y-90779753D01*
X217876353Y-90688088D01*
X217876354Y-90688086D01*
X217926596Y-90553379D01*
X217926598Y-90553372D01*
X217932999Y-90493844D01*
X217933000Y-90493827D01*
X217933000Y-89681000D01*
X214283000Y-89681000D01*
X213568000Y-89681000D01*
X213568000Y-89205754D01*
X213587685Y-89138715D01*
X213604314Y-89118078D01*
X214071321Y-88651071D01*
X214132642Y-88617588D01*
X214202334Y-88622572D01*
X214258267Y-88664444D01*
X214282684Y-88729908D01*
X214283000Y-88738754D01*
X214283000Y-89181000D01*
X217933000Y-89181000D01*
X217933000Y-88458000D01*
X217952685Y-88390961D01*
X218005489Y-88345206D01*
X218057000Y-88334000D01*
X219052765Y-88334000D01*
X219119804Y-88353685D01*
G37*
G04 #@! TD.AperFunction*
G04 #@! TA.AperFunction,Conductor*
G36*
X223953039Y-83527685D02*
G01*
X223998794Y-83580489D01*
X224010000Y-83632000D01*
X224010000Y-84580000D01*
X225886000Y-84580000D01*
X225953039Y-84599685D01*
X225998794Y-84652489D01*
X226010000Y-84704000D01*
X226010000Y-87079999D01*
X226206638Y-87079999D01*
X226273677Y-87099684D01*
X226319432Y-87152488D01*
X226329376Y-87221646D01*
X226300351Y-87285202D01*
X226294319Y-87291680D01*
X226050319Y-87535681D01*
X225988996Y-87569166D01*
X225962638Y-87572000D01*
X217885999Y-87572000D01*
X217805559Y-87652441D01*
X217804062Y-87650944D01*
X217791636Y-87666363D01*
X217783417Y-87674582D01*
X217719303Y-87695921D01*
X217714879Y-87696000D01*
X215707500Y-87696000D01*
X215640461Y-87676315D01*
X215594706Y-87623511D01*
X215583500Y-87572000D01*
X215583500Y-87295999D01*
X215982999Y-87295999D01*
X215983000Y-87296000D01*
X216233000Y-87296000D01*
X216233000Y-86696000D01*
X216633000Y-86696000D01*
X216633000Y-87296000D01*
X216883000Y-87296000D01*
X216883000Y-86696000D01*
X217283000Y-86696000D01*
X217283000Y-87296000D01*
X217783000Y-87296000D01*
X217783000Y-87148172D01*
X217782999Y-87148155D01*
X217776598Y-87088627D01*
X217776596Y-87088620D01*
X217726354Y-86953913D01*
X217726350Y-86953906D01*
X217640190Y-86838812D01*
X217640187Y-86838809D01*
X217525093Y-86752649D01*
X217525086Y-86752645D01*
X217390379Y-86702403D01*
X217390372Y-86702401D01*
X217330844Y-86696000D01*
X217283000Y-86696000D01*
X216883000Y-86696000D01*
X216835172Y-86696000D01*
X216835153Y-86696001D01*
X216771255Y-86702871D01*
X216744745Y-86702871D01*
X216680846Y-86696001D01*
X216680828Y-86696000D01*
X216633000Y-86696000D01*
X216233000Y-86696000D01*
X216185172Y-86696000D01*
X216185153Y-86696001D01*
X216121255Y-86702871D01*
X216094745Y-86702871D01*
X216030846Y-86696001D01*
X216030828Y-86696000D01*
X215983000Y-86696000D01*
X215982999Y-87295999D01*
X215583500Y-87295999D01*
X215583500Y-87171323D01*
X215583299Y-87169282D01*
X215583000Y-87163202D01*
X215583000Y-86696000D01*
X215535155Y-86696000D01*
X215475627Y-86702401D01*
X215475620Y-86702403D01*
X215340913Y-86752645D01*
X215340906Y-86752649D01*
X215225814Y-86838808D01*
X215225809Y-86838813D01*
X215183141Y-86895811D01*
X215127207Y-86937682D01*
X215083874Y-86945500D01*
X214908323Y-86945500D01*
X214835264Y-86960032D01*
X214835260Y-86960033D01*
X214752398Y-87015399D01*
X214735700Y-87040391D01*
X214682088Y-87085196D01*
X214632598Y-87095500D01*
X214596567Y-87095500D01*
X214575491Y-87102347D01*
X214556582Y-87106887D01*
X214534695Y-87110354D01*
X214514952Y-87120413D01*
X214496988Y-87127854D01*
X214475910Y-87134703D01*
X214475905Y-87134706D01*
X214457977Y-87147731D01*
X214441397Y-87157891D01*
X214421660Y-87167948D01*
X214421659Y-87167949D01*
X214399094Y-87190513D01*
X213545926Y-88043681D01*
X213484603Y-88077166D01*
X213458245Y-88080000D01*
X212805641Y-88080000D01*
X212805941Y-88717942D01*
X212786288Y-88784990D01*
X212733505Y-88830770D01*
X212681941Y-88842000D01*
X210390000Y-88842000D01*
X210322961Y-88822315D01*
X210277206Y-88769511D01*
X210266000Y-88718000D01*
X210266000Y-87457175D01*
X210285685Y-87390136D01*
X210338489Y-87344381D01*
X210407647Y-87334437D01*
X210471203Y-87363462D01*
X210507706Y-87418171D01*
X210515641Y-87442119D01*
X210515643Y-87442124D01*
X210607684Y-87591345D01*
X210731654Y-87715315D01*
X210880875Y-87807356D01*
X210880880Y-87807358D01*
X211047302Y-87862505D01*
X211047309Y-87862506D01*
X211150019Y-87872999D01*
X211312499Y-87872999D01*
X211312500Y-87872998D01*
X211312500Y-86298000D01*
X211812500Y-86298000D01*
X211812500Y-87872999D01*
X211974972Y-87872999D01*
X211974986Y-87872998D01*
X212077697Y-87862505D01*
X212244119Y-87807358D01*
X212244124Y-87807356D01*
X212393345Y-87715315D01*
X212517315Y-87591345D01*
X212609356Y-87442124D01*
X212609358Y-87442119D01*
X212664505Y-87275697D01*
X212664506Y-87275690D01*
X212674999Y-87172986D01*
X212675000Y-87172973D01*
X212675000Y-86298000D01*
X211812500Y-86298000D01*
X211312500Y-86298000D01*
X211312500Y-85797999D01*
X211812499Y-85797999D01*
X211812500Y-85798000D01*
X212674999Y-85798000D01*
X212674999Y-85080000D01*
X224010001Y-85080000D01*
X224010001Y-86379986D01*
X224020494Y-86482697D01*
X224075641Y-86649119D01*
X224075643Y-86649124D01*
X224167684Y-86798345D01*
X224291654Y-86922315D01*
X224440875Y-87014356D01*
X224440880Y-87014358D01*
X224607302Y-87069505D01*
X224607309Y-87069506D01*
X224710019Y-87079999D01*
X225509999Y-87079999D01*
X225510000Y-87079998D01*
X225510000Y-85080000D01*
X224010001Y-85080000D01*
X212674999Y-85080000D01*
X212674999Y-84923028D01*
X212674998Y-84923013D01*
X212664505Y-84820302D01*
X212609358Y-84653880D01*
X212609356Y-84653875D01*
X212517315Y-84504654D01*
X212393345Y-84380684D01*
X212244124Y-84288643D01*
X212244119Y-84288641D01*
X212077697Y-84233494D01*
X212077690Y-84233493D01*
X211974986Y-84223000D01*
X211812500Y-84223000D01*
X211812499Y-85797999D01*
X211312500Y-85797999D01*
X211312500Y-84223000D01*
X211150029Y-84223000D01*
X211150012Y-84223001D01*
X211047302Y-84233494D01*
X210880880Y-84288641D01*
X210880875Y-84288643D01*
X210731654Y-84380684D01*
X210607684Y-84504654D01*
X210515643Y-84653875D01*
X210515642Y-84653878D01*
X210507706Y-84677829D01*
X210467933Y-84735273D01*
X210403417Y-84762096D01*
X210334641Y-84749781D01*
X210283441Y-84702237D01*
X210266000Y-84638824D01*
X210266000Y-83632000D01*
X210285685Y-83564961D01*
X210338489Y-83519206D01*
X210390000Y-83508000D01*
X223886000Y-83508000D01*
X223953039Y-83527685D01*
G37*
G04 #@! TD.AperFunction*
G04 #@! TA.AperFunction,Conductor*
G36*
X234643702Y-106304184D02*
G01*
X234664344Y-106320818D01*
X235903181Y-107559655D01*
X235936666Y-107620978D01*
X235939500Y-107647336D01*
X235939500Y-109658232D01*
X235919815Y-109725271D01*
X235905792Y-109742109D01*
X235906346Y-109742623D01*
X235903194Y-109746019D01*
X235739614Y-109951143D01*
X235608432Y-110178356D01*
X235512582Y-110422578D01*
X235512576Y-110422597D01*
X235454197Y-110678374D01*
X235454196Y-110678379D01*
X235434592Y-110939995D01*
X235434592Y-110940004D01*
X235454196Y-111201620D01*
X235454197Y-111201625D01*
X235512576Y-111457402D01*
X235512578Y-111457411D01*
X235512580Y-111457416D01*
X235608432Y-111701643D01*
X235739614Y-111928857D01*
X235871736Y-112094533D01*
X235903198Y-112133985D01*
X236084753Y-112302441D01*
X236095521Y-112312433D01*
X236312296Y-112460228D01*
X236312301Y-112460230D01*
X236312302Y-112460231D01*
X236312303Y-112460232D01*
X236437843Y-112520688D01*
X236548673Y-112574061D01*
X236548674Y-112574061D01*
X236548677Y-112574063D01*
X236799385Y-112651396D01*
X237058818Y-112690500D01*
X237321182Y-112690500D01*
X237580615Y-112651396D01*
X237831323Y-112574063D01*
X238067704Y-112460228D01*
X238284479Y-112312433D01*
X238476805Y-112133981D01*
X238640386Y-111928857D01*
X238771568Y-111701643D01*
X238867420Y-111457416D01*
X238925802Y-111201630D01*
X238945408Y-110940000D01*
X238925802Y-110678370D01*
X238867420Y-110422584D01*
X238771568Y-110178357D01*
X238726341Y-110100023D01*
X238709869Y-110032125D01*
X238732721Y-109966098D01*
X238746042Y-109950349D01*
X240834320Y-107862072D01*
X240895642Y-107828588D01*
X240965334Y-107833572D01*
X241021267Y-107875444D01*
X241045684Y-107940908D01*
X241046000Y-107949754D01*
X241046000Y-120780000D01*
X241026315Y-120847039D01*
X240973511Y-120892794D01*
X240922000Y-120904000D01*
X233477362Y-120904000D01*
X233410323Y-120884315D01*
X233389681Y-120867681D01*
X233208319Y-120686319D01*
X233174834Y-120624996D01*
X233172000Y-120598638D01*
X233172000Y-117567844D01*
X235190000Y-117567844D01*
X235196401Y-117627372D01*
X235196403Y-117627379D01*
X235246645Y-117762086D01*
X235246649Y-117762093D01*
X235332809Y-117877187D01*
X235332812Y-117877190D01*
X235447906Y-117963350D01*
X235447913Y-117963354D01*
X235582620Y-118013596D01*
X235582627Y-118013598D01*
X235642155Y-118019999D01*
X235642172Y-118020000D01*
X236940000Y-118020000D01*
X236940000Y-116898625D01*
X236959685Y-116831586D01*
X237012489Y-116785831D01*
X237081647Y-116775887D01*
X237092589Y-116777966D01*
X237101169Y-116780000D01*
X237101170Y-116780000D01*
X237234260Y-116780000D01*
X237234267Y-116780000D01*
X237301605Y-116772129D01*
X237370475Y-116783897D01*
X237422051Y-116831031D01*
X237440000Y-116895290D01*
X237440000Y-118020000D01*
X238737828Y-118020000D01*
X238737844Y-118019999D01*
X238797372Y-118013598D01*
X238797379Y-118013596D01*
X238932086Y-117963354D01*
X238932093Y-117963350D01*
X239047187Y-117877190D01*
X239047190Y-117877187D01*
X239133350Y-117762093D01*
X239133354Y-117762086D01*
X239183596Y-117627379D01*
X239183598Y-117627372D01*
X239189999Y-117567844D01*
X239190000Y-117567827D01*
X239190000Y-116270000D01*
X238068159Y-116270000D01*
X238001120Y-116250315D01*
X237955365Y-116197511D01*
X237944369Y-116138790D01*
X237953879Y-115975509D01*
X237953878Y-115975506D01*
X237943304Y-115915531D01*
X237951048Y-115846092D01*
X237995105Y-115791863D01*
X238061487Y-115770062D01*
X238065420Y-115770000D01*
X239190000Y-115770000D01*
X239190000Y-114472172D01*
X239189999Y-114472155D01*
X239183598Y-114412627D01*
X239183596Y-114412620D01*
X239133354Y-114277913D01*
X239133350Y-114277906D01*
X239047190Y-114162812D01*
X239047187Y-114162809D01*
X238932093Y-114076649D01*
X238932086Y-114076645D01*
X238797379Y-114026403D01*
X238797372Y-114026401D01*
X238737844Y-114020000D01*
X237440000Y-114020000D01*
X237440000Y-115141374D01*
X237420315Y-115208413D01*
X237367511Y-115254168D01*
X237298353Y-115264112D01*
X237287407Y-115262032D01*
X237278832Y-115260000D01*
X237278831Y-115260000D01*
X237145733Y-115260000D01*
X237078392Y-115267870D01*
X237009522Y-115256101D01*
X236957947Y-115208966D01*
X236939999Y-115144709D01*
X236940000Y-114020000D01*
X235642155Y-114020000D01*
X235582627Y-114026401D01*
X235582620Y-114026403D01*
X235447913Y-114076645D01*
X235447906Y-114076649D01*
X235332812Y-114162809D01*
X235332809Y-114162812D01*
X235246649Y-114277906D01*
X235246645Y-114277913D01*
X235196403Y-114412620D01*
X235196401Y-114412627D01*
X235190000Y-114472155D01*
X235190000Y-115770000D01*
X236311841Y-115770000D01*
X236378880Y-115789685D01*
X236424635Y-115842489D01*
X236435631Y-115901210D01*
X236426120Y-116064489D01*
X236426121Y-116064491D01*
X236436696Y-116124469D01*
X236428952Y-116193908D01*
X236384895Y-116248137D01*
X236318513Y-116269938D01*
X236314580Y-116270000D01*
X235190000Y-116270000D01*
X235190000Y-117567844D01*
X233172000Y-117567844D01*
X233172000Y-107327835D01*
X233191685Y-107260796D01*
X233208319Y-107240154D01*
X234127655Y-106320818D01*
X234188978Y-106287333D01*
X234215336Y-106284499D01*
X234576663Y-106284499D01*
X234643702Y-106304184D01*
G37*
G04 #@! TD.AperFunction*
G04 #@! TA.AperFunction,Conductor*
G36*
X240807677Y-88411685D02*
G01*
X240828319Y-88428319D01*
X241009680Y-88609680D01*
X241043165Y-88671003D01*
X241045999Y-88697361D01*
X241045999Y-106466245D01*
X241026314Y-106533284D01*
X241009680Y-106553926D01*
X238652180Y-108911426D01*
X238590857Y-108944911D01*
X238521165Y-108939927D01*
X238465232Y-108898055D01*
X238440815Y-108832591D01*
X238440499Y-108823768D01*
X238440499Y-107151708D01*
X238440889Y-107144760D01*
X238445238Y-107106173D01*
X238440639Y-107037962D01*
X238440500Y-107033807D01*
X238440500Y-107021852D01*
X238440500Y-107021845D01*
X238436725Y-106979901D01*
X238430097Y-106881588D01*
X238429028Y-106877345D01*
X238425768Y-106858155D01*
X238425377Y-106853813D01*
X238399169Y-106758852D01*
X238397465Y-106752089D01*
X238375096Y-106663317D01*
X238373289Y-106659339D01*
X238366653Y-106641034D01*
X238365493Y-106636830D01*
X238365492Y-106636827D01*
X238322741Y-106548055D01*
X238282010Y-106458382D01*
X238282007Y-106458375D01*
X238279518Y-106454782D01*
X238269728Y-106437970D01*
X238267829Y-106434027D01*
X238267827Y-106434024D01*
X238267825Y-106434020D01*
X238231417Y-106383910D01*
X238209914Y-106354314D01*
X238153820Y-106273346D01*
X238150729Y-106270255D01*
X238138093Y-106255461D01*
X238135521Y-106251921D01*
X238135519Y-106251919D01*
X238064320Y-106183846D01*
X235932818Y-104052344D01*
X235899333Y-103991021D01*
X235896499Y-103964663D01*
X235896499Y-103849681D01*
X235896499Y-102736128D01*
X235890091Y-102676517D01*
X235839796Y-102541669D01*
X235839795Y-102541668D01*
X235839793Y-102541664D01*
X235753547Y-102426455D01*
X235753544Y-102426452D01*
X235638335Y-102340206D01*
X235638328Y-102340202D01*
X235503482Y-102289908D01*
X235503483Y-102289908D01*
X235443883Y-102283501D01*
X235443881Y-102283500D01*
X235443873Y-102283500D01*
X235443864Y-102283500D01*
X233348129Y-102283500D01*
X233348123Y-102283501D01*
X233288516Y-102289908D01*
X233153671Y-102340202D01*
X233153664Y-102340206D01*
X233038455Y-102426452D01*
X233038452Y-102426455D01*
X232952206Y-102541664D01*
X232952202Y-102541671D01*
X232901908Y-102676517D01*
X232895501Y-102736116D01*
X232895501Y-102736123D01*
X232895500Y-102736135D01*
X232895500Y-103964662D01*
X232875815Y-104031701D01*
X232859181Y-104052343D01*
X231789443Y-105122081D01*
X231728120Y-105155566D01*
X231658428Y-105150582D01*
X231614081Y-105122081D01*
X230378000Y-103886000D01*
X226111362Y-103886000D01*
X226044323Y-103866315D01*
X226023681Y-103849681D01*
X222032319Y-99858319D01*
X221998834Y-99796996D01*
X221996000Y-99770638D01*
X221996000Y-98236000D01*
X222838001Y-98236000D01*
X222838001Y-99435986D01*
X222848494Y-99538697D01*
X222903641Y-99705119D01*
X222903643Y-99705124D01*
X222995684Y-99854345D01*
X223119654Y-99978315D01*
X223268875Y-100070356D01*
X223268880Y-100070358D01*
X223435302Y-100125505D01*
X223435309Y-100125506D01*
X223538019Y-100135999D01*
X225337999Y-100135999D01*
X225338000Y-100135998D01*
X225338000Y-98236000D01*
X225838000Y-98236000D01*
X225838000Y-100135999D01*
X227637972Y-100135999D01*
X227637986Y-100135998D01*
X227740697Y-100125505D01*
X227907119Y-100070358D01*
X227907124Y-100070356D01*
X228056345Y-99978315D01*
X228180315Y-99854345D01*
X228272356Y-99705124D01*
X228272358Y-99705119D01*
X228327505Y-99538697D01*
X228327506Y-99538690D01*
X228337999Y-99435986D01*
X228338000Y-99435973D01*
X228338000Y-98236000D01*
X225838000Y-98236000D01*
X225338000Y-98236000D01*
X222838001Y-98236000D01*
X221996000Y-98236000D01*
X221996000Y-98034000D01*
X232646001Y-98034000D01*
X232646001Y-99333986D01*
X232656494Y-99436697D01*
X232711641Y-99603119D01*
X232711643Y-99603124D01*
X232803684Y-99752345D01*
X232927654Y-99876315D01*
X233076875Y-99968356D01*
X233076880Y-99968358D01*
X233243302Y-100023505D01*
X233243309Y-100023506D01*
X233346019Y-100033999D01*
X234145999Y-100033999D01*
X234146000Y-100033998D01*
X234146000Y-98034000D01*
X234646000Y-98034000D01*
X234646000Y-100033999D01*
X235445972Y-100033999D01*
X235445986Y-100033998D01*
X235548697Y-100023505D01*
X235715119Y-99968358D01*
X235715124Y-99968356D01*
X235864345Y-99876315D01*
X235988315Y-99752345D01*
X236080356Y-99603124D01*
X236080358Y-99603119D01*
X236135505Y-99436697D01*
X236135506Y-99436690D01*
X236145999Y-99333986D01*
X236146000Y-99333973D01*
X236146000Y-98034000D01*
X234646000Y-98034000D01*
X234146000Y-98034000D01*
X232646001Y-98034000D01*
X221996000Y-98034000D01*
X221996000Y-97736000D01*
X222838000Y-97736000D01*
X225338000Y-97736000D01*
X225338000Y-95836000D01*
X225838000Y-95836000D01*
X225838000Y-97736000D01*
X228337999Y-97736000D01*
X228337999Y-97534000D01*
X232646000Y-97534000D01*
X234146000Y-97534000D01*
X234146000Y-95534000D01*
X234646000Y-95534000D01*
X234646000Y-97534000D01*
X236145998Y-97534000D01*
X236145999Y-96234028D01*
X236145998Y-96234013D01*
X236135505Y-96131302D01*
X236080358Y-95964880D01*
X236080356Y-95964875D01*
X235988315Y-95815654D01*
X235864345Y-95691684D01*
X235715124Y-95599643D01*
X235715119Y-95599641D01*
X235548697Y-95544494D01*
X235548690Y-95544493D01*
X235445986Y-95534000D01*
X234646000Y-95534000D01*
X234146000Y-95534000D01*
X233346028Y-95534000D01*
X233346012Y-95534001D01*
X233243302Y-95544494D01*
X233076880Y-95599641D01*
X233076875Y-95599643D01*
X232927654Y-95691684D01*
X232803684Y-95815654D01*
X232711643Y-95964875D01*
X232711641Y-95964880D01*
X232656494Y-96131302D01*
X232656493Y-96131309D01*
X232646000Y-96234013D01*
X232646000Y-97534000D01*
X228337999Y-97534000D01*
X228337999Y-96536028D01*
X228337998Y-96536013D01*
X228327505Y-96433302D01*
X228272358Y-96266880D01*
X228272356Y-96266875D01*
X228180315Y-96117654D01*
X228056345Y-95993684D01*
X227907124Y-95901643D01*
X227907119Y-95901641D01*
X227740697Y-95846494D01*
X227740690Y-95846493D01*
X227637986Y-95836000D01*
X225838000Y-95836000D01*
X225338000Y-95836000D01*
X223538028Y-95836000D01*
X223538012Y-95836001D01*
X223435302Y-95846494D01*
X223268880Y-95901641D01*
X223268875Y-95901643D01*
X223119654Y-95993684D01*
X222995684Y-96117654D01*
X222903643Y-96266875D01*
X222903641Y-96266880D01*
X222848494Y-96433302D01*
X222848493Y-96433309D01*
X222838000Y-96536013D01*
X222838000Y-97736000D01*
X221996000Y-97736000D01*
X221996000Y-91580000D01*
X224010001Y-91580000D01*
X224010001Y-92879986D01*
X224020494Y-92982697D01*
X224075641Y-93149119D01*
X224075643Y-93149124D01*
X224167684Y-93298345D01*
X224291654Y-93422315D01*
X224440875Y-93514356D01*
X224440880Y-93514358D01*
X224607302Y-93569505D01*
X224607309Y-93569506D01*
X224710019Y-93579999D01*
X225509999Y-93579999D01*
X225510000Y-93579998D01*
X225510000Y-91580000D01*
X226010000Y-91580000D01*
X226010000Y-93579999D01*
X226809972Y-93579999D01*
X226809986Y-93579998D01*
X226912697Y-93569505D01*
X227079119Y-93514358D01*
X227079124Y-93514356D01*
X227228345Y-93422315D01*
X227352315Y-93298345D01*
X227444356Y-93149124D01*
X227444358Y-93149119D01*
X227499505Y-92982697D01*
X227499506Y-92982690D01*
X227509999Y-92879986D01*
X227510000Y-92879973D01*
X227510000Y-92421844D01*
X235190000Y-92421844D01*
X235196401Y-92481372D01*
X235196403Y-92481379D01*
X235246645Y-92616086D01*
X235246649Y-92616093D01*
X235332809Y-92731187D01*
X235332812Y-92731190D01*
X235447906Y-92817350D01*
X235447913Y-92817354D01*
X235582620Y-92867596D01*
X235582627Y-92867598D01*
X235642155Y-92873999D01*
X235642172Y-92874000D01*
X236940000Y-92874000D01*
X236940000Y-91752625D01*
X236959685Y-91685586D01*
X237012489Y-91639831D01*
X237081647Y-91629887D01*
X237092589Y-91631966D01*
X237101169Y-91634000D01*
X237101170Y-91634000D01*
X237234260Y-91634000D01*
X237234267Y-91634000D01*
X237301605Y-91626129D01*
X237370475Y-91637897D01*
X237422051Y-91685031D01*
X237440000Y-91749290D01*
X237440000Y-92874000D01*
X238737828Y-92874000D01*
X238737844Y-92873999D01*
X238797372Y-92867598D01*
X238797379Y-92867596D01*
X238932086Y-92817354D01*
X238932093Y-92817350D01*
X239047187Y-92731190D01*
X239047190Y-92731187D01*
X239133350Y-92616093D01*
X239133354Y-92616086D01*
X239183596Y-92481379D01*
X239183598Y-92481372D01*
X239189999Y-92421844D01*
X239190000Y-92421827D01*
X239190000Y-91124000D01*
X238068159Y-91124000D01*
X238001120Y-91104315D01*
X237955365Y-91051511D01*
X237944369Y-90992790D01*
X237953879Y-90829509D01*
X237953878Y-90829506D01*
X237943304Y-90769531D01*
X237951048Y-90700092D01*
X237995105Y-90645863D01*
X238061487Y-90624062D01*
X238065420Y-90624000D01*
X239190000Y-90624000D01*
X239190000Y-89326172D01*
X239189999Y-89326155D01*
X239183598Y-89266627D01*
X239183596Y-89266620D01*
X239133354Y-89131913D01*
X239133350Y-89131906D01*
X239047190Y-89016812D01*
X239047187Y-89016809D01*
X238932093Y-88930649D01*
X238932086Y-88930645D01*
X238797379Y-88880403D01*
X238797372Y-88880401D01*
X238737844Y-88874000D01*
X237440000Y-88874000D01*
X237440000Y-89995374D01*
X237420315Y-90062413D01*
X237367511Y-90108168D01*
X237298353Y-90118112D01*
X237287407Y-90116032D01*
X237278832Y-90114000D01*
X237278831Y-90114000D01*
X237145733Y-90114000D01*
X237078392Y-90121870D01*
X237009522Y-90110101D01*
X236957947Y-90062966D01*
X236939999Y-89998709D01*
X236940000Y-88874000D01*
X235642155Y-88874000D01*
X235582627Y-88880401D01*
X235582620Y-88880403D01*
X235447913Y-88930645D01*
X235447906Y-88930649D01*
X235332812Y-89016809D01*
X235332809Y-89016812D01*
X235246649Y-89131906D01*
X235246645Y-89131913D01*
X235196403Y-89266620D01*
X235196401Y-89266627D01*
X235190000Y-89326155D01*
X235190000Y-90624000D01*
X236311841Y-90624000D01*
X236378880Y-90643685D01*
X236424635Y-90696489D01*
X236435631Y-90755210D01*
X236426120Y-90918489D01*
X236426121Y-90918491D01*
X236436696Y-90978469D01*
X236428952Y-91047908D01*
X236384895Y-91102137D01*
X236318513Y-91123938D01*
X236314580Y-91124000D01*
X235190000Y-91124000D01*
X235190000Y-92421844D01*
X227510000Y-92421844D01*
X227510000Y-91580000D01*
X226010000Y-91580000D01*
X225510000Y-91580000D01*
X224010001Y-91580000D01*
X221996000Y-91580000D01*
X221996000Y-91080000D01*
X224010000Y-91080000D01*
X225510000Y-91080000D01*
X225510000Y-89080000D01*
X226010000Y-89080000D01*
X226010000Y-91080000D01*
X227509998Y-91080000D01*
X227509999Y-89780028D01*
X227509998Y-89780013D01*
X227499505Y-89677302D01*
X227444358Y-89510880D01*
X227444356Y-89510875D01*
X227352315Y-89361654D01*
X227228345Y-89237684D01*
X227079124Y-89145643D01*
X227079119Y-89145641D01*
X226912697Y-89090494D01*
X226912690Y-89090493D01*
X226809986Y-89080000D01*
X226010000Y-89080000D01*
X225510000Y-89080000D01*
X224710028Y-89080000D01*
X224710012Y-89080001D01*
X224607302Y-89090494D01*
X224440880Y-89145641D01*
X224440875Y-89145643D01*
X224291654Y-89237684D01*
X224167684Y-89361654D01*
X224075643Y-89510875D01*
X224075641Y-89510880D01*
X224020494Y-89677302D01*
X224020493Y-89677309D01*
X224010000Y-89780013D01*
X224010000Y-91080000D01*
X221996000Y-91080000D01*
X221996000Y-88516000D01*
X222015685Y-88448961D01*
X222068489Y-88403206D01*
X222120000Y-88392000D01*
X240740638Y-88392000D01*
X240807677Y-88411685D01*
G37*
G04 #@! TD.AperFunction*
M02*
