G04 #@! TF.GenerationSoftware,KiCad,Pcbnew,7.0.7*
G04 #@! TF.CreationDate,2023-12-28T09:21:24+02:00*
G04 #@! TF.ProjectId,LED Dimmer,4c454420-4469-46d6-9d65-722e6b696361,rev?*
G04 #@! TF.SameCoordinates,Original*
G04 #@! TF.FileFunction,Copper,L2,Bot*
G04 #@! TF.FilePolarity,Positive*
%FSLAX46Y46*%
G04 Gerber Fmt 4.6, Leading zero omitted, Abs format (unit mm)*
G04 Created by KiCad (PCBNEW 7.0.7) date 2023-12-28 09:21:24*
%MOMM*%
%LPD*%
G01*
G04 APERTURE LIST*
G04 #@! TA.AperFunction,ComponentPad*
%ADD10R,3.000000X3.000000*%
G04 #@! TD*
G04 #@! TA.AperFunction,ComponentPad*
%ADD11C,3.000000*%
G04 #@! TD*
G04 #@! TA.AperFunction,ComponentPad*
%ADD12R,1.700000X1.700000*%
G04 #@! TD*
G04 #@! TA.AperFunction,ComponentPad*
%ADD13O,1.700000X1.700000*%
G04 #@! TD*
G04 #@! TA.AperFunction,ComponentPad*
%ADD14C,2.000000*%
G04 #@! TD*
G04 #@! TA.AperFunction,ComponentPad*
%ADD15R,1.600000X1.600000*%
G04 #@! TD*
G04 #@! TA.AperFunction,ComponentPad*
%ADD16O,1.600000X1.600000*%
G04 #@! TD*
G04 #@! TA.AperFunction,ViaPad*
%ADD17C,0.800000*%
G04 #@! TD*
G04 #@! TA.AperFunction,Conductor*
%ADD18C,1.000000*%
G04 #@! TD*
G04 #@! TA.AperFunction,Conductor*
%ADD19C,0.500000*%
G04 #@! TD*
G04 #@! TA.AperFunction,Conductor*
%ADD20C,0.300000*%
G04 #@! TD*
G04 APERTURE END LIST*
D10*
X237190000Y-90874000D03*
D11*
X237190000Y-85794000D03*
D12*
X183896000Y-92456000D03*
D13*
X183896000Y-89916000D03*
X183896000Y-87376000D03*
X183896000Y-84836000D03*
D14*
X189842000Y-121484000D03*
X196342000Y-121484000D03*
X189842000Y-125984000D03*
X196342000Y-125984000D03*
X211380000Y-121448000D03*
X217880000Y-121448000D03*
X211380000Y-125948000D03*
X217880000Y-125948000D03*
X173518000Y-91134000D03*
X173518000Y-84634000D03*
X178018000Y-91134000D03*
X178018000Y-84634000D03*
X200562000Y-121448000D03*
X207062000Y-121448000D03*
X200562000Y-125948000D03*
X207062000Y-125948000D03*
X179174000Y-121448000D03*
X185674000Y-121448000D03*
X179174000Y-125948000D03*
X185674000Y-125948000D03*
D15*
X189494000Y-90175000D03*
D16*
X189494000Y-92715000D03*
X189494000Y-95255000D03*
X189494000Y-97795000D03*
X189494000Y-100335000D03*
X189494000Y-102875000D03*
X189494000Y-105415000D03*
X189494000Y-107955000D03*
X189494000Y-110495000D03*
X189494000Y-113035000D03*
X197114000Y-113035000D03*
X197114000Y-110495000D03*
X197114000Y-107955000D03*
X197114000Y-105415000D03*
X197114000Y-102875000D03*
X197114000Y-100335000D03*
X197114000Y-97795000D03*
X197114000Y-95255000D03*
X197114000Y-92715000D03*
X197114000Y-90175000D03*
D10*
X237190000Y-116020000D03*
D11*
X237190000Y-110940000D03*
D17*
X196088000Y-83566000D03*
X235966000Y-119380000D03*
X240030000Y-117094000D03*
X233934000Y-101346000D03*
X227838000Y-103124000D03*
X229870000Y-94488000D03*
X231902000Y-98044000D03*
X175514000Y-112522000D03*
X237998000Y-97790000D03*
X191770000Y-83058000D03*
X240030000Y-104902000D03*
X237998000Y-101346000D03*
X240030000Y-101346000D03*
X196088000Y-82550000D03*
X227838000Y-92710000D03*
X231902000Y-90932000D03*
X199390000Y-96774000D03*
X237998000Y-94234000D03*
X193040000Y-83058000D03*
X211328000Y-94234000D03*
X237998000Y-103124000D03*
X175514000Y-116332000D03*
X227838000Y-90932000D03*
X234442000Y-114808000D03*
X237998000Y-119380000D03*
X200914000Y-90678000D03*
X231902000Y-103124000D03*
X233934000Y-94488000D03*
X240030000Y-114808000D03*
X240030000Y-103124000D03*
X231902000Y-94488000D03*
X229870000Y-98044000D03*
X231902000Y-92710000D03*
X175514000Y-104902000D03*
X237998000Y-99568000D03*
X225806000Y-96266000D03*
X234442000Y-110236000D03*
X225806000Y-92710000D03*
X234442000Y-107950000D03*
X229870000Y-103124000D03*
X237998000Y-96012000D03*
X190246000Y-83058000D03*
X227838000Y-94488000D03*
X227838000Y-101346000D03*
X229870000Y-101346000D03*
X240030000Y-97790000D03*
X233934000Y-98044000D03*
X234442000Y-112522000D03*
X231902000Y-101346000D03*
X240030000Y-94234000D03*
X194564000Y-87122000D03*
X210820000Y-106934000D03*
X235966000Y-101346000D03*
X227838000Y-98044000D03*
X225806000Y-94488000D03*
X207284000Y-92950000D03*
X233934000Y-90932000D03*
X194564000Y-83058000D03*
X225806000Y-98044000D03*
X240030000Y-119380000D03*
X234442000Y-119380000D03*
X225806000Y-90932000D03*
X229870000Y-92710000D03*
X229870000Y-90932000D03*
X240030000Y-110236000D03*
X240030000Y-96012000D03*
X175514000Y-108712000D03*
X233934000Y-92710000D03*
X240030000Y-99568000D03*
X234442000Y-117094000D03*
X198120000Y-81280000D03*
X186690000Y-98044000D03*
X209550000Y-92964000D03*
X209570000Y-89140000D03*
X215392000Y-89916000D03*
X215392000Y-88900000D03*
X216916000Y-92202000D03*
X215392000Y-92202000D03*
X216916000Y-93472000D03*
X215392000Y-94742000D03*
X216916000Y-88900000D03*
X216916000Y-94742000D03*
X218440000Y-92202000D03*
X218440000Y-93472000D03*
X216916000Y-89916000D03*
X218440000Y-94742000D03*
X215392000Y-93472000D03*
D18*
X237190000Y-116020000D02*
X237040000Y-116020000D01*
X236982000Y-116078000D02*
X212598000Y-116078000D01*
X210820000Y-106934000D02*
X209550000Y-105664000D01*
X208568000Y-94234000D02*
X211328000Y-94234000D01*
X210820000Y-114300000D02*
X210820000Y-106934000D01*
X212598000Y-116078000D02*
X210820000Y-114300000D01*
X237040000Y-116020000D02*
X236982000Y-116078000D01*
X209550000Y-95216000D02*
X207284000Y-92950000D01*
X209550000Y-105664000D02*
X209550000Y-95216000D01*
X207284000Y-92950000D02*
X208568000Y-94234000D01*
D19*
X234950000Y-80010000D02*
X237190000Y-82250000D01*
X237190000Y-82250000D02*
X237190000Y-85794000D01*
X199390000Y-80010000D02*
X234950000Y-80010000D01*
X198120000Y-81280000D02*
X199390000Y-80010000D01*
D20*
X179236000Y-89916000D02*
X178018000Y-91134000D01*
X194818000Y-94996000D02*
X194818000Y-98044000D01*
X183896000Y-89916000D02*
X185545000Y-91565000D01*
X195077000Y-98298000D02*
X197114000Y-100335000D01*
X191387000Y-91565000D02*
X194818000Y-94996000D01*
X185545000Y-91565000D02*
X185928000Y-91565000D01*
X195072000Y-98298000D02*
X195077000Y-98298000D01*
X185928000Y-91565000D02*
X191387000Y-91565000D01*
X186690000Y-92327000D02*
X185928000Y-91565000D01*
X183896000Y-89916000D02*
X179236000Y-89916000D01*
X194818000Y-98044000D02*
X195072000Y-98298000D01*
X186690000Y-98044000D02*
X186690000Y-92327000D01*
X183896000Y-87376000D02*
X185420000Y-88900000D01*
X195580000Y-96261000D02*
X197114000Y-97795000D01*
X195580000Y-93961000D02*
X195580000Y-96261000D01*
X185420000Y-88900000D02*
X190519000Y-88900000D01*
X190519000Y-88900000D02*
X195580000Y-93961000D01*
X209550000Y-89160000D02*
X209570000Y-89140000D01*
X209550000Y-92964000D02*
X209550000Y-89160000D01*
G04 #@! TA.AperFunction,Conductor*
G36*
X240807677Y-88411685D02*
G01*
X240828319Y-88428319D01*
X241009681Y-88609681D01*
X241043166Y-88671004D01*
X241045999Y-88697361D01*
X241046000Y-118110000D01*
X233172000Y-118110000D01*
X233172000Y-117567844D01*
X235190000Y-117567844D01*
X235196401Y-117627372D01*
X235196403Y-117627379D01*
X235246645Y-117762086D01*
X235246649Y-117762093D01*
X235332809Y-117877187D01*
X235332812Y-117877190D01*
X235447906Y-117963350D01*
X235447913Y-117963354D01*
X235582620Y-118013596D01*
X235582627Y-118013598D01*
X235642155Y-118019999D01*
X235642172Y-118020000D01*
X236940000Y-118020000D01*
X236940000Y-116898625D01*
X236959685Y-116831586D01*
X237012489Y-116785831D01*
X237081647Y-116775887D01*
X237092589Y-116777966D01*
X237101169Y-116780000D01*
X237101170Y-116780000D01*
X237234260Y-116780000D01*
X237234267Y-116780000D01*
X237301605Y-116772129D01*
X237370475Y-116783897D01*
X237422051Y-116831031D01*
X237440000Y-116895290D01*
X237440000Y-118020000D01*
X238737828Y-118020000D01*
X238737844Y-118019999D01*
X238797372Y-118013598D01*
X238797379Y-118013596D01*
X238932086Y-117963354D01*
X238932093Y-117963350D01*
X239047187Y-117877190D01*
X239047190Y-117877187D01*
X239133350Y-117762093D01*
X239133354Y-117762086D01*
X239183596Y-117627379D01*
X239183598Y-117627372D01*
X239189999Y-117567844D01*
X239190000Y-117567827D01*
X239190000Y-116270000D01*
X238068159Y-116270000D01*
X238001120Y-116250315D01*
X237955365Y-116197511D01*
X237944369Y-116138790D01*
X237953879Y-115975509D01*
X237953878Y-115975506D01*
X237943304Y-115915531D01*
X237951048Y-115846092D01*
X237995105Y-115791863D01*
X238061487Y-115770062D01*
X238065420Y-115770000D01*
X239190000Y-115770000D01*
X239190000Y-114472172D01*
X239189999Y-114472155D01*
X239183598Y-114412627D01*
X239183596Y-114412620D01*
X239133354Y-114277913D01*
X239133350Y-114277906D01*
X239047190Y-114162812D01*
X239047187Y-114162809D01*
X238932093Y-114076649D01*
X238932086Y-114076645D01*
X238797379Y-114026403D01*
X238797372Y-114026401D01*
X238737844Y-114020000D01*
X237440000Y-114020000D01*
X237440000Y-115141374D01*
X237420315Y-115208413D01*
X237367511Y-115254168D01*
X237298353Y-115264112D01*
X237287407Y-115262032D01*
X237278832Y-115260000D01*
X237278831Y-115260000D01*
X237145733Y-115260000D01*
X237078392Y-115267870D01*
X237009522Y-115256101D01*
X236957947Y-115208966D01*
X236939999Y-115144709D01*
X236940000Y-114020000D01*
X235642155Y-114020000D01*
X235582627Y-114026401D01*
X235582620Y-114026403D01*
X235447913Y-114076645D01*
X235447906Y-114076649D01*
X235332812Y-114162809D01*
X235332809Y-114162812D01*
X235246649Y-114277906D01*
X235246645Y-114277913D01*
X235196403Y-114412620D01*
X235196401Y-114412627D01*
X235190000Y-114472155D01*
X235190000Y-115770000D01*
X236311841Y-115770000D01*
X236378880Y-115789685D01*
X236424635Y-115842489D01*
X236435631Y-115901210D01*
X236426120Y-116064489D01*
X236426121Y-116064491D01*
X236436696Y-116124469D01*
X236428952Y-116193908D01*
X236384895Y-116248137D01*
X236318513Y-116269938D01*
X236314580Y-116270000D01*
X235190000Y-116270000D01*
X235190000Y-117567844D01*
X233172000Y-117567844D01*
X233172000Y-110940004D01*
X235434592Y-110940004D01*
X235454196Y-111201620D01*
X235454197Y-111201625D01*
X235512576Y-111457402D01*
X235512578Y-111457411D01*
X235512580Y-111457416D01*
X235608432Y-111701643D01*
X235739614Y-111928857D01*
X235871736Y-112094533D01*
X235903198Y-112133985D01*
X236084753Y-112302441D01*
X236095521Y-112312433D01*
X236312296Y-112460228D01*
X236312301Y-112460230D01*
X236312302Y-112460231D01*
X236312303Y-112460232D01*
X236437843Y-112520688D01*
X236548673Y-112574061D01*
X236548674Y-112574061D01*
X236548677Y-112574063D01*
X236799385Y-112651396D01*
X237058818Y-112690500D01*
X237321182Y-112690500D01*
X237580615Y-112651396D01*
X237831323Y-112574063D01*
X238067704Y-112460228D01*
X238284479Y-112312433D01*
X238476805Y-112133981D01*
X238640386Y-111928857D01*
X238771568Y-111701643D01*
X238867420Y-111457416D01*
X238925802Y-111201630D01*
X238945408Y-110940000D01*
X238925802Y-110678370D01*
X238867420Y-110422584D01*
X238771568Y-110178357D01*
X238640386Y-109951143D01*
X238476805Y-109746019D01*
X238476804Y-109746018D01*
X238476801Y-109746014D01*
X238284479Y-109567567D01*
X238284478Y-109567567D01*
X238067704Y-109419772D01*
X238067700Y-109419770D01*
X238067697Y-109419768D01*
X238067696Y-109419767D01*
X237831325Y-109305938D01*
X237831327Y-109305938D01*
X237580623Y-109228606D01*
X237580619Y-109228605D01*
X237580615Y-109228604D01*
X237455823Y-109209794D01*
X237321187Y-109189500D01*
X237321182Y-109189500D01*
X237058818Y-109189500D01*
X237058812Y-109189500D01*
X236897247Y-109213853D01*
X236799385Y-109228604D01*
X236799381Y-109228605D01*
X236799382Y-109228605D01*
X236799376Y-109228606D01*
X236548673Y-109305938D01*
X236312303Y-109419767D01*
X236312302Y-109419768D01*
X236095520Y-109567567D01*
X235903198Y-109746014D01*
X235739614Y-109951143D01*
X235608432Y-110178356D01*
X235512582Y-110422578D01*
X235512576Y-110422597D01*
X235454197Y-110678374D01*
X235454196Y-110678379D01*
X235434592Y-110939995D01*
X235434592Y-110940004D01*
X233172000Y-110940004D01*
X233172000Y-106680000D01*
X230378000Y-103886000D01*
X226111362Y-103886000D01*
X226044323Y-103866315D01*
X226023681Y-103849681D01*
X222032319Y-99858319D01*
X221998834Y-99796996D01*
X221996000Y-99770638D01*
X221996000Y-92421844D01*
X235190000Y-92421844D01*
X235196401Y-92481372D01*
X235196403Y-92481379D01*
X235246645Y-92616086D01*
X235246649Y-92616093D01*
X235332809Y-92731187D01*
X235332812Y-92731190D01*
X235447906Y-92817350D01*
X235447913Y-92817354D01*
X235582620Y-92867596D01*
X235582627Y-92867598D01*
X235642155Y-92873999D01*
X235642172Y-92874000D01*
X236940000Y-92874000D01*
X236940000Y-91752625D01*
X236959685Y-91685586D01*
X237012489Y-91639831D01*
X237081647Y-91629887D01*
X237092589Y-91631966D01*
X237101169Y-91634000D01*
X237101170Y-91634000D01*
X237234260Y-91634000D01*
X237234267Y-91634000D01*
X237301605Y-91626129D01*
X237370475Y-91637897D01*
X237422051Y-91685031D01*
X237440000Y-91749290D01*
X237440000Y-92874000D01*
X238737828Y-92874000D01*
X238737844Y-92873999D01*
X238797372Y-92867598D01*
X238797379Y-92867596D01*
X238932086Y-92817354D01*
X238932093Y-92817350D01*
X239047187Y-92731190D01*
X239047190Y-92731187D01*
X239133350Y-92616093D01*
X239133354Y-92616086D01*
X239183596Y-92481379D01*
X239183598Y-92481372D01*
X239189999Y-92421844D01*
X239190000Y-92421827D01*
X239190000Y-91124000D01*
X238068159Y-91124000D01*
X238001120Y-91104315D01*
X237955365Y-91051511D01*
X237944369Y-90992790D01*
X237953879Y-90829509D01*
X237953878Y-90829506D01*
X237943304Y-90769531D01*
X237951048Y-90700092D01*
X237995105Y-90645863D01*
X238061487Y-90624062D01*
X238065420Y-90624000D01*
X239190000Y-90624000D01*
X239190000Y-89326172D01*
X239189999Y-89326155D01*
X239183598Y-89266627D01*
X239183596Y-89266620D01*
X239133354Y-89131913D01*
X239133350Y-89131906D01*
X239047190Y-89016812D01*
X239047187Y-89016809D01*
X238932093Y-88930649D01*
X238932086Y-88930645D01*
X238797379Y-88880403D01*
X238797372Y-88880401D01*
X238737844Y-88874000D01*
X237440000Y-88874000D01*
X237440000Y-89995374D01*
X237420315Y-90062413D01*
X237367511Y-90108168D01*
X237298353Y-90118112D01*
X237287407Y-90116032D01*
X237278832Y-90114000D01*
X237278831Y-90114000D01*
X237145733Y-90114000D01*
X237078392Y-90121870D01*
X237009522Y-90110101D01*
X236957947Y-90062966D01*
X236939999Y-89998709D01*
X236940000Y-88874000D01*
X235642155Y-88874000D01*
X235582627Y-88880401D01*
X235582620Y-88880403D01*
X235447913Y-88930645D01*
X235447906Y-88930649D01*
X235332812Y-89016809D01*
X235332809Y-89016812D01*
X235246649Y-89131906D01*
X235246645Y-89131913D01*
X235196403Y-89266620D01*
X235196401Y-89266627D01*
X235190000Y-89326155D01*
X235190000Y-90624000D01*
X236311841Y-90624000D01*
X236378880Y-90643685D01*
X236424635Y-90696489D01*
X236435631Y-90755210D01*
X236426120Y-90918489D01*
X236426121Y-90918491D01*
X236436696Y-90978469D01*
X236428952Y-91047908D01*
X236384895Y-91102137D01*
X236318513Y-91123938D01*
X236314580Y-91124000D01*
X235190000Y-91124000D01*
X235190000Y-92421844D01*
X221996000Y-92421844D01*
X221996000Y-88516000D01*
X222015685Y-88448961D01*
X222068489Y-88403206D01*
X222120000Y-88392000D01*
X240740638Y-88392000D01*
X240807677Y-88411685D01*
G37*
G04 #@! TD.AperFunction*
G04 #@! TA.AperFunction,Conductor*
G36*
X198703862Y-79775685D02*
G01*
X198749617Y-79828489D01*
X198759561Y-79897647D01*
X198730536Y-79961203D01*
X198724504Y-79967681D01*
X198094218Y-80597967D01*
X198036212Y-80630683D01*
X197887633Y-80667304D01*
X197747762Y-80740715D01*
X197629516Y-80845471D01*
X197539781Y-80975475D01*
X197539780Y-80975476D01*
X197483762Y-81123181D01*
X197464722Y-81279999D01*
X197464722Y-81280000D01*
X197483762Y-81436818D01*
X197539780Y-81584522D01*
X197539780Y-81584523D01*
X197629517Y-81714530D01*
X197747760Y-81819283D01*
X197747762Y-81819284D01*
X197887634Y-81892696D01*
X198041014Y-81930500D01*
X198041015Y-81930500D01*
X198198985Y-81930500D01*
X198352365Y-81892696D01*
X198399691Y-81867857D01*
X198492240Y-81819283D01*
X198610483Y-81714530D01*
X198700220Y-81584523D01*
X198756237Y-81436818D01*
X198762859Y-81382273D01*
X198790480Y-81318096D01*
X198798263Y-81309549D01*
X199560994Y-80546819D01*
X199622318Y-80513334D01*
X199648676Y-80510500D01*
X205108000Y-80510500D01*
X205175039Y-80530185D01*
X205220794Y-80582989D01*
X205232000Y-80634500D01*
X205232000Y-118110000D01*
X211582000Y-118110000D01*
X241046000Y-118110000D01*
X241046000Y-130178000D01*
X241026315Y-130245039D01*
X240973511Y-130290794D01*
X240922000Y-130302000D01*
X224790000Y-130302000D01*
X169796000Y-130302000D01*
X169728961Y-130282315D01*
X169683206Y-130229511D01*
X169672000Y-130178000D01*
X169672000Y-125948002D01*
X177918723Y-125948002D01*
X177937793Y-126165975D01*
X177937793Y-126165979D01*
X177994422Y-126377322D01*
X177994424Y-126377326D01*
X177994425Y-126377330D01*
X178011212Y-126413330D01*
X178086897Y-126575638D01*
X178086898Y-126575639D01*
X178212402Y-126754877D01*
X178367123Y-126909598D01*
X178546361Y-127035102D01*
X178744670Y-127127575D01*
X178956023Y-127184207D01*
X179138926Y-127200208D01*
X179173998Y-127203277D01*
X179174000Y-127203277D01*
X179174002Y-127203277D01*
X179202254Y-127200805D01*
X179391977Y-127184207D01*
X179603330Y-127127575D01*
X179801639Y-127035102D01*
X179980877Y-126909598D01*
X180135598Y-126754877D01*
X180261102Y-126575639D01*
X180353575Y-126377330D01*
X180410207Y-126165977D01*
X180429277Y-125948002D01*
X184418723Y-125948002D01*
X184437793Y-126165975D01*
X184437793Y-126165979D01*
X184494422Y-126377322D01*
X184494424Y-126377326D01*
X184494425Y-126377330D01*
X184511212Y-126413330D01*
X184586897Y-126575638D01*
X184586898Y-126575639D01*
X184712402Y-126754877D01*
X184867123Y-126909598D01*
X185046361Y-127035102D01*
X185244670Y-127127575D01*
X185456023Y-127184207D01*
X185638926Y-127200208D01*
X185673998Y-127203277D01*
X185674000Y-127203277D01*
X185674002Y-127203277D01*
X185702254Y-127200805D01*
X185891977Y-127184207D01*
X186103330Y-127127575D01*
X186301639Y-127035102D01*
X186480877Y-126909598D01*
X186635598Y-126754877D01*
X186761102Y-126575639D01*
X186853575Y-126377330D01*
X186910207Y-126165977D01*
X186926127Y-125984000D01*
X188586723Y-125984000D01*
X188602643Y-126165977D01*
X188605793Y-126201975D01*
X188605793Y-126201979D01*
X188662422Y-126413322D01*
X188662424Y-126413326D01*
X188662425Y-126413330D01*
X188708661Y-126512484D01*
X188754897Y-126611638D01*
X188754898Y-126611639D01*
X188880402Y-126790877D01*
X189035123Y-126945598D01*
X189214361Y-127071102D01*
X189412670Y-127163575D01*
X189624023Y-127220207D01*
X189806926Y-127236208D01*
X189841998Y-127239277D01*
X189842000Y-127239277D01*
X189842002Y-127239277D01*
X189870254Y-127236805D01*
X190059977Y-127220207D01*
X190271330Y-127163575D01*
X190469639Y-127071102D01*
X190648877Y-126945598D01*
X190803598Y-126790877D01*
X190929102Y-126611639D01*
X191021575Y-126413330D01*
X191078207Y-126201977D01*
X191097277Y-125984000D01*
X195086723Y-125984000D01*
X195102643Y-126165977D01*
X195105793Y-126201975D01*
X195105793Y-126201979D01*
X195162422Y-126413322D01*
X195162424Y-126413326D01*
X195162425Y-126413330D01*
X195208661Y-126512484D01*
X195254897Y-126611638D01*
X195254898Y-126611639D01*
X195380402Y-126790877D01*
X195535123Y-126945598D01*
X195714361Y-127071102D01*
X195912670Y-127163575D01*
X196124023Y-127220207D01*
X196306926Y-127236208D01*
X196341998Y-127239277D01*
X196342000Y-127239277D01*
X196342002Y-127239277D01*
X196370254Y-127236805D01*
X196559977Y-127220207D01*
X196771330Y-127163575D01*
X196969639Y-127071102D01*
X197148877Y-126945598D01*
X197303598Y-126790877D01*
X197429102Y-126611639D01*
X197521575Y-126413330D01*
X197578207Y-126201977D01*
X197597277Y-125984000D01*
X197594127Y-125948002D01*
X199306723Y-125948002D01*
X199325793Y-126165975D01*
X199325793Y-126165979D01*
X199382422Y-126377322D01*
X199382424Y-126377326D01*
X199382425Y-126377330D01*
X199399212Y-126413330D01*
X199474897Y-126575638D01*
X199474898Y-126575639D01*
X199600402Y-126754877D01*
X199755123Y-126909598D01*
X199934361Y-127035102D01*
X200132670Y-127127575D01*
X200344023Y-127184207D01*
X200526926Y-127200208D01*
X200561998Y-127203277D01*
X200562000Y-127203277D01*
X200562002Y-127203277D01*
X200590254Y-127200805D01*
X200779977Y-127184207D01*
X200991330Y-127127575D01*
X201189639Y-127035102D01*
X201368877Y-126909598D01*
X201523598Y-126754877D01*
X201649102Y-126575639D01*
X201741575Y-126377330D01*
X201798207Y-126165977D01*
X201817277Y-125948002D01*
X205806723Y-125948002D01*
X205825793Y-126165975D01*
X205825793Y-126165979D01*
X205882422Y-126377322D01*
X205882424Y-126377326D01*
X205882425Y-126377330D01*
X205899212Y-126413330D01*
X205974897Y-126575638D01*
X205974898Y-126575639D01*
X206100402Y-126754877D01*
X206255123Y-126909598D01*
X206434361Y-127035102D01*
X206632670Y-127127575D01*
X206844023Y-127184207D01*
X207026926Y-127200208D01*
X207061998Y-127203277D01*
X207062000Y-127203277D01*
X207062002Y-127203277D01*
X207090254Y-127200805D01*
X207279977Y-127184207D01*
X207491330Y-127127575D01*
X207689639Y-127035102D01*
X207868877Y-126909598D01*
X208023598Y-126754877D01*
X208149102Y-126575639D01*
X208241575Y-126377330D01*
X208298207Y-126165977D01*
X208317277Y-125948002D01*
X210124723Y-125948002D01*
X210143793Y-126165975D01*
X210143793Y-126165979D01*
X210200422Y-126377322D01*
X210200424Y-126377326D01*
X210200425Y-126377330D01*
X210217212Y-126413330D01*
X210292897Y-126575638D01*
X210292898Y-126575639D01*
X210418402Y-126754877D01*
X210573123Y-126909598D01*
X210752361Y-127035102D01*
X210950670Y-127127575D01*
X211162023Y-127184207D01*
X211344926Y-127200208D01*
X211379998Y-127203277D01*
X211380000Y-127203277D01*
X211380002Y-127203277D01*
X211408254Y-127200805D01*
X211597977Y-127184207D01*
X211809330Y-127127575D01*
X212007639Y-127035102D01*
X212186877Y-126909598D01*
X212341598Y-126754877D01*
X212467102Y-126575639D01*
X212559575Y-126377330D01*
X212616207Y-126165977D01*
X212635277Y-125948002D01*
X216624723Y-125948002D01*
X216643793Y-126165975D01*
X216643793Y-126165979D01*
X216700422Y-126377322D01*
X216700424Y-126377326D01*
X216700425Y-126377330D01*
X216717212Y-126413330D01*
X216792897Y-126575638D01*
X216792898Y-126575639D01*
X216918402Y-126754877D01*
X217073123Y-126909598D01*
X217252361Y-127035102D01*
X217450670Y-127127575D01*
X217662023Y-127184207D01*
X217844926Y-127200208D01*
X217879998Y-127203277D01*
X217880000Y-127203277D01*
X217880002Y-127203277D01*
X217908254Y-127200805D01*
X218097977Y-127184207D01*
X218309330Y-127127575D01*
X218507639Y-127035102D01*
X218686877Y-126909598D01*
X218841598Y-126754877D01*
X218967102Y-126575639D01*
X219059575Y-126377330D01*
X219116207Y-126165977D01*
X219135277Y-125948000D01*
X219116207Y-125730023D01*
X219059575Y-125518670D01*
X218967102Y-125320362D01*
X218967100Y-125320359D01*
X218967099Y-125320357D01*
X218841599Y-125141124D01*
X218841596Y-125141121D01*
X218686877Y-124986402D01*
X218507639Y-124860898D01*
X218507640Y-124860898D01*
X218507638Y-124860897D01*
X218386526Y-124804422D01*
X218309330Y-124768425D01*
X218309326Y-124768424D01*
X218309322Y-124768422D01*
X218097977Y-124711793D01*
X217880002Y-124692723D01*
X217879998Y-124692723D01*
X217734681Y-124705436D01*
X217662023Y-124711793D01*
X217662020Y-124711793D01*
X217450677Y-124768422D01*
X217450668Y-124768426D01*
X217252361Y-124860898D01*
X217252357Y-124860900D01*
X217073121Y-124986402D01*
X216918402Y-125141121D01*
X216792900Y-125320357D01*
X216792898Y-125320361D01*
X216700426Y-125518668D01*
X216700422Y-125518677D01*
X216643793Y-125730020D01*
X216643793Y-125730023D01*
X216640643Y-125766024D01*
X216624723Y-125947997D01*
X216624723Y-125948002D01*
X212635277Y-125948002D01*
X212635277Y-125948000D01*
X212616207Y-125730023D01*
X212559575Y-125518670D01*
X212467102Y-125320362D01*
X212467100Y-125320359D01*
X212467099Y-125320357D01*
X212341599Y-125141124D01*
X212341596Y-125141121D01*
X212186877Y-124986402D01*
X212007639Y-124860898D01*
X212007640Y-124860898D01*
X212007638Y-124860897D01*
X211886526Y-124804422D01*
X211809330Y-124768425D01*
X211809326Y-124768424D01*
X211809322Y-124768422D01*
X211597977Y-124711793D01*
X211380002Y-124692723D01*
X211379998Y-124692723D01*
X211234681Y-124705436D01*
X211162023Y-124711793D01*
X211162020Y-124711793D01*
X210950677Y-124768422D01*
X210950668Y-124768426D01*
X210752361Y-124860898D01*
X210752357Y-124860900D01*
X210573121Y-124986402D01*
X210418402Y-125141121D01*
X210292900Y-125320357D01*
X210292898Y-125320361D01*
X210200426Y-125518668D01*
X210200422Y-125518677D01*
X210143793Y-125730020D01*
X210143793Y-125730023D01*
X210140643Y-125766024D01*
X210124723Y-125947997D01*
X210124723Y-125948002D01*
X208317277Y-125948002D01*
X208317277Y-125948000D01*
X208298207Y-125730023D01*
X208241575Y-125518670D01*
X208149102Y-125320362D01*
X208149100Y-125320359D01*
X208149099Y-125320357D01*
X208023599Y-125141124D01*
X208023596Y-125141121D01*
X207868877Y-124986402D01*
X207689639Y-124860898D01*
X207689640Y-124860898D01*
X207689638Y-124860897D01*
X207568526Y-124804422D01*
X207491330Y-124768425D01*
X207491326Y-124768424D01*
X207491322Y-124768422D01*
X207279977Y-124711793D01*
X207062002Y-124692723D01*
X207061998Y-124692723D01*
X206916681Y-124705436D01*
X206844023Y-124711793D01*
X206844020Y-124711793D01*
X206632677Y-124768422D01*
X206632668Y-124768426D01*
X206434361Y-124860898D01*
X206434357Y-124860900D01*
X206255121Y-124986402D01*
X206100402Y-125141121D01*
X205974900Y-125320357D01*
X205974898Y-125320361D01*
X205882426Y-125518668D01*
X205882422Y-125518677D01*
X205825793Y-125730020D01*
X205825793Y-125730023D01*
X205822643Y-125766024D01*
X205806723Y-125947997D01*
X205806723Y-125948002D01*
X201817277Y-125948002D01*
X201817277Y-125948000D01*
X201798207Y-125730023D01*
X201741575Y-125518670D01*
X201649102Y-125320362D01*
X201649100Y-125320359D01*
X201649099Y-125320357D01*
X201523599Y-125141124D01*
X201523596Y-125141121D01*
X201368877Y-124986402D01*
X201189639Y-124860898D01*
X201189640Y-124860898D01*
X201189638Y-124860897D01*
X201068526Y-124804422D01*
X200991330Y-124768425D01*
X200991326Y-124768424D01*
X200991322Y-124768422D01*
X200779977Y-124711793D01*
X200562002Y-124692723D01*
X200561998Y-124692723D01*
X200416681Y-124705436D01*
X200344023Y-124711793D01*
X200344020Y-124711793D01*
X200132677Y-124768422D01*
X200132668Y-124768426D01*
X199934361Y-124860898D01*
X199934357Y-124860900D01*
X199755121Y-124986402D01*
X199600402Y-125141121D01*
X199474900Y-125320357D01*
X199474898Y-125320361D01*
X199382426Y-125518668D01*
X199382422Y-125518677D01*
X199325793Y-125730020D01*
X199325793Y-125730023D01*
X199322643Y-125766024D01*
X199306723Y-125947997D01*
X199306723Y-125948002D01*
X197594127Y-125948002D01*
X197594127Y-125948000D01*
X197593569Y-125941618D01*
X197578207Y-125766023D01*
X197521575Y-125554670D01*
X197429102Y-125356362D01*
X197429100Y-125356359D01*
X197429099Y-125356357D01*
X197303599Y-125177124D01*
X197267596Y-125141121D01*
X197148877Y-125022402D01*
X196969639Y-124896898D01*
X196969640Y-124896898D01*
X196969638Y-124896897D01*
X196870484Y-124850661D01*
X196771330Y-124804425D01*
X196771326Y-124804424D01*
X196771322Y-124804422D01*
X196559977Y-124747793D01*
X196342002Y-124728723D01*
X196341998Y-124728723D01*
X196196681Y-124741436D01*
X196124023Y-124747793D01*
X196124020Y-124747793D01*
X195912677Y-124804422D01*
X195912668Y-124804426D01*
X195714361Y-124896898D01*
X195714357Y-124896900D01*
X195535121Y-125022402D01*
X195380402Y-125177121D01*
X195254900Y-125356357D01*
X195254898Y-125356361D01*
X195162426Y-125554668D01*
X195162422Y-125554677D01*
X195105793Y-125766020D01*
X195105793Y-125766024D01*
X195089873Y-125948000D01*
X195086723Y-125984000D01*
X191097277Y-125984000D01*
X191094127Y-125948000D01*
X191093569Y-125941618D01*
X191078207Y-125766023D01*
X191021575Y-125554670D01*
X190929102Y-125356362D01*
X190929100Y-125356359D01*
X190929099Y-125356357D01*
X190803599Y-125177124D01*
X190767596Y-125141121D01*
X190648877Y-125022402D01*
X190469639Y-124896898D01*
X190469640Y-124896898D01*
X190469638Y-124896897D01*
X190370484Y-124850661D01*
X190271330Y-124804425D01*
X190271326Y-124804424D01*
X190271322Y-124804422D01*
X190059977Y-124747793D01*
X189842002Y-124728723D01*
X189841998Y-124728723D01*
X189696682Y-124741436D01*
X189624023Y-124747793D01*
X189624020Y-124747793D01*
X189412677Y-124804422D01*
X189412668Y-124804426D01*
X189214361Y-124896898D01*
X189214357Y-124896900D01*
X189035121Y-125022402D01*
X188880402Y-125177121D01*
X188754900Y-125356357D01*
X188754898Y-125356361D01*
X188662426Y-125554668D01*
X188662422Y-125554677D01*
X188605793Y-125766020D01*
X188605793Y-125766024D01*
X188589873Y-125948000D01*
X188586723Y-125984000D01*
X186926127Y-125984000D01*
X186929277Y-125948000D01*
X186910207Y-125730023D01*
X186853575Y-125518670D01*
X186761102Y-125320362D01*
X186761100Y-125320359D01*
X186761099Y-125320357D01*
X186635599Y-125141124D01*
X186635596Y-125141121D01*
X186480877Y-124986402D01*
X186301639Y-124860898D01*
X186301640Y-124860898D01*
X186301638Y-124860897D01*
X186180526Y-124804422D01*
X186103330Y-124768425D01*
X186103326Y-124768424D01*
X186103322Y-124768422D01*
X185891977Y-124711793D01*
X185674002Y-124692723D01*
X185673998Y-124692723D01*
X185528682Y-124705436D01*
X185456023Y-124711793D01*
X185456020Y-124711793D01*
X185244677Y-124768422D01*
X185244668Y-124768426D01*
X185046361Y-124860898D01*
X185046357Y-124860900D01*
X184867121Y-124986402D01*
X184712402Y-125141121D01*
X184586900Y-125320357D01*
X184586898Y-125320361D01*
X184494426Y-125518668D01*
X184494422Y-125518677D01*
X184437793Y-125730020D01*
X184437793Y-125730023D01*
X184434643Y-125766024D01*
X184418723Y-125947997D01*
X184418723Y-125948002D01*
X180429277Y-125948002D01*
X180429277Y-125948000D01*
X180410207Y-125730023D01*
X180353575Y-125518670D01*
X180261102Y-125320362D01*
X180261100Y-125320359D01*
X180261099Y-125320357D01*
X180135599Y-125141124D01*
X180135596Y-125141121D01*
X179980877Y-124986402D01*
X179801639Y-124860898D01*
X179801640Y-124860898D01*
X179801638Y-124860897D01*
X179680526Y-124804422D01*
X179603330Y-124768425D01*
X179603326Y-124768424D01*
X179603322Y-124768422D01*
X179391977Y-124711793D01*
X179174002Y-124692723D01*
X179173998Y-124692723D01*
X179028682Y-124705436D01*
X178956023Y-124711793D01*
X178956020Y-124711793D01*
X178744677Y-124768422D01*
X178744668Y-124768426D01*
X178546361Y-124860898D01*
X178546357Y-124860900D01*
X178367121Y-124986402D01*
X178212402Y-125141121D01*
X178086900Y-125320357D01*
X178086898Y-125320361D01*
X177994426Y-125518668D01*
X177994422Y-125518677D01*
X177937793Y-125730020D01*
X177937793Y-125730023D01*
X177934643Y-125766024D01*
X177918723Y-125947997D01*
X177918723Y-125948002D01*
X169672000Y-125948002D01*
X169672000Y-121448002D01*
X177918723Y-121448002D01*
X177937793Y-121665975D01*
X177937793Y-121665979D01*
X177994422Y-121877322D01*
X177994424Y-121877326D01*
X177994425Y-121877330D01*
X178011212Y-121913330D01*
X178086897Y-122075638D01*
X178086898Y-122075639D01*
X178212402Y-122254877D01*
X178367123Y-122409598D01*
X178546361Y-122535102D01*
X178744670Y-122627575D01*
X178956023Y-122684207D01*
X179138926Y-122700208D01*
X179173998Y-122703277D01*
X179174000Y-122703277D01*
X179174002Y-122703277D01*
X179202254Y-122700805D01*
X179391977Y-122684207D01*
X179603330Y-122627575D01*
X179801639Y-122535102D01*
X179980877Y-122409598D01*
X180135598Y-122254877D01*
X180261102Y-122075639D01*
X180353575Y-121877330D01*
X180410207Y-121665977D01*
X180429277Y-121448002D01*
X184418723Y-121448002D01*
X184437793Y-121665975D01*
X184437793Y-121665979D01*
X184494422Y-121877322D01*
X184494424Y-121877326D01*
X184494425Y-121877330D01*
X184511212Y-121913330D01*
X184586897Y-122075638D01*
X184586898Y-122075639D01*
X184712402Y-122254877D01*
X184867123Y-122409598D01*
X185046361Y-122535102D01*
X185244670Y-122627575D01*
X185456023Y-122684207D01*
X185638926Y-122700208D01*
X185673998Y-122703277D01*
X185674000Y-122703277D01*
X185674002Y-122703277D01*
X185702254Y-122700805D01*
X185891977Y-122684207D01*
X186103330Y-122627575D01*
X186301639Y-122535102D01*
X186480877Y-122409598D01*
X186635598Y-122254877D01*
X186761102Y-122075639D01*
X186853575Y-121877330D01*
X186910207Y-121665977D01*
X186926127Y-121484000D01*
X188586723Y-121484000D01*
X188602643Y-121665977D01*
X188605793Y-121701975D01*
X188605793Y-121701979D01*
X188662422Y-121913322D01*
X188662424Y-121913326D01*
X188662425Y-121913330D01*
X188708661Y-122012484D01*
X188754897Y-122111638D01*
X188754898Y-122111639D01*
X188880402Y-122290877D01*
X189035123Y-122445598D01*
X189214361Y-122571102D01*
X189412670Y-122663575D01*
X189624023Y-122720207D01*
X189806926Y-122736208D01*
X189841998Y-122739277D01*
X189842000Y-122739277D01*
X189842002Y-122739277D01*
X189870254Y-122736805D01*
X190059977Y-122720207D01*
X190271330Y-122663575D01*
X190469639Y-122571102D01*
X190648877Y-122445598D01*
X190803598Y-122290877D01*
X190929102Y-122111639D01*
X191021575Y-121913330D01*
X191078207Y-121701977D01*
X191097277Y-121484000D01*
X195086723Y-121484000D01*
X195102643Y-121665977D01*
X195105793Y-121701975D01*
X195105793Y-121701979D01*
X195162422Y-121913322D01*
X195162424Y-121913326D01*
X195162425Y-121913330D01*
X195208661Y-122012484D01*
X195254897Y-122111638D01*
X195254898Y-122111639D01*
X195380402Y-122290877D01*
X195535123Y-122445598D01*
X195714361Y-122571102D01*
X195912670Y-122663575D01*
X196124023Y-122720207D01*
X196306926Y-122736208D01*
X196341998Y-122739277D01*
X196342000Y-122739277D01*
X196342002Y-122739277D01*
X196370254Y-122736805D01*
X196559977Y-122720207D01*
X196771330Y-122663575D01*
X196969639Y-122571102D01*
X197148877Y-122445598D01*
X197303598Y-122290877D01*
X197429102Y-122111639D01*
X197521575Y-121913330D01*
X197578207Y-121701977D01*
X197597277Y-121484000D01*
X197594127Y-121448002D01*
X199306723Y-121448002D01*
X199325793Y-121665975D01*
X199325793Y-121665979D01*
X199382422Y-121877322D01*
X199382424Y-121877326D01*
X199382425Y-121877330D01*
X199399212Y-121913330D01*
X199474897Y-122075638D01*
X199474898Y-122075639D01*
X199600402Y-122254877D01*
X199755123Y-122409598D01*
X199934361Y-122535102D01*
X200132670Y-122627575D01*
X200344023Y-122684207D01*
X200526926Y-122700208D01*
X200561998Y-122703277D01*
X200562000Y-122703277D01*
X200562002Y-122703277D01*
X200590254Y-122700805D01*
X200779977Y-122684207D01*
X200991330Y-122627575D01*
X201189639Y-122535102D01*
X201368877Y-122409598D01*
X201523598Y-122254877D01*
X201649102Y-122075639D01*
X201741575Y-121877330D01*
X201798207Y-121665977D01*
X201817277Y-121448002D01*
X205806723Y-121448002D01*
X205825793Y-121665975D01*
X205825793Y-121665979D01*
X205882422Y-121877322D01*
X205882424Y-121877326D01*
X205882425Y-121877330D01*
X205899212Y-121913330D01*
X205974897Y-122075638D01*
X205974898Y-122075639D01*
X206100402Y-122254877D01*
X206255123Y-122409598D01*
X206434361Y-122535102D01*
X206632670Y-122627575D01*
X206844023Y-122684207D01*
X207026926Y-122700208D01*
X207061998Y-122703277D01*
X207062000Y-122703277D01*
X207062002Y-122703277D01*
X207090254Y-122700805D01*
X207279977Y-122684207D01*
X207491330Y-122627575D01*
X207689639Y-122535102D01*
X207868877Y-122409598D01*
X208023598Y-122254877D01*
X208149102Y-122075639D01*
X208241575Y-121877330D01*
X208298207Y-121665977D01*
X208317277Y-121448002D01*
X210124723Y-121448002D01*
X210143793Y-121665975D01*
X210143793Y-121665979D01*
X210200422Y-121877322D01*
X210200424Y-121877326D01*
X210200425Y-121877330D01*
X210217212Y-121913330D01*
X210292897Y-122075638D01*
X210292898Y-122075639D01*
X210418402Y-122254877D01*
X210573123Y-122409598D01*
X210752361Y-122535102D01*
X210950670Y-122627575D01*
X211162023Y-122684207D01*
X211344926Y-122700208D01*
X211379998Y-122703277D01*
X211380000Y-122703277D01*
X211380002Y-122703277D01*
X211408254Y-122700805D01*
X211597977Y-122684207D01*
X211809330Y-122627575D01*
X212007639Y-122535102D01*
X212186877Y-122409598D01*
X212341598Y-122254877D01*
X212467102Y-122075639D01*
X212559575Y-121877330D01*
X212616207Y-121665977D01*
X212635277Y-121448002D01*
X216624723Y-121448002D01*
X216643793Y-121665975D01*
X216643793Y-121665979D01*
X216700422Y-121877322D01*
X216700424Y-121877326D01*
X216700425Y-121877330D01*
X216717212Y-121913330D01*
X216792897Y-122075638D01*
X216792898Y-122075639D01*
X216918402Y-122254877D01*
X217073123Y-122409598D01*
X217252361Y-122535102D01*
X217450670Y-122627575D01*
X217662023Y-122684207D01*
X217844926Y-122700208D01*
X217879998Y-122703277D01*
X217880000Y-122703277D01*
X217880002Y-122703277D01*
X217908254Y-122700805D01*
X218097977Y-122684207D01*
X218309330Y-122627575D01*
X218507639Y-122535102D01*
X218686877Y-122409598D01*
X218841598Y-122254877D01*
X218967102Y-122075639D01*
X219059575Y-121877330D01*
X219116207Y-121665977D01*
X219135277Y-121448000D01*
X219116207Y-121230023D01*
X219059575Y-121018670D01*
X218967102Y-120820362D01*
X218967100Y-120820359D01*
X218967099Y-120820357D01*
X218841599Y-120641124D01*
X218841596Y-120641121D01*
X218686877Y-120486402D01*
X218507639Y-120360898D01*
X218507640Y-120360898D01*
X218507638Y-120360897D01*
X218386526Y-120304422D01*
X218309330Y-120268425D01*
X218309326Y-120268424D01*
X218309322Y-120268422D01*
X218097977Y-120211793D01*
X217880002Y-120192723D01*
X217879998Y-120192723D01*
X217734681Y-120205436D01*
X217662023Y-120211793D01*
X217662020Y-120211793D01*
X217450677Y-120268422D01*
X217450668Y-120268426D01*
X217252361Y-120360898D01*
X217252357Y-120360900D01*
X217073121Y-120486402D01*
X216918402Y-120641121D01*
X216792900Y-120820357D01*
X216792898Y-120820361D01*
X216700426Y-121018668D01*
X216700422Y-121018677D01*
X216643793Y-121230020D01*
X216643793Y-121230023D01*
X216640643Y-121266024D01*
X216624723Y-121447997D01*
X216624723Y-121448002D01*
X212635277Y-121448002D01*
X212635277Y-121448000D01*
X212616207Y-121230023D01*
X212559575Y-121018670D01*
X212467102Y-120820362D01*
X212467100Y-120820359D01*
X212467099Y-120820357D01*
X212341599Y-120641124D01*
X212341596Y-120641121D01*
X212186877Y-120486402D01*
X212007639Y-120360898D01*
X212007640Y-120360898D01*
X212007638Y-120360897D01*
X211886526Y-120304422D01*
X211809330Y-120268425D01*
X211809326Y-120268424D01*
X211809322Y-120268422D01*
X211597977Y-120211793D01*
X211380002Y-120192723D01*
X211379998Y-120192723D01*
X211234682Y-120205436D01*
X211162023Y-120211793D01*
X211162020Y-120211793D01*
X210950677Y-120268422D01*
X210950668Y-120268426D01*
X210752361Y-120360898D01*
X210752357Y-120360900D01*
X210573121Y-120486402D01*
X210418402Y-120641121D01*
X210292900Y-120820357D01*
X210292898Y-120820361D01*
X210200426Y-121018668D01*
X210200422Y-121018677D01*
X210143793Y-121230020D01*
X210143793Y-121230023D01*
X210140643Y-121266024D01*
X210124723Y-121447997D01*
X210124723Y-121448002D01*
X208317277Y-121448002D01*
X208317277Y-121448000D01*
X208298207Y-121230023D01*
X208241575Y-121018670D01*
X208149102Y-120820362D01*
X208149100Y-120820359D01*
X208149099Y-120820357D01*
X208023599Y-120641124D01*
X208023596Y-120641121D01*
X207868877Y-120486402D01*
X207689639Y-120360898D01*
X207689640Y-120360898D01*
X207689638Y-120360897D01*
X207568526Y-120304422D01*
X207491330Y-120268425D01*
X207491326Y-120268424D01*
X207491322Y-120268422D01*
X207279977Y-120211793D01*
X207062002Y-120192723D01*
X207061998Y-120192723D01*
X206916682Y-120205436D01*
X206844023Y-120211793D01*
X206844020Y-120211793D01*
X206632677Y-120268422D01*
X206632668Y-120268426D01*
X206434361Y-120360898D01*
X206434357Y-120360900D01*
X206255121Y-120486402D01*
X206100402Y-120641121D01*
X205974900Y-120820357D01*
X205974898Y-120820361D01*
X205882426Y-121018668D01*
X205882422Y-121018677D01*
X205825793Y-121230020D01*
X205825793Y-121230023D01*
X205822643Y-121266024D01*
X205806723Y-121447997D01*
X205806723Y-121448002D01*
X201817277Y-121448002D01*
X201817277Y-121448000D01*
X201798207Y-121230023D01*
X201741575Y-121018670D01*
X201649102Y-120820362D01*
X201649100Y-120820359D01*
X201649099Y-120820357D01*
X201523599Y-120641124D01*
X201523596Y-120641121D01*
X201368877Y-120486402D01*
X201189639Y-120360898D01*
X201189640Y-120360898D01*
X201189638Y-120360897D01*
X201068526Y-120304422D01*
X200991330Y-120268425D01*
X200991326Y-120268424D01*
X200991322Y-120268422D01*
X200779977Y-120211793D01*
X200562002Y-120192723D01*
X200561998Y-120192723D01*
X200416682Y-120205436D01*
X200344023Y-120211793D01*
X200344020Y-120211793D01*
X200132677Y-120268422D01*
X200132668Y-120268426D01*
X199934361Y-120360898D01*
X199934357Y-120360900D01*
X199755121Y-120486402D01*
X199600402Y-120641121D01*
X199474900Y-120820357D01*
X199474898Y-120820361D01*
X199382426Y-121018668D01*
X199382422Y-121018677D01*
X199325793Y-121230020D01*
X199325793Y-121230023D01*
X199322643Y-121266024D01*
X199306723Y-121447997D01*
X199306723Y-121448002D01*
X197594127Y-121448002D01*
X197594127Y-121448000D01*
X197593569Y-121441618D01*
X197578207Y-121266023D01*
X197521575Y-121054670D01*
X197429102Y-120856362D01*
X197429100Y-120856359D01*
X197429099Y-120856357D01*
X197303599Y-120677124D01*
X197267596Y-120641121D01*
X197148877Y-120522402D01*
X196969639Y-120396898D01*
X196969640Y-120396898D01*
X196969638Y-120396897D01*
X196870484Y-120350661D01*
X196771330Y-120304425D01*
X196771326Y-120304424D01*
X196771322Y-120304422D01*
X196559977Y-120247793D01*
X196342002Y-120228723D01*
X196341998Y-120228723D01*
X196196682Y-120241436D01*
X196124023Y-120247793D01*
X196124020Y-120247793D01*
X195912677Y-120304422D01*
X195912668Y-120304426D01*
X195714361Y-120396898D01*
X195714357Y-120396900D01*
X195535121Y-120522402D01*
X195380402Y-120677121D01*
X195254900Y-120856357D01*
X195254898Y-120856361D01*
X195162426Y-121054668D01*
X195162422Y-121054677D01*
X195105793Y-121266020D01*
X195105793Y-121266024D01*
X195089873Y-121448000D01*
X195086723Y-121484000D01*
X191097277Y-121484000D01*
X191094127Y-121448000D01*
X191093569Y-121441618D01*
X191078207Y-121266023D01*
X191021575Y-121054670D01*
X190929102Y-120856362D01*
X190929100Y-120856359D01*
X190929099Y-120856357D01*
X190803599Y-120677124D01*
X190767596Y-120641121D01*
X190648877Y-120522402D01*
X190469639Y-120396898D01*
X190469640Y-120396898D01*
X190469638Y-120396897D01*
X190370484Y-120350661D01*
X190271330Y-120304425D01*
X190271326Y-120304424D01*
X190271322Y-120304422D01*
X190059977Y-120247793D01*
X189842002Y-120228723D01*
X189841998Y-120228723D01*
X189696682Y-120241436D01*
X189624023Y-120247793D01*
X189624020Y-120247793D01*
X189412677Y-120304422D01*
X189412668Y-120304426D01*
X189214361Y-120396898D01*
X189214357Y-120396900D01*
X189035121Y-120522402D01*
X188880402Y-120677121D01*
X188754900Y-120856357D01*
X188754898Y-120856361D01*
X188662426Y-121054668D01*
X188662422Y-121054677D01*
X188605793Y-121266020D01*
X188605793Y-121266024D01*
X188589873Y-121448000D01*
X188586723Y-121484000D01*
X186926127Y-121484000D01*
X186929277Y-121448000D01*
X186910207Y-121230023D01*
X186853575Y-121018670D01*
X186761102Y-120820362D01*
X186761100Y-120820359D01*
X186761099Y-120820357D01*
X186635599Y-120641124D01*
X186635596Y-120641121D01*
X186480877Y-120486402D01*
X186301639Y-120360898D01*
X186301640Y-120360898D01*
X186301638Y-120360897D01*
X186180526Y-120304422D01*
X186103330Y-120268425D01*
X186103326Y-120268424D01*
X186103322Y-120268422D01*
X185891977Y-120211793D01*
X185674002Y-120192723D01*
X185673998Y-120192723D01*
X185528682Y-120205436D01*
X185456023Y-120211793D01*
X185456020Y-120211793D01*
X185244677Y-120268422D01*
X185244668Y-120268426D01*
X185046361Y-120360898D01*
X185046357Y-120360900D01*
X184867121Y-120486402D01*
X184712402Y-120641121D01*
X184586900Y-120820357D01*
X184586898Y-120820361D01*
X184494426Y-121018668D01*
X184494422Y-121018677D01*
X184437793Y-121230020D01*
X184437793Y-121230023D01*
X184434643Y-121266024D01*
X184418723Y-121447997D01*
X184418723Y-121448002D01*
X180429277Y-121448002D01*
X180429277Y-121448000D01*
X180410207Y-121230023D01*
X180353575Y-121018670D01*
X180261102Y-120820362D01*
X180261100Y-120820359D01*
X180261099Y-120820357D01*
X180135599Y-120641124D01*
X180135596Y-120641121D01*
X179980877Y-120486402D01*
X179801639Y-120360898D01*
X179801640Y-120360898D01*
X179801638Y-120360897D01*
X179680526Y-120304422D01*
X179603330Y-120268425D01*
X179603326Y-120268424D01*
X179603322Y-120268422D01*
X179391977Y-120211793D01*
X179174002Y-120192723D01*
X179173998Y-120192723D01*
X179028682Y-120205436D01*
X178956023Y-120211793D01*
X178956020Y-120211793D01*
X178744677Y-120268422D01*
X178744668Y-120268426D01*
X178546361Y-120360898D01*
X178546357Y-120360900D01*
X178367121Y-120486402D01*
X178212402Y-120641121D01*
X178086900Y-120820357D01*
X178086898Y-120820361D01*
X177994426Y-121018668D01*
X177994422Y-121018677D01*
X177937793Y-121230020D01*
X177937793Y-121230023D01*
X177934643Y-121266024D01*
X177918723Y-121447997D01*
X177918723Y-121448002D01*
X169672000Y-121448002D01*
X169672000Y-113034999D01*
X188438417Y-113034999D01*
X188458699Y-113240932D01*
X188458700Y-113240934D01*
X188518768Y-113438954D01*
X188616315Y-113621450D01*
X188616317Y-113621452D01*
X188747589Y-113781410D01*
X188844209Y-113860702D01*
X188907550Y-113912685D01*
X189090046Y-114010232D01*
X189288066Y-114070300D01*
X189288065Y-114070300D01*
X189308347Y-114072297D01*
X189494000Y-114090583D01*
X189699934Y-114070300D01*
X189897954Y-114010232D01*
X190080450Y-113912685D01*
X190240410Y-113781410D01*
X190371685Y-113621450D01*
X190469232Y-113438954D01*
X190529300Y-113240934D01*
X190549583Y-113035000D01*
X190549583Y-113034999D01*
X196058417Y-113034999D01*
X196078699Y-113240932D01*
X196078700Y-113240934D01*
X196138768Y-113438954D01*
X196236315Y-113621450D01*
X196236317Y-113621452D01*
X196367589Y-113781410D01*
X196464209Y-113860702D01*
X196527550Y-113912685D01*
X196710046Y-114010232D01*
X196908066Y-114070300D01*
X196908065Y-114070300D01*
X196926529Y-114072118D01*
X197114000Y-114090583D01*
X197319934Y-114070300D01*
X197517954Y-114010232D01*
X197700450Y-113912685D01*
X197860410Y-113781410D01*
X197991685Y-113621450D01*
X198089232Y-113438954D01*
X198149300Y-113240934D01*
X198169583Y-113035000D01*
X198149300Y-112829066D01*
X198089232Y-112631046D01*
X197991685Y-112448550D01*
X197939702Y-112385209D01*
X197860410Y-112288589D01*
X197700452Y-112157317D01*
X197700453Y-112157317D01*
X197700450Y-112157315D01*
X197517954Y-112059768D01*
X197319934Y-111999700D01*
X197319932Y-111999699D01*
X197319934Y-111999699D01*
X197132463Y-111981235D01*
X197114000Y-111979417D01*
X197113999Y-111979417D01*
X196908067Y-111999699D01*
X196710043Y-112059769D01*
X196599898Y-112118643D01*
X196527550Y-112157315D01*
X196527548Y-112157316D01*
X196527547Y-112157317D01*
X196367589Y-112288589D01*
X196236317Y-112448547D01*
X196138769Y-112631043D01*
X196078699Y-112829067D01*
X196058417Y-113034999D01*
X190549583Y-113034999D01*
X190529300Y-112829066D01*
X190469232Y-112631046D01*
X190371685Y-112448550D01*
X190319702Y-112385209D01*
X190240410Y-112288589D01*
X190080452Y-112157317D01*
X190080453Y-112157317D01*
X190080450Y-112157315D01*
X189897954Y-112059768D01*
X189699934Y-111999700D01*
X189699932Y-111999699D01*
X189699934Y-111999699D01*
X189512463Y-111981235D01*
X189494000Y-111979417D01*
X189493999Y-111979417D01*
X189288067Y-111999699D01*
X189090043Y-112059769D01*
X188979898Y-112118643D01*
X188907550Y-112157315D01*
X188907548Y-112157316D01*
X188907547Y-112157317D01*
X188747589Y-112288589D01*
X188616317Y-112448547D01*
X188518769Y-112631043D01*
X188458699Y-112829067D01*
X188438417Y-113034999D01*
X169672000Y-113034999D01*
X169672000Y-110495000D01*
X188438417Y-110495000D01*
X188458699Y-110700932D01*
X188458700Y-110700934D01*
X188518768Y-110898954D01*
X188616315Y-111081450D01*
X188616317Y-111081452D01*
X188747589Y-111241410D01*
X188844209Y-111320702D01*
X188907550Y-111372685D01*
X189090046Y-111470232D01*
X189288066Y-111530300D01*
X189288065Y-111530300D01*
X189306529Y-111532118D01*
X189494000Y-111550583D01*
X189699934Y-111530300D01*
X189897954Y-111470232D01*
X190080450Y-111372685D01*
X190240410Y-111241410D01*
X190371685Y-111081450D01*
X190469232Y-110898954D01*
X190529300Y-110700934D01*
X190549583Y-110495000D01*
X196058417Y-110495000D01*
X196078699Y-110700932D01*
X196078700Y-110700934D01*
X196138768Y-110898954D01*
X196236315Y-111081450D01*
X196236317Y-111081452D01*
X196367589Y-111241410D01*
X196464209Y-111320702D01*
X196527550Y-111372685D01*
X196710046Y-111470232D01*
X196908066Y-111530300D01*
X196908065Y-111530300D01*
X196926529Y-111532118D01*
X197114000Y-111550583D01*
X197319934Y-111530300D01*
X197517954Y-111470232D01*
X197700450Y-111372685D01*
X197860410Y-111241410D01*
X197991685Y-111081450D01*
X198089232Y-110898954D01*
X198149300Y-110700934D01*
X198169583Y-110495000D01*
X198149300Y-110289066D01*
X198089232Y-110091046D01*
X197991685Y-109908550D01*
X197939702Y-109845209D01*
X197860410Y-109748589D01*
X197700452Y-109617317D01*
X197700453Y-109617317D01*
X197700450Y-109617315D01*
X197517954Y-109519768D01*
X197319934Y-109459700D01*
X197319932Y-109459699D01*
X197319934Y-109459699D01*
X197114000Y-109439417D01*
X196908067Y-109459699D01*
X196710043Y-109519769D01*
X196620621Y-109567567D01*
X196527550Y-109617315D01*
X196527548Y-109617316D01*
X196527547Y-109617317D01*
X196367589Y-109748589D01*
X196236317Y-109908547D01*
X196236315Y-109908550D01*
X196197643Y-109980898D01*
X196138769Y-110091043D01*
X196078699Y-110289067D01*
X196058417Y-110495000D01*
X190549583Y-110495000D01*
X190529300Y-110289066D01*
X190469232Y-110091046D01*
X190371685Y-109908550D01*
X190319702Y-109845209D01*
X190240410Y-109748589D01*
X190080452Y-109617317D01*
X190080453Y-109617317D01*
X190080450Y-109617315D01*
X189897954Y-109519768D01*
X189699934Y-109459700D01*
X189699932Y-109459699D01*
X189699934Y-109459699D01*
X189512463Y-109441235D01*
X189494000Y-109439417D01*
X189493999Y-109439417D01*
X189288067Y-109459699D01*
X189090043Y-109519769D01*
X189000621Y-109567567D01*
X188907550Y-109617315D01*
X188907548Y-109617316D01*
X188907547Y-109617317D01*
X188747589Y-109748589D01*
X188616317Y-109908547D01*
X188616315Y-109908550D01*
X188577643Y-109980898D01*
X188518769Y-110091043D01*
X188458699Y-110289067D01*
X188438417Y-110495000D01*
X169672000Y-110495000D01*
X169672000Y-107954999D01*
X188438417Y-107954999D01*
X188458699Y-108160932D01*
X188458700Y-108160934D01*
X188518768Y-108358954D01*
X188616315Y-108541450D01*
X188616317Y-108541452D01*
X188747589Y-108701410D01*
X188844209Y-108780702D01*
X188907550Y-108832685D01*
X189090046Y-108930232D01*
X189288066Y-108990300D01*
X189288065Y-108990300D01*
X189306529Y-108992118D01*
X189494000Y-109010583D01*
X189699934Y-108990300D01*
X189897954Y-108930232D01*
X190080450Y-108832685D01*
X190240410Y-108701410D01*
X190371685Y-108541450D01*
X190469232Y-108358954D01*
X190529300Y-108160934D01*
X190549583Y-107955000D01*
X190549583Y-107954999D01*
X196058417Y-107954999D01*
X196078699Y-108160932D01*
X196078700Y-108160934D01*
X196138768Y-108358954D01*
X196236315Y-108541450D01*
X196236317Y-108541452D01*
X196367589Y-108701410D01*
X196464209Y-108780702D01*
X196527550Y-108832685D01*
X196710046Y-108930232D01*
X196908066Y-108990300D01*
X196908065Y-108990300D01*
X196926529Y-108992118D01*
X197114000Y-109010583D01*
X197319934Y-108990300D01*
X197517954Y-108930232D01*
X197700450Y-108832685D01*
X197860410Y-108701410D01*
X197991685Y-108541450D01*
X198089232Y-108358954D01*
X198149300Y-108160934D01*
X198169583Y-107955000D01*
X198149300Y-107749066D01*
X198089232Y-107551046D01*
X197991685Y-107368550D01*
X197939702Y-107305209D01*
X197860410Y-107208589D01*
X197700452Y-107077317D01*
X197700453Y-107077317D01*
X197700450Y-107077315D01*
X197517954Y-106979768D01*
X197319934Y-106919700D01*
X197319932Y-106919699D01*
X197319934Y-106919699D01*
X197114000Y-106899417D01*
X196908067Y-106919699D01*
X196710043Y-106979769D01*
X196599898Y-107038643D01*
X196527550Y-107077315D01*
X196527548Y-107077316D01*
X196527547Y-107077317D01*
X196367589Y-107208589D01*
X196236317Y-107368547D01*
X196138769Y-107551043D01*
X196078699Y-107749067D01*
X196058417Y-107954999D01*
X190549583Y-107954999D01*
X190529300Y-107749066D01*
X190469232Y-107551046D01*
X190371685Y-107368550D01*
X190319702Y-107305209D01*
X190240410Y-107208589D01*
X190080452Y-107077317D01*
X190080453Y-107077317D01*
X190080450Y-107077315D01*
X189897954Y-106979768D01*
X189699934Y-106919700D01*
X189699932Y-106919699D01*
X189699934Y-106919699D01*
X189494000Y-106899417D01*
X189288067Y-106919699D01*
X189090043Y-106979769D01*
X188979898Y-107038643D01*
X188907550Y-107077315D01*
X188907548Y-107077316D01*
X188907547Y-107077317D01*
X188747589Y-107208589D01*
X188616317Y-107368547D01*
X188518769Y-107551043D01*
X188458699Y-107749067D01*
X188438417Y-107954999D01*
X169672000Y-107954999D01*
X169672000Y-105414999D01*
X188438417Y-105414999D01*
X188458699Y-105620932D01*
X188458700Y-105620934D01*
X188518768Y-105818954D01*
X188616315Y-106001450D01*
X188616317Y-106001452D01*
X188747589Y-106161410D01*
X188844209Y-106240702D01*
X188907550Y-106292685D01*
X189090046Y-106390232D01*
X189288066Y-106450300D01*
X189288065Y-106450300D01*
X189308347Y-106452297D01*
X189494000Y-106470583D01*
X189699934Y-106450300D01*
X189897954Y-106390232D01*
X190080450Y-106292685D01*
X190240410Y-106161410D01*
X190371685Y-106001450D01*
X190469232Y-105818954D01*
X190529300Y-105620934D01*
X190549583Y-105415000D01*
X190549583Y-105414999D01*
X196058417Y-105414999D01*
X196078699Y-105620932D01*
X196078700Y-105620934D01*
X196138768Y-105818954D01*
X196236315Y-106001450D01*
X196236317Y-106001452D01*
X196367589Y-106161410D01*
X196464209Y-106240702D01*
X196527550Y-106292685D01*
X196710046Y-106390232D01*
X196908066Y-106450300D01*
X196908065Y-106450300D01*
X196928348Y-106452297D01*
X197114000Y-106470583D01*
X197319934Y-106450300D01*
X197517954Y-106390232D01*
X197700450Y-106292685D01*
X197860410Y-106161410D01*
X197991685Y-106001450D01*
X198089232Y-105818954D01*
X198149300Y-105620934D01*
X198169583Y-105415000D01*
X198149300Y-105209066D01*
X198089232Y-105011046D01*
X197991685Y-104828550D01*
X197939702Y-104765209D01*
X197860410Y-104668589D01*
X197700452Y-104537317D01*
X197700453Y-104537317D01*
X197700450Y-104537315D01*
X197517954Y-104439768D01*
X197319934Y-104379700D01*
X197319932Y-104379699D01*
X197319934Y-104379699D01*
X197132463Y-104361235D01*
X197114000Y-104359417D01*
X197113999Y-104359417D01*
X196908067Y-104379699D01*
X196710043Y-104439769D01*
X196599898Y-104498643D01*
X196527550Y-104537315D01*
X196527548Y-104537316D01*
X196527547Y-104537317D01*
X196367589Y-104668589D01*
X196236317Y-104828547D01*
X196138769Y-105011043D01*
X196078699Y-105209067D01*
X196058417Y-105414999D01*
X190549583Y-105414999D01*
X190529300Y-105209066D01*
X190469232Y-105011046D01*
X190371685Y-104828550D01*
X190319702Y-104765209D01*
X190240410Y-104668589D01*
X190080452Y-104537317D01*
X190080453Y-104537317D01*
X190080450Y-104537315D01*
X189897954Y-104439768D01*
X189699934Y-104379700D01*
X189699932Y-104379699D01*
X189699934Y-104379699D01*
X189494000Y-104359417D01*
X189288067Y-104379699D01*
X189090043Y-104439769D01*
X188979898Y-104498643D01*
X188907550Y-104537315D01*
X188907548Y-104537316D01*
X188907547Y-104537317D01*
X188747589Y-104668589D01*
X188616317Y-104828547D01*
X188518769Y-105011043D01*
X188458699Y-105209067D01*
X188438417Y-105414999D01*
X169672000Y-105414999D01*
X169672000Y-102875000D01*
X188438417Y-102875000D01*
X188458699Y-103080932D01*
X188458700Y-103080934D01*
X188518768Y-103278954D01*
X188616315Y-103461450D01*
X188616317Y-103461452D01*
X188747589Y-103621410D01*
X188844209Y-103700702D01*
X188907550Y-103752685D01*
X189090046Y-103850232D01*
X189288066Y-103910300D01*
X189288065Y-103910300D01*
X189308347Y-103912297D01*
X189494000Y-103930583D01*
X189699934Y-103910300D01*
X189897954Y-103850232D01*
X190080450Y-103752685D01*
X190240410Y-103621410D01*
X190371685Y-103461450D01*
X190469232Y-103278954D01*
X190529300Y-103080934D01*
X190549583Y-102875000D01*
X196058417Y-102875000D01*
X196078699Y-103080932D01*
X196078700Y-103080934D01*
X196138768Y-103278954D01*
X196236315Y-103461450D01*
X196236317Y-103461452D01*
X196367589Y-103621410D01*
X196464209Y-103700702D01*
X196527550Y-103752685D01*
X196710046Y-103850232D01*
X196908066Y-103910300D01*
X196908065Y-103910300D01*
X196926529Y-103912118D01*
X197114000Y-103930583D01*
X197319934Y-103910300D01*
X197517954Y-103850232D01*
X197700450Y-103752685D01*
X197860410Y-103621410D01*
X197991685Y-103461450D01*
X198089232Y-103278954D01*
X198149300Y-103080934D01*
X198169583Y-102875000D01*
X198149300Y-102669066D01*
X198089232Y-102471046D01*
X197991685Y-102288550D01*
X197939702Y-102225209D01*
X197860410Y-102128589D01*
X197700452Y-101997317D01*
X197700453Y-101997317D01*
X197700450Y-101997315D01*
X197517954Y-101899768D01*
X197319934Y-101839700D01*
X197319932Y-101839699D01*
X197319934Y-101839699D01*
X197114000Y-101819417D01*
X196908067Y-101839699D01*
X196710043Y-101899769D01*
X196599898Y-101958643D01*
X196527550Y-101997315D01*
X196527548Y-101997316D01*
X196527547Y-101997317D01*
X196367589Y-102128589D01*
X196236317Y-102288547D01*
X196138769Y-102471043D01*
X196078699Y-102669067D01*
X196058417Y-102875000D01*
X190549583Y-102875000D01*
X190529300Y-102669066D01*
X190469232Y-102471046D01*
X190371685Y-102288550D01*
X190319702Y-102225209D01*
X190240410Y-102128589D01*
X190080452Y-101997317D01*
X190080453Y-101997317D01*
X190080450Y-101997315D01*
X189897954Y-101899768D01*
X189699934Y-101839700D01*
X189699932Y-101839699D01*
X189699934Y-101839699D01*
X189512463Y-101821235D01*
X189494000Y-101819417D01*
X189493999Y-101819417D01*
X189288067Y-101839699D01*
X189090043Y-101899769D01*
X188979898Y-101958643D01*
X188907550Y-101997315D01*
X188907548Y-101997316D01*
X188907547Y-101997317D01*
X188747589Y-102128589D01*
X188616317Y-102288547D01*
X188518769Y-102471043D01*
X188458699Y-102669067D01*
X188438417Y-102875000D01*
X169672000Y-102875000D01*
X169672000Y-100334999D01*
X188438417Y-100334999D01*
X188458699Y-100540932D01*
X188458700Y-100540934D01*
X188518768Y-100738954D01*
X188616315Y-100921450D01*
X188616317Y-100921452D01*
X188747589Y-101081410D01*
X188844209Y-101160702D01*
X188907550Y-101212685D01*
X189090046Y-101310232D01*
X189288066Y-101370300D01*
X189288065Y-101370300D01*
X189306529Y-101372118D01*
X189494000Y-101390583D01*
X189699934Y-101370300D01*
X189897954Y-101310232D01*
X190080450Y-101212685D01*
X190240410Y-101081410D01*
X190371685Y-100921450D01*
X190469232Y-100738954D01*
X190529300Y-100540934D01*
X190549583Y-100335000D01*
X190529300Y-100129066D01*
X190469232Y-99931046D01*
X190371685Y-99748550D01*
X190319702Y-99685209D01*
X190240410Y-99588589D01*
X190080452Y-99457317D01*
X190080453Y-99457317D01*
X190080450Y-99457315D01*
X189897954Y-99359768D01*
X189699934Y-99299700D01*
X189699932Y-99299699D01*
X189699934Y-99299699D01*
X189512463Y-99281235D01*
X189494000Y-99279417D01*
X189493999Y-99279417D01*
X189288067Y-99299699D01*
X189090043Y-99359769D01*
X188979898Y-99418643D01*
X188907550Y-99457315D01*
X188907548Y-99457316D01*
X188907547Y-99457317D01*
X188747589Y-99588589D01*
X188616317Y-99748547D01*
X188518769Y-99931043D01*
X188458699Y-100129067D01*
X188438417Y-100334999D01*
X169672000Y-100334999D01*
X169672000Y-91134005D01*
X172012859Y-91134005D01*
X172033385Y-91381729D01*
X172033387Y-91381738D01*
X172094412Y-91622717D01*
X172194266Y-91850364D01*
X172294564Y-92003882D01*
X172869482Y-91428964D01*
X172930805Y-91395479D01*
X173000496Y-91400463D01*
X173056430Y-91442334D01*
X173059514Y-91447249D01*
X173059549Y-91447225D01*
X173064441Y-91454156D01*
X173119673Y-91513294D01*
X173167638Y-91564652D01*
X173202698Y-91585973D01*
X173249749Y-91637623D01*
X173261407Y-91706513D01*
X173233970Y-91770770D01*
X173225950Y-91779601D01*
X172647942Y-92357609D01*
X172694768Y-92394055D01*
X172694770Y-92394056D01*
X172913385Y-92512364D01*
X172913396Y-92512369D01*
X173148506Y-92593083D01*
X173393707Y-92634000D01*
X173642293Y-92634000D01*
X173887493Y-92593083D01*
X174122603Y-92512369D01*
X174122614Y-92512364D01*
X174341228Y-92394057D01*
X174341231Y-92394055D01*
X174388056Y-92357609D01*
X173811165Y-91780718D01*
X173777680Y-91719395D01*
X173782664Y-91649703D01*
X173820588Y-91596853D01*
X173923739Y-91512934D01*
X173974052Y-91441655D01*
X174028793Y-91398239D01*
X174098318Y-91391310D01*
X174160553Y-91423068D01*
X174163037Y-91425484D01*
X174741434Y-92003882D01*
X174841731Y-91850369D01*
X174941587Y-91622717D01*
X175002612Y-91381738D01*
X175002614Y-91381729D01*
X175023141Y-91134005D01*
X175023141Y-91134002D01*
X176762723Y-91134002D01*
X176766491Y-91177070D01*
X176779937Y-91330767D01*
X176781793Y-91351975D01*
X176781793Y-91351979D01*
X176838422Y-91563322D01*
X176838424Y-91563326D01*
X176838425Y-91563330D01*
X176875673Y-91643209D01*
X176930897Y-91761638D01*
X176943475Y-91779601D01*
X177056402Y-91940877D01*
X177211123Y-92095598D01*
X177390361Y-92221102D01*
X177588670Y-92313575D01*
X177800023Y-92370207D01*
X177982926Y-92386208D01*
X178017998Y-92389277D01*
X178018000Y-92389277D01*
X178018002Y-92389277D01*
X178046254Y-92386805D01*
X178235977Y-92370207D01*
X178447330Y-92313575D01*
X178645639Y-92221102D01*
X178824877Y-92095598D01*
X178979598Y-91940877D01*
X179105102Y-91761639D01*
X179197575Y-91563330D01*
X179254207Y-91351977D01*
X179273277Y-91134000D01*
X179273276Y-91133994D01*
X179269069Y-91085901D01*
X179254207Y-90916023D01*
X179197575Y-90704670D01*
X179175800Y-90657975D01*
X179165308Y-90588899D01*
X179193826Y-90525115D01*
X179200473Y-90517917D01*
X179365574Y-90352816D01*
X179426897Y-90319334D01*
X179453254Y-90316500D01*
X182789263Y-90316500D01*
X182856302Y-90336185D01*
X182900262Y-90385228D01*
X182956327Y-90497821D01*
X182994676Y-90548603D01*
X183079237Y-90660581D01*
X183229958Y-90797980D01*
X183229960Y-90797982D01*
X183296262Y-90839034D01*
X183403363Y-90905348D01*
X183593544Y-90979024D01*
X183794024Y-91016500D01*
X183794026Y-91016500D01*
X183997974Y-91016500D01*
X183997976Y-91016500D01*
X184198456Y-90979024D01*
X184263070Y-90953991D01*
X184332692Y-90948129D01*
X184394433Y-90980838D01*
X184395545Y-90981937D01*
X184557427Y-91143819D01*
X184590912Y-91205142D01*
X184585928Y-91274834D01*
X184544056Y-91330767D01*
X184478592Y-91355184D01*
X184469746Y-91355500D01*
X183021323Y-91355500D01*
X182948264Y-91370032D01*
X182948260Y-91370033D01*
X182865399Y-91425399D01*
X182810033Y-91508260D01*
X182810032Y-91508264D01*
X182795500Y-91581321D01*
X182795499Y-91581323D01*
X182795499Y-93330676D01*
X182795500Y-93330678D01*
X182810032Y-93403735D01*
X182810033Y-93403739D01*
X182810034Y-93403740D01*
X182865399Y-93486601D01*
X182948260Y-93541966D01*
X182948264Y-93541967D01*
X183021321Y-93556499D01*
X183021324Y-93556500D01*
X183021326Y-93556500D01*
X184770676Y-93556500D01*
X184770677Y-93556499D01*
X184843740Y-93541966D01*
X184926601Y-93486601D01*
X184981966Y-93403740D01*
X184996500Y-93330674D01*
X184996500Y-91882254D01*
X185016185Y-91815215D01*
X185068989Y-91769460D01*
X185138147Y-91759516D01*
X185201703Y-91788541D01*
X185208181Y-91794573D01*
X185216950Y-91803342D01*
X185306658Y-91893050D01*
X185326395Y-91903106D01*
X185342981Y-91913269D01*
X185360910Y-91926296D01*
X185381981Y-91933142D01*
X185399958Y-91940588D01*
X185419696Y-91950646D01*
X185441578Y-91954111D01*
X185460491Y-91958652D01*
X185481567Y-91965500D01*
X185513481Y-91965500D01*
X185710745Y-91965500D01*
X185777784Y-91985185D01*
X185798426Y-92001819D01*
X186253181Y-92456573D01*
X186286666Y-92517896D01*
X186289500Y-92544254D01*
X186289500Y-97473944D01*
X186269815Y-97540983D01*
X186247727Y-97566759D01*
X186199521Y-97609465D01*
X186199515Y-97609472D01*
X186109781Y-97739475D01*
X186109780Y-97739476D01*
X186053762Y-97887181D01*
X186034722Y-98043999D01*
X186034722Y-98044000D01*
X186053762Y-98200818D01*
X186092607Y-98303241D01*
X186109780Y-98348523D01*
X186199517Y-98478530D01*
X186317760Y-98583283D01*
X186317762Y-98583284D01*
X186457634Y-98656696D01*
X186611014Y-98694500D01*
X186611015Y-98694500D01*
X186768985Y-98694500D01*
X186922365Y-98656696D01*
X186967841Y-98632828D01*
X187062240Y-98583283D01*
X187180483Y-98478530D01*
X187270220Y-98348523D01*
X187326237Y-98200818D01*
X187345278Y-98044000D01*
X187339027Y-97992513D01*
X187326237Y-97887181D01*
X187291277Y-97795000D01*
X188438417Y-97795000D01*
X188458699Y-98000932D01*
X188458700Y-98000934D01*
X188518768Y-98198954D01*
X188616315Y-98381450D01*
X188616317Y-98381452D01*
X188747589Y-98541410D01*
X188844209Y-98620702D01*
X188907550Y-98672685D01*
X189090046Y-98770232D01*
X189288066Y-98830300D01*
X189288065Y-98830300D01*
X189306529Y-98832118D01*
X189494000Y-98850583D01*
X189699934Y-98830300D01*
X189897954Y-98770232D01*
X190080450Y-98672685D01*
X190240410Y-98541410D01*
X190371685Y-98381450D01*
X190469232Y-98198954D01*
X190529300Y-98000934D01*
X190549583Y-97795000D01*
X190529300Y-97589066D01*
X190469232Y-97391046D01*
X190371685Y-97208550D01*
X190319702Y-97145209D01*
X190240410Y-97048589D01*
X190080452Y-96917317D01*
X190080453Y-96917317D01*
X190080450Y-96917315D01*
X189897954Y-96819768D01*
X189699934Y-96759700D01*
X189699932Y-96759699D01*
X189699934Y-96759699D01*
X189494000Y-96739417D01*
X189288067Y-96759699D01*
X189090043Y-96819769D01*
X188979898Y-96878643D01*
X188907550Y-96917315D01*
X188907548Y-96917316D01*
X188907547Y-96917317D01*
X188747589Y-97048589D01*
X188616317Y-97208547D01*
X188518769Y-97391043D01*
X188458699Y-97589067D01*
X188438417Y-97795000D01*
X187291277Y-97795000D01*
X187270220Y-97739477D01*
X187180483Y-97609470D01*
X187180480Y-97609467D01*
X187180478Y-97609465D01*
X187132273Y-97566759D01*
X187095146Y-97507570D01*
X187090500Y-97473944D01*
X187090500Y-95254999D01*
X188438417Y-95254999D01*
X188458699Y-95460932D01*
X188458700Y-95460934D01*
X188518768Y-95658954D01*
X188616315Y-95841450D01*
X188616316Y-95841451D01*
X188616317Y-95841452D01*
X188747589Y-96001410D01*
X188799174Y-96043744D01*
X188907550Y-96132685D01*
X189090046Y-96230232D01*
X189288066Y-96290300D01*
X189288065Y-96290300D01*
X189308347Y-96292297D01*
X189494000Y-96310583D01*
X189699934Y-96290300D01*
X189897954Y-96230232D01*
X190080450Y-96132685D01*
X190240410Y-96001410D01*
X190371685Y-95841450D01*
X190469232Y-95658954D01*
X190529300Y-95460934D01*
X190549583Y-95255000D01*
X190529300Y-95049066D01*
X190469232Y-94851046D01*
X190371685Y-94668550D01*
X190303493Y-94585457D01*
X190240410Y-94508589D01*
X190080452Y-94377317D01*
X190080453Y-94377317D01*
X190080450Y-94377315D01*
X189897954Y-94279768D01*
X189699934Y-94219700D01*
X189699932Y-94219699D01*
X189699934Y-94219699D01*
X189512463Y-94201235D01*
X189494000Y-94199417D01*
X189493999Y-94199417D01*
X189288067Y-94219699D01*
X189090043Y-94279769D01*
X188979898Y-94338643D01*
X188907550Y-94377315D01*
X188907548Y-94377316D01*
X188907547Y-94377317D01*
X188747589Y-94508589D01*
X188616317Y-94668547D01*
X188518769Y-94851043D01*
X188458699Y-95049067D01*
X188438417Y-95254999D01*
X187090500Y-95254999D01*
X187090500Y-92263569D01*
X187090500Y-92263567D01*
X187083653Y-92242497D01*
X187079111Y-92223577D01*
X187078719Y-92221102D01*
X187075646Y-92201696D01*
X187065584Y-92181949D01*
X187058140Y-92163976D01*
X187052934Y-92147954D01*
X187051296Y-92142911D01*
X187051295Y-92142909D01*
X187048280Y-92133630D01*
X187050352Y-92132956D01*
X187039870Y-92077120D01*
X187066149Y-92012380D01*
X187123258Y-91972126D01*
X187163250Y-91965500D01*
X188496586Y-91965500D01*
X188563625Y-91985185D01*
X188609380Y-92037989D01*
X188619324Y-92107147D01*
X188605945Y-92147950D01*
X188565522Y-92223577D01*
X188518769Y-92311043D01*
X188518768Y-92311045D01*
X188518768Y-92311046D01*
X188518001Y-92313575D01*
X188458699Y-92509067D01*
X188438417Y-92715000D01*
X188458699Y-92920932D01*
X188458700Y-92920934D01*
X188518768Y-93118954D01*
X188616315Y-93301450D01*
X188616317Y-93301452D01*
X188747589Y-93461410D01*
X188844209Y-93540702D01*
X188907550Y-93592685D01*
X189090046Y-93690232D01*
X189288066Y-93750300D01*
X189288065Y-93750300D01*
X189296107Y-93751092D01*
X189494000Y-93770583D01*
X189699934Y-93750300D01*
X189897954Y-93690232D01*
X190080450Y-93592685D01*
X190240410Y-93461410D01*
X190371685Y-93301450D01*
X190469232Y-93118954D01*
X190529300Y-92920934D01*
X190549583Y-92715000D01*
X190529300Y-92509066D01*
X190469232Y-92311046D01*
X190382055Y-92147951D01*
X190367814Y-92079551D01*
X190392814Y-92014307D01*
X190449118Y-91972936D01*
X190491414Y-91965500D01*
X191169745Y-91965500D01*
X191236784Y-91985185D01*
X191257425Y-92001819D01*
X194381182Y-95125575D01*
X194414666Y-95186896D01*
X194417500Y-95213254D01*
X194417500Y-98107429D01*
X194417501Y-98107439D01*
X194424346Y-98128507D01*
X194428887Y-98147418D01*
X194432354Y-98169304D01*
X194432355Y-98169307D01*
X194442412Y-98189045D01*
X194449857Y-98207018D01*
X194456704Y-98228090D01*
X194469726Y-98246014D01*
X194479890Y-98262600D01*
X194489950Y-98282342D01*
X194510864Y-98303256D01*
X194510878Y-98303271D01*
X194743950Y-98536342D01*
X194833660Y-98626052D01*
X194841557Y-98631790D01*
X194840802Y-98632828D01*
X194857739Y-98645132D01*
X196087351Y-99874744D01*
X196120836Y-99936067D01*
X196118331Y-99998420D01*
X196078699Y-100129067D01*
X196058417Y-100334999D01*
X196078699Y-100540932D01*
X196078700Y-100540934D01*
X196138768Y-100738954D01*
X196236315Y-100921450D01*
X196236317Y-100921452D01*
X196367589Y-101081410D01*
X196464209Y-101160702D01*
X196527550Y-101212685D01*
X196710046Y-101310232D01*
X196908066Y-101370300D01*
X196908065Y-101370300D01*
X196926529Y-101372118D01*
X197114000Y-101390583D01*
X197319934Y-101370300D01*
X197517954Y-101310232D01*
X197700450Y-101212685D01*
X197860410Y-101081410D01*
X197991685Y-100921450D01*
X198089232Y-100738954D01*
X198149300Y-100540934D01*
X198169583Y-100335000D01*
X198149300Y-100129066D01*
X198089232Y-99931046D01*
X197991685Y-99748550D01*
X197939702Y-99685209D01*
X197860410Y-99588589D01*
X197700452Y-99457317D01*
X197700453Y-99457317D01*
X197700450Y-99457315D01*
X197517954Y-99359768D01*
X197319934Y-99299700D01*
X197319932Y-99299699D01*
X197319934Y-99299699D01*
X197114000Y-99279417D01*
X196908067Y-99299699D01*
X196827837Y-99324036D01*
X196777418Y-99339331D01*
X196707553Y-99339954D01*
X196653744Y-99308351D01*
X195336287Y-97990893D01*
X195336256Y-97990864D01*
X195315342Y-97969950D01*
X195307445Y-97964212D01*
X195308198Y-97963175D01*
X195291262Y-97950869D01*
X195254819Y-97914426D01*
X195221334Y-97853103D01*
X195218500Y-97826745D01*
X195218500Y-96765255D01*
X195238185Y-96698216D01*
X195290989Y-96652461D01*
X195360147Y-96642517D01*
X195423703Y-96671542D01*
X195430181Y-96677574D01*
X196087351Y-97334744D01*
X196120836Y-97396067D01*
X196118331Y-97458418D01*
X196103421Y-97507570D01*
X196078699Y-97589067D01*
X196058417Y-97795000D01*
X196078699Y-98000932D01*
X196078700Y-98000934D01*
X196138768Y-98198954D01*
X196236315Y-98381450D01*
X196236317Y-98381452D01*
X196367589Y-98541410D01*
X196464209Y-98620702D01*
X196527550Y-98672685D01*
X196710046Y-98770232D01*
X196908066Y-98830300D01*
X196908065Y-98830300D01*
X196928348Y-98832297D01*
X197114000Y-98850583D01*
X197319934Y-98830300D01*
X197517954Y-98770232D01*
X197700450Y-98672685D01*
X197860410Y-98541410D01*
X197991685Y-98381450D01*
X198089232Y-98198954D01*
X198149300Y-98000934D01*
X198169583Y-97795000D01*
X198149300Y-97589066D01*
X198089232Y-97391046D01*
X197991685Y-97208550D01*
X197939702Y-97145209D01*
X197860410Y-97048589D01*
X197700452Y-96917317D01*
X197700453Y-96917317D01*
X197700450Y-96917315D01*
X197517954Y-96819768D01*
X197319934Y-96759700D01*
X197319932Y-96759699D01*
X197319934Y-96759699D01*
X197114000Y-96739417D01*
X196908067Y-96759699D01*
X196827837Y-96784036D01*
X196777418Y-96799331D01*
X196707553Y-96799954D01*
X196653744Y-96768351D01*
X196016819Y-96131425D01*
X195983334Y-96070102D01*
X195980500Y-96043744D01*
X195980500Y-95857889D01*
X196000185Y-95790850D01*
X196052989Y-95745095D01*
X196122147Y-95735151D01*
X196185703Y-95764176D01*
X196213858Y-95799436D01*
X196236315Y-95841451D01*
X196367589Y-96001410D01*
X196419174Y-96043744D01*
X196527550Y-96132685D01*
X196710046Y-96230232D01*
X196908066Y-96290300D01*
X196908065Y-96290300D01*
X196926529Y-96292118D01*
X197114000Y-96310583D01*
X197319934Y-96290300D01*
X197517954Y-96230232D01*
X197700450Y-96132685D01*
X197860410Y-96001410D01*
X197991685Y-95841450D01*
X198089232Y-95658954D01*
X198149300Y-95460934D01*
X198169583Y-95255000D01*
X198149300Y-95049066D01*
X198089232Y-94851046D01*
X197991685Y-94668550D01*
X197923493Y-94585457D01*
X197860410Y-94508589D01*
X197700452Y-94377317D01*
X197700453Y-94377317D01*
X197700450Y-94377315D01*
X197517954Y-94279768D01*
X197319934Y-94219700D01*
X197319932Y-94219699D01*
X197319934Y-94219699D01*
X197132463Y-94201235D01*
X197114000Y-94199417D01*
X197113999Y-94199417D01*
X196908067Y-94219699D01*
X196710043Y-94279769D01*
X196599898Y-94338643D01*
X196527550Y-94377315D01*
X196527548Y-94377316D01*
X196527547Y-94377317D01*
X196367589Y-94508589D01*
X196236317Y-94668547D01*
X196213858Y-94710564D01*
X196164895Y-94760408D01*
X196096757Y-94775868D01*
X196031077Y-94752036D01*
X195988709Y-94696477D01*
X195980500Y-94652110D01*
X195980500Y-93897569D01*
X195980500Y-93897567D01*
X195973653Y-93876497D01*
X195969111Y-93857577D01*
X195965646Y-93835696D01*
X195955584Y-93815949D01*
X195948140Y-93797976D01*
X195941295Y-93776909D01*
X195928274Y-93758987D01*
X195918108Y-93742398D01*
X195908050Y-93722658D01*
X195887398Y-93702006D01*
X195887380Y-93701986D01*
X192110393Y-89924999D01*
X195835127Y-89924999D01*
X195835128Y-89925000D01*
X196603424Y-89925000D01*
X196670463Y-89944685D01*
X196716218Y-89997489D01*
X196726162Y-90066647D01*
X196725897Y-90068397D01*
X196709014Y-90174996D01*
X196709014Y-90175003D01*
X196725897Y-90281603D01*
X196716942Y-90350896D01*
X196671946Y-90404348D01*
X196605194Y-90424987D01*
X196603424Y-90425000D01*
X195835128Y-90425000D01*
X195887730Y-90621317D01*
X195887734Y-90621326D01*
X195983865Y-90827482D01*
X196114342Y-91013820D01*
X196275179Y-91174657D01*
X196461517Y-91305134D01*
X196667673Y-91401265D01*
X196667682Y-91401269D01*
X196863256Y-91453673D01*
X196922917Y-91490038D01*
X196953446Y-91552885D01*
X196945151Y-91622261D01*
X196900666Y-91676138D01*
X196867158Y-91692109D01*
X196710043Y-91739769D01*
X196618799Y-91788541D01*
X196527550Y-91837315D01*
X196527548Y-91837316D01*
X196527547Y-91837317D01*
X196367589Y-91968589D01*
X196245718Y-92117092D01*
X196236315Y-92128550D01*
X196217379Y-92163976D01*
X196138769Y-92311043D01*
X196138768Y-92311045D01*
X196138768Y-92311046D01*
X196138001Y-92313575D01*
X196078699Y-92509067D01*
X196058417Y-92714999D01*
X196078699Y-92920932D01*
X196078700Y-92920934D01*
X196138768Y-93118954D01*
X196236315Y-93301450D01*
X196236317Y-93301452D01*
X196367589Y-93461410D01*
X196464209Y-93540702D01*
X196527550Y-93592685D01*
X196710046Y-93690232D01*
X196908066Y-93750300D01*
X196908065Y-93750300D01*
X196916107Y-93751092D01*
X197114000Y-93770583D01*
X197319934Y-93750300D01*
X197517954Y-93690232D01*
X197700450Y-93592685D01*
X197860410Y-93461410D01*
X197991685Y-93301450D01*
X198089232Y-93118954D01*
X198149300Y-92920934D01*
X198169583Y-92715000D01*
X198149300Y-92509066D01*
X198089232Y-92311046D01*
X197991685Y-92128550D01*
X197897929Y-92014307D01*
X197860410Y-91968589D01*
X197700452Y-91837317D01*
X197700453Y-91837317D01*
X197700450Y-91837315D01*
X197517954Y-91739768D01*
X197360840Y-91692108D01*
X197302402Y-91653811D01*
X197273946Y-91589999D01*
X197284506Y-91520932D01*
X197330730Y-91468538D01*
X197364743Y-91453673D01*
X197560317Y-91401269D01*
X197560326Y-91401265D01*
X197766482Y-91305134D01*
X197952820Y-91174657D01*
X198113657Y-91013820D01*
X198244134Y-90827482D01*
X198340265Y-90621326D01*
X198340269Y-90621317D01*
X198392872Y-90425000D01*
X197624576Y-90425000D01*
X197557537Y-90405315D01*
X197511782Y-90352511D01*
X197501838Y-90283353D01*
X197502103Y-90281603D01*
X197518986Y-90175003D01*
X197518986Y-90174996D01*
X197502103Y-90068397D01*
X197511058Y-89999104D01*
X197556054Y-89945652D01*
X197622806Y-89925013D01*
X197624576Y-89925000D01*
X198392872Y-89925000D01*
X198392872Y-89924999D01*
X198340269Y-89728682D01*
X198340265Y-89728673D01*
X198244134Y-89522517D01*
X198113657Y-89336179D01*
X197952820Y-89175342D01*
X197766482Y-89044865D01*
X197560328Y-88948734D01*
X197364000Y-88896127D01*
X197364000Y-89664424D01*
X197344315Y-89731463D01*
X197291511Y-89777218D01*
X197222353Y-89787162D01*
X197220602Y-89786897D01*
X197145486Y-89775000D01*
X197145481Y-89775000D01*
X197082519Y-89775000D01*
X197082514Y-89775000D01*
X197007398Y-89786897D01*
X196938104Y-89777942D01*
X196884652Y-89732946D01*
X196864013Y-89666194D01*
X196864000Y-89664424D01*
X196864000Y-88896127D01*
X196667671Y-88948734D01*
X196461517Y-89044865D01*
X196275179Y-89175342D01*
X196114342Y-89336179D01*
X195983865Y-89522517D01*
X195887734Y-89728673D01*
X195887730Y-89728682D01*
X195835127Y-89924999D01*
X192110393Y-89924999D01*
X190778287Y-88592893D01*
X190778256Y-88592864D01*
X190757342Y-88571950D01*
X190757341Y-88571949D01*
X190737600Y-88561890D01*
X190721014Y-88551726D01*
X190703090Y-88538704D01*
X190703091Y-88538704D01*
X190682018Y-88531857D01*
X190664045Y-88524412D01*
X190644307Y-88514355D01*
X190644304Y-88514354D01*
X190622418Y-88510887D01*
X190603507Y-88506346D01*
X190582439Y-88499501D01*
X190582434Y-88499500D01*
X190582433Y-88499500D01*
X190582429Y-88499500D01*
X185637254Y-88499500D01*
X185570215Y-88479815D01*
X185549573Y-88463181D01*
X184963724Y-87877331D01*
X184930239Y-87816008D01*
X184932138Y-87755719D01*
X184982397Y-87579083D01*
X185001215Y-87376000D01*
X184982397Y-87172917D01*
X184926582Y-86976750D01*
X184835673Y-86794179D01*
X184712764Y-86631421D01*
X184712762Y-86631418D01*
X184562041Y-86494019D01*
X184562039Y-86494017D01*
X184388642Y-86386655D01*
X184388635Y-86386651D01*
X184307715Y-86355303D01*
X184252313Y-86312730D01*
X184228723Y-86246963D01*
X184244434Y-86178883D01*
X184294458Y-86130104D01*
X184320417Y-86119901D01*
X184359481Y-86109434D01*
X184359492Y-86109429D01*
X184573578Y-86009600D01*
X184767082Y-85874105D01*
X184934105Y-85707082D01*
X185069600Y-85513578D01*
X185169429Y-85299492D01*
X185169432Y-85299486D01*
X185226636Y-85086000D01*
X184509347Y-85086000D01*
X184442308Y-85066315D01*
X184396553Y-85013511D01*
X184386609Y-84944353D01*
X184390369Y-84927067D01*
X184396000Y-84907888D01*
X184396000Y-84764111D01*
X184390369Y-84744933D01*
X184390370Y-84675064D01*
X184428145Y-84616286D01*
X184491701Y-84587262D01*
X184509347Y-84586000D01*
X185226636Y-84586000D01*
X185226635Y-84585999D01*
X185169432Y-84372513D01*
X185169429Y-84372507D01*
X185069600Y-84158422D01*
X185069599Y-84158420D01*
X184934113Y-83964926D01*
X184934108Y-83964920D01*
X184767082Y-83797894D01*
X184573578Y-83662399D01*
X184359492Y-83562570D01*
X184359486Y-83562567D01*
X184146000Y-83505364D01*
X184146000Y-84223698D01*
X184126315Y-84290737D01*
X184073511Y-84336492D01*
X184004355Y-84346436D01*
X183931766Y-84336000D01*
X183931763Y-84336000D01*
X183860237Y-84336000D01*
X183860233Y-84336000D01*
X183787645Y-84346436D01*
X183718487Y-84336492D01*
X183665684Y-84290736D01*
X183646000Y-84223698D01*
X183646000Y-83505364D01*
X183645999Y-83505364D01*
X183432513Y-83562567D01*
X183432507Y-83562570D01*
X183218422Y-83662399D01*
X183218420Y-83662400D01*
X183024926Y-83797886D01*
X183024920Y-83797891D01*
X182857891Y-83964920D01*
X182857886Y-83964926D01*
X182722400Y-84158420D01*
X182722399Y-84158422D01*
X182622570Y-84372507D01*
X182622567Y-84372513D01*
X182565364Y-84585999D01*
X182565364Y-84586000D01*
X183282653Y-84586000D01*
X183349692Y-84605685D01*
X183395447Y-84658489D01*
X183405391Y-84727647D01*
X183401631Y-84744933D01*
X183396000Y-84764111D01*
X183396000Y-84907888D01*
X183401631Y-84927067D01*
X183401630Y-84996936D01*
X183363855Y-85055714D01*
X183300299Y-85084738D01*
X183282653Y-85086000D01*
X182565364Y-85086000D01*
X182622567Y-85299486D01*
X182622570Y-85299492D01*
X182722399Y-85513578D01*
X182857894Y-85707082D01*
X183024917Y-85874105D01*
X183218421Y-86009600D01*
X183432507Y-86109429D01*
X183432516Y-86109433D01*
X183471583Y-86119901D01*
X183531244Y-86156266D01*
X183561773Y-86219113D01*
X183553479Y-86288488D01*
X183508993Y-86342366D01*
X183484284Y-86355302D01*
X183403373Y-86386647D01*
X183403357Y-86386655D01*
X183229960Y-86494017D01*
X183229958Y-86494019D01*
X183079237Y-86631418D01*
X182956327Y-86794178D01*
X182865422Y-86976739D01*
X182865417Y-86976752D01*
X182809602Y-87172917D01*
X182790785Y-87375999D01*
X182790785Y-87376000D01*
X182809602Y-87579082D01*
X182865417Y-87775247D01*
X182865422Y-87775260D01*
X182956327Y-87957821D01*
X183079237Y-88120581D01*
X183229958Y-88257980D01*
X183229960Y-88257982D01*
X183329141Y-88319392D01*
X183403363Y-88365348D01*
X183593544Y-88439024D01*
X183794024Y-88476500D01*
X183794026Y-88476500D01*
X183997974Y-88476500D01*
X183997976Y-88476500D01*
X184198456Y-88439024D01*
X184263070Y-88413991D01*
X184332692Y-88408129D01*
X184394433Y-88440838D01*
X184395545Y-88441937D01*
X185091950Y-89138342D01*
X185181658Y-89228050D01*
X185201395Y-89238106D01*
X185217981Y-89248269D01*
X185235910Y-89261296D01*
X185235912Y-89261296D01*
X185235913Y-89261297D01*
X185256974Y-89268140D01*
X185274953Y-89275586D01*
X185294696Y-89285646D01*
X185316585Y-89289112D01*
X185335501Y-89293653D01*
X185356567Y-89300499D01*
X185385924Y-89300499D01*
X185385948Y-89300500D01*
X185388481Y-89300500D01*
X188319500Y-89300500D01*
X188386539Y-89320185D01*
X188432294Y-89372989D01*
X188443500Y-89424500D01*
X188443500Y-90999673D01*
X188446809Y-91016310D01*
X188440580Y-91085901D01*
X188397717Y-91141078D01*
X188331827Y-91164322D01*
X188325191Y-91164500D01*
X185762254Y-91164500D01*
X185695215Y-91144815D01*
X185674573Y-91128181D01*
X184963724Y-90417331D01*
X184930239Y-90356008D01*
X184932138Y-90295719D01*
X184982397Y-90119083D01*
X185001215Y-89916000D01*
X184997318Y-89873949D01*
X184982397Y-89712917D01*
X184953261Y-89610516D01*
X184926582Y-89516750D01*
X184890617Y-89444523D01*
X184843713Y-89350326D01*
X184835673Y-89334179D01*
X184712764Y-89171421D01*
X184712762Y-89171418D01*
X184562041Y-89034019D01*
X184562039Y-89034017D01*
X184388642Y-88926655D01*
X184388635Y-88926651D01*
X184293546Y-88889814D01*
X184198456Y-88852976D01*
X183997976Y-88815500D01*
X183794024Y-88815500D01*
X183593544Y-88852976D01*
X183593541Y-88852976D01*
X183593541Y-88852977D01*
X183403364Y-88926651D01*
X183403357Y-88926655D01*
X183229960Y-89034017D01*
X183229958Y-89034019D01*
X183079237Y-89171418D01*
X182956326Y-89334180D01*
X182900263Y-89446771D01*
X182852761Y-89498008D01*
X182789263Y-89515500D01*
X179172567Y-89515500D01*
X179151491Y-89522347D01*
X179132582Y-89526887D01*
X179110696Y-89530354D01*
X179090955Y-89540412D01*
X179072987Y-89547854D01*
X179051912Y-89554702D01*
X179051909Y-89554704D01*
X179033984Y-89567727D01*
X179017399Y-89577890D01*
X178997659Y-89587948D01*
X178975093Y-89610515D01*
X178975091Y-89610517D01*
X178634108Y-89951498D01*
X178572785Y-89984982D01*
X178503093Y-89979998D01*
X178494029Y-89976201D01*
X178447330Y-89954425D01*
X178447326Y-89954424D01*
X178447322Y-89954422D01*
X178235977Y-89897793D01*
X178018002Y-89878723D01*
X178017998Y-89878723D01*
X177872681Y-89891436D01*
X177800023Y-89897793D01*
X177800020Y-89897793D01*
X177588677Y-89954422D01*
X177588668Y-89954426D01*
X177390361Y-90046898D01*
X177390357Y-90046900D01*
X177211121Y-90172402D01*
X177056402Y-90327121D01*
X176930900Y-90506357D01*
X176930898Y-90506361D01*
X176892410Y-90588899D01*
X176839042Y-90703348D01*
X176838426Y-90704668D01*
X176838422Y-90704677D01*
X176781793Y-90916020D01*
X176781793Y-90916024D01*
X176762723Y-91133997D01*
X176762723Y-91134002D01*
X175023141Y-91134002D01*
X175023141Y-91133994D01*
X175002614Y-90886270D01*
X175002612Y-90886261D01*
X174941587Y-90645282D01*
X174841731Y-90417630D01*
X174741434Y-90264116D01*
X174166517Y-90839034D01*
X174105194Y-90872519D01*
X174035502Y-90867535D01*
X173979569Y-90825663D01*
X173976486Y-90820750D01*
X173976451Y-90820775D01*
X173971558Y-90813843D01*
X173903647Y-90741129D01*
X173868362Y-90703348D01*
X173833300Y-90682026D01*
X173786248Y-90630374D01*
X173774591Y-90561484D01*
X173802029Y-90497227D01*
X173810048Y-90488397D01*
X174388056Y-89910389D01*
X174341229Y-89873943D01*
X174122614Y-89755635D01*
X174122603Y-89755630D01*
X173887493Y-89674916D01*
X173642293Y-89634000D01*
X173393707Y-89634000D01*
X173148506Y-89674916D01*
X172913396Y-89755630D01*
X172913390Y-89755632D01*
X172694761Y-89873949D01*
X172647942Y-89910388D01*
X172647942Y-89910390D01*
X173224833Y-90487280D01*
X173258318Y-90548603D01*
X173253334Y-90618294D01*
X173215408Y-90671148D01*
X173112262Y-90755064D01*
X173112258Y-90755069D01*
X173061947Y-90826343D01*
X173007204Y-90869760D01*
X172937679Y-90876689D01*
X172875444Y-90844930D01*
X172872962Y-90842515D01*
X172294564Y-90264116D01*
X172194267Y-90417632D01*
X172094412Y-90645282D01*
X172033387Y-90886261D01*
X172033385Y-90886270D01*
X172012859Y-91133994D01*
X172012859Y-91134005D01*
X169672000Y-91134005D01*
X169672000Y-84634005D01*
X172012859Y-84634005D01*
X172033385Y-84881729D01*
X172033387Y-84881738D01*
X172094412Y-85122717D01*
X172194266Y-85350364D01*
X172294564Y-85503882D01*
X172869482Y-84928964D01*
X172930805Y-84895479D01*
X173000496Y-84900463D01*
X173056430Y-84942334D01*
X173059514Y-84947249D01*
X173059549Y-84947225D01*
X173064441Y-84954156D01*
X173159290Y-85055714D01*
X173167638Y-85064652D01*
X173202698Y-85085973D01*
X173249749Y-85137623D01*
X173261407Y-85206513D01*
X173233970Y-85270770D01*
X173225950Y-85279601D01*
X172647942Y-85857609D01*
X172694768Y-85894055D01*
X172694770Y-85894056D01*
X172913385Y-86012364D01*
X172913396Y-86012369D01*
X173148506Y-86093083D01*
X173393707Y-86134000D01*
X173642293Y-86134000D01*
X173887493Y-86093083D01*
X174122603Y-86012369D01*
X174122614Y-86012364D01*
X174341228Y-85894057D01*
X174341231Y-85894055D01*
X174388056Y-85857609D01*
X173811165Y-85280718D01*
X173777680Y-85219395D01*
X173782664Y-85149703D01*
X173820588Y-85096853D01*
X173923739Y-85012934D01*
X173974052Y-84941655D01*
X174028793Y-84898239D01*
X174098318Y-84891310D01*
X174160553Y-84923068D01*
X174163037Y-84925484D01*
X174741434Y-85503882D01*
X174841731Y-85350369D01*
X174941587Y-85122717D01*
X175002612Y-84881738D01*
X175002614Y-84881729D01*
X175023141Y-84634005D01*
X175023141Y-84634002D01*
X176762723Y-84634002D01*
X176781793Y-84851975D01*
X176781793Y-84851979D01*
X176838422Y-85063322D01*
X176838424Y-85063326D01*
X176838425Y-85063330D01*
X176875673Y-85143209D01*
X176930897Y-85261638D01*
X176943475Y-85279601D01*
X177056402Y-85440877D01*
X177211123Y-85595598D01*
X177390361Y-85721102D01*
X177588670Y-85813575D01*
X177800023Y-85870207D01*
X177982926Y-85886208D01*
X178017998Y-85889277D01*
X178018000Y-85889277D01*
X178018002Y-85889277D01*
X178046254Y-85886805D01*
X178235977Y-85870207D01*
X178447330Y-85813575D01*
X178645639Y-85721102D01*
X178824877Y-85595598D01*
X178979598Y-85440877D01*
X179105102Y-85261639D01*
X179197575Y-85063330D01*
X179254207Y-84851977D01*
X179273277Y-84634000D01*
X179273276Y-84633994D01*
X179263395Y-84521047D01*
X179254207Y-84416023D01*
X179197575Y-84204670D01*
X179105102Y-84006362D01*
X179105100Y-84006359D01*
X179105099Y-84006357D01*
X178979599Y-83827124D01*
X178916591Y-83764116D01*
X178824877Y-83672402D01*
X178645639Y-83546898D01*
X178645640Y-83546898D01*
X178645638Y-83546897D01*
X178546484Y-83500661D01*
X178447330Y-83454425D01*
X178447326Y-83454424D01*
X178447322Y-83454422D01*
X178235977Y-83397793D01*
X178018002Y-83378723D01*
X178017998Y-83378723D01*
X177872681Y-83391436D01*
X177800023Y-83397793D01*
X177800020Y-83397793D01*
X177588677Y-83454422D01*
X177588668Y-83454426D01*
X177390361Y-83546898D01*
X177390357Y-83546900D01*
X177211121Y-83672402D01*
X177056402Y-83827121D01*
X176930900Y-84006357D01*
X176930898Y-84006361D01*
X176887506Y-84099416D01*
X176839042Y-84203348D01*
X176838426Y-84204668D01*
X176838422Y-84204677D01*
X176781793Y-84416020D01*
X176781793Y-84416024D01*
X176762723Y-84633997D01*
X176762723Y-84634002D01*
X175023141Y-84634002D01*
X175023141Y-84633994D01*
X175002614Y-84386270D01*
X175002612Y-84386261D01*
X174941587Y-84145282D01*
X174841731Y-83917630D01*
X174741434Y-83764116D01*
X174166517Y-84339034D01*
X174105194Y-84372519D01*
X174035502Y-84367535D01*
X173979569Y-84325663D01*
X173976486Y-84320750D01*
X173976451Y-84320775D01*
X173971558Y-84313843D01*
X173916661Y-84255064D01*
X173868362Y-84203348D01*
X173833300Y-84182026D01*
X173786248Y-84130374D01*
X173774591Y-84061484D01*
X173802029Y-83997227D01*
X173810048Y-83988397D01*
X174388056Y-83410389D01*
X174341229Y-83373943D01*
X174122614Y-83255635D01*
X174122603Y-83255630D01*
X173887493Y-83174916D01*
X173642293Y-83134000D01*
X173393707Y-83134000D01*
X173148506Y-83174916D01*
X172913396Y-83255630D01*
X172913390Y-83255632D01*
X172694761Y-83373949D01*
X172647942Y-83410388D01*
X172647942Y-83410390D01*
X173224833Y-83987280D01*
X173258318Y-84048603D01*
X173253334Y-84118294D01*
X173215408Y-84171148D01*
X173112262Y-84255064D01*
X173112258Y-84255069D01*
X173061947Y-84326343D01*
X173007204Y-84369760D01*
X172937679Y-84376689D01*
X172875444Y-84344930D01*
X172872962Y-84342515D01*
X172294564Y-83764116D01*
X172194267Y-83917632D01*
X172094412Y-84145282D01*
X172033387Y-84386261D01*
X172033385Y-84386270D01*
X172012859Y-84633994D01*
X172012859Y-84634005D01*
X169672000Y-84634005D01*
X169672000Y-80823362D01*
X169691685Y-80756323D01*
X169708319Y-80735681D01*
X170651681Y-79792319D01*
X170713004Y-79758834D01*
X170739362Y-79756000D01*
X198636823Y-79756000D01*
X198703862Y-79775685D01*
G37*
G04 #@! TD.AperFunction*
G04 #@! TA.AperFunction,Conductor*
G36*
X219653039Y-87903685D02*
G01*
X219698794Y-87956489D01*
X219710000Y-88008000D01*
X219710000Y-100714000D01*
X219690315Y-100781039D01*
X219637511Y-100826794D01*
X219586000Y-100838000D01*
X212976000Y-100838000D01*
X212908961Y-100818315D01*
X212863206Y-100765511D01*
X212852000Y-100714000D01*
X212852000Y-88008000D01*
X212871685Y-87940961D01*
X212924489Y-87895206D01*
X212976000Y-87884000D01*
X219586000Y-87884000D01*
X219653039Y-87903685D01*
G37*
G04 #@! TD.AperFunction*
M02*
