%TF.GenerationSoftware,KiCad,Pcbnew,7.0.7*%
%TF.CreationDate,2023-12-28T09:22:00+02:00*%
%TF.ProjectId,LED Dimmer,4c454420-4469-46d6-9d65-722e6b696361,rev?*%
%TF.SameCoordinates,Original*%
%TF.FileFunction,Drillmap*%
%TF.FilePolarity,Positive*%
%FSLAX45Y45*%
G04 Gerber Fmt 4.5, Leading zero omitted, Abs format (unit mm)*
G04 Created by KiCad (PCBNEW 7.0.7) date 2023-12-28 09:22:00*
%MOMM*%
%LPD*%
G01*
G04 APERTURE LIST*
%ADD10C,0.100000*%
%ADD11C,0.200000*%
%ADD12C,0.040000*%
%ADD13C,0.080000*%
%ADD14C,0.110000*%
%ADD15C,0.152000*%
G04 APERTURE END LIST*
D10*
X24333200Y-13157200D02*
X16865600Y-13157200D01*
X16865600Y-7797800D01*
X24333200Y-7797800D01*
X24333200Y-13157200D01*
D11*
D12*
X17531400Y-10470200D02*
X17571400Y-10510200D01*
X17571400Y-10470200D02*
X17531400Y-10510200D01*
X17531400Y-10851200D02*
X17571400Y-10891200D01*
X17571400Y-10851200D02*
X17531400Y-10891200D01*
X17531400Y-11232200D02*
X17571400Y-11272200D01*
X17571400Y-11232200D02*
X17531400Y-11272200D01*
X17531400Y-11613200D02*
X17571400Y-11653200D01*
X17571400Y-11613200D02*
X17531400Y-11653200D01*
X18649000Y-9784400D02*
X18689000Y-9824400D01*
X18689000Y-9784400D02*
X18649000Y-9824400D01*
X19004600Y-8285800D02*
X19044600Y-8325800D01*
X19044600Y-8285800D02*
X19004600Y-8325800D01*
X19157000Y-8285800D02*
X19197000Y-8325800D01*
X19197000Y-8285800D02*
X19157000Y-8325800D01*
X19284000Y-8285800D02*
X19324000Y-8325800D01*
X19324000Y-8285800D02*
X19284000Y-8325800D01*
X19436400Y-8285800D02*
X19476400Y-8325800D01*
X19476400Y-8285800D02*
X19436400Y-8325800D01*
X19436400Y-8692200D02*
X19476400Y-8732200D01*
X19476400Y-8692200D02*
X19436400Y-8732200D01*
X19588800Y-8235000D02*
X19628800Y-8275000D01*
X19628800Y-8235000D02*
X19588800Y-8275000D01*
X19588800Y-8336600D02*
X19628800Y-8376600D01*
X19628800Y-8336600D02*
X19588800Y-8376600D01*
X19792000Y-8108000D02*
X19832000Y-8148000D01*
X19832000Y-8108000D02*
X19792000Y-8148000D01*
X19919000Y-9657400D02*
X19959000Y-9697400D01*
X19959000Y-9657400D02*
X19919000Y-9697400D01*
X20071400Y-9047800D02*
X20111400Y-9087800D01*
X20111400Y-9047800D02*
X20071400Y-9087800D01*
X20708400Y-9275000D02*
X20748400Y-9315000D01*
X20748400Y-9275000D02*
X20708400Y-9315000D01*
X20935000Y-9276400D02*
X20975000Y-9316400D01*
X20975000Y-9276400D02*
X20935000Y-9316400D01*
X20937000Y-8894000D02*
X20977000Y-8934000D01*
X20977000Y-8894000D02*
X20937000Y-8934000D01*
X21062000Y-10673400D02*
X21102000Y-10713400D01*
X21102000Y-10673400D02*
X21062000Y-10713400D01*
X21112800Y-9403400D02*
X21152800Y-9443400D01*
X21152800Y-9403400D02*
X21112800Y-9443400D01*
X21519200Y-8870000D02*
X21559200Y-8910000D01*
X21559200Y-8870000D02*
X21519200Y-8910000D01*
X21519200Y-8971600D02*
X21559200Y-9011600D01*
X21559200Y-8971600D02*
X21519200Y-9011600D01*
X21519200Y-9200200D02*
X21559200Y-9240200D01*
X21559200Y-9200200D02*
X21519200Y-9240200D01*
X21519200Y-9327200D02*
X21559200Y-9367200D01*
X21559200Y-9327200D02*
X21519200Y-9367200D01*
X21519200Y-9454200D02*
X21559200Y-9494200D01*
X21559200Y-9454200D02*
X21519200Y-9494200D01*
X21671600Y-8870000D02*
X21711600Y-8910000D01*
X21711600Y-8870000D02*
X21671600Y-8910000D01*
X21671600Y-8971600D02*
X21711600Y-9011600D01*
X21711600Y-8971600D02*
X21671600Y-9011600D01*
X21671600Y-9200200D02*
X21711600Y-9240200D01*
X21711600Y-9200200D02*
X21671600Y-9240200D01*
X21671600Y-9327200D02*
X21711600Y-9367200D01*
X21711600Y-9327200D02*
X21671600Y-9367200D01*
X21671600Y-9454200D02*
X21711600Y-9494200D01*
X21711600Y-9454200D02*
X21671600Y-9494200D01*
X21824000Y-9200200D02*
X21864000Y-9240200D01*
X21864000Y-9200200D02*
X21824000Y-9240200D01*
X21824000Y-9327200D02*
X21864000Y-9367200D01*
X21864000Y-9327200D02*
X21824000Y-9367200D01*
X21824000Y-9454200D02*
X21864000Y-9494200D01*
X21864000Y-9454200D02*
X21824000Y-9494200D01*
X22560600Y-9073200D02*
X22600600Y-9113200D01*
X22600600Y-9073200D02*
X22560600Y-9113200D01*
X22560600Y-9251000D02*
X22600600Y-9291000D01*
X22600600Y-9251000D02*
X22560600Y-9291000D01*
X22560600Y-9428800D02*
X22600600Y-9468800D01*
X22600600Y-9428800D02*
X22560600Y-9468800D01*
X22560600Y-9606600D02*
X22600600Y-9646600D01*
X22600600Y-9606600D02*
X22560600Y-9646600D01*
X22560600Y-9784400D02*
X22600600Y-9824400D01*
X22600600Y-9784400D02*
X22560600Y-9824400D01*
X22763800Y-9073200D02*
X22803800Y-9113200D01*
X22803800Y-9073200D02*
X22763800Y-9113200D01*
X22763800Y-9251000D02*
X22803800Y-9291000D01*
X22803800Y-9251000D02*
X22763800Y-9291000D01*
X22763800Y-9428800D02*
X22803800Y-9468800D01*
X22803800Y-9428800D02*
X22763800Y-9468800D01*
X22763800Y-9784400D02*
X22803800Y-9824400D01*
X22803800Y-9784400D02*
X22763800Y-9824400D01*
X22763800Y-10114600D02*
X22803800Y-10154600D01*
X22803800Y-10114600D02*
X22763800Y-10154600D01*
X22763800Y-10292400D02*
X22803800Y-10332400D01*
X22803800Y-10292400D02*
X22763800Y-10332400D01*
X22967000Y-9073200D02*
X23007000Y-9113200D01*
X23007000Y-9073200D02*
X22967000Y-9113200D01*
X22967000Y-9251000D02*
X23007000Y-9291000D01*
X23007000Y-9251000D02*
X22967000Y-9291000D01*
X22967000Y-9428800D02*
X23007000Y-9468800D01*
X23007000Y-9428800D02*
X22967000Y-9468800D01*
X22967000Y-9784400D02*
X23007000Y-9824400D01*
X23007000Y-9784400D02*
X22967000Y-9824400D01*
X22967000Y-10114600D02*
X23007000Y-10154600D01*
X23007000Y-10114600D02*
X22967000Y-10154600D01*
X22967000Y-10292400D02*
X23007000Y-10332400D01*
X23007000Y-10292400D02*
X22967000Y-10332400D01*
X23170200Y-9073200D02*
X23210200Y-9113200D01*
X23210200Y-9073200D02*
X23170200Y-9113200D01*
X23170200Y-9251000D02*
X23210200Y-9291000D01*
X23210200Y-9251000D02*
X23170200Y-9291000D01*
X23170200Y-9428800D02*
X23210200Y-9468800D01*
X23210200Y-9428800D02*
X23170200Y-9468800D01*
X23170200Y-9784400D02*
X23210200Y-9824400D01*
X23210200Y-9784400D02*
X23170200Y-9824400D01*
X23170200Y-10114600D02*
X23210200Y-10154600D01*
X23210200Y-10114600D02*
X23170200Y-10154600D01*
X23170200Y-10292400D02*
X23210200Y-10332400D01*
X23210200Y-10292400D02*
X23170200Y-10332400D01*
X23373400Y-9073200D02*
X23413400Y-9113200D01*
X23413400Y-9073200D02*
X23373400Y-9113200D01*
X23373400Y-9251000D02*
X23413400Y-9291000D01*
X23413400Y-9251000D02*
X23373400Y-9291000D01*
X23373400Y-9428800D02*
X23413400Y-9468800D01*
X23413400Y-9428800D02*
X23373400Y-9468800D01*
X23373400Y-9784400D02*
X23413400Y-9824400D01*
X23413400Y-9784400D02*
X23373400Y-9824400D01*
X23373400Y-10114600D02*
X23413400Y-10154600D01*
X23413400Y-10114600D02*
X23373400Y-10154600D01*
X23424200Y-10775000D02*
X23464200Y-10815000D01*
X23464200Y-10775000D02*
X23424200Y-10815000D01*
X23424200Y-11003600D02*
X23464200Y-11043600D01*
X23464200Y-11003600D02*
X23424200Y-11043600D01*
X23424200Y-11232200D02*
X23464200Y-11272200D01*
X23464200Y-11232200D02*
X23424200Y-11272200D01*
X23424200Y-11460800D02*
X23464200Y-11500800D01*
X23464200Y-11460800D02*
X23424200Y-11500800D01*
X23424200Y-11689400D02*
X23464200Y-11729400D01*
X23464200Y-11689400D02*
X23424200Y-11729400D01*
X23424200Y-11918000D02*
X23464200Y-11958000D01*
X23464200Y-11918000D02*
X23424200Y-11958000D01*
X23576600Y-10114600D02*
X23616600Y-10154600D01*
X23616600Y-10114600D02*
X23576600Y-10154600D01*
X23576600Y-11918000D02*
X23616600Y-11958000D01*
X23616600Y-11918000D02*
X23576600Y-11958000D01*
X23779800Y-9403400D02*
X23819800Y-9443400D01*
X23819800Y-9403400D02*
X23779800Y-9443400D01*
X23779800Y-9581200D02*
X23819800Y-9621200D01*
X23819800Y-9581200D02*
X23779800Y-9621200D01*
X23779800Y-9759000D02*
X23819800Y-9799000D01*
X23819800Y-9759000D02*
X23779800Y-9799000D01*
X23779800Y-9936800D02*
X23819800Y-9976800D01*
X23819800Y-9936800D02*
X23779800Y-9976800D01*
X23779800Y-10114600D02*
X23819800Y-10154600D01*
X23819800Y-10114600D02*
X23779800Y-10154600D01*
X23779800Y-10292400D02*
X23819800Y-10332400D01*
X23819800Y-10292400D02*
X23779800Y-10332400D01*
X23779800Y-11918000D02*
X23819800Y-11958000D01*
X23819800Y-11918000D02*
X23779800Y-11958000D01*
X23983000Y-9403400D02*
X24023000Y-9443400D01*
X24023000Y-9403400D02*
X23983000Y-9443400D01*
X23983000Y-9581200D02*
X24023000Y-9621200D01*
X24023000Y-9581200D02*
X23983000Y-9621200D01*
X23983000Y-9759000D02*
X24023000Y-9799000D01*
X24023000Y-9759000D02*
X23983000Y-9799000D01*
X23983000Y-9936800D02*
X24023000Y-9976800D01*
X24023000Y-9936800D02*
X23983000Y-9976800D01*
X23983000Y-10114600D02*
X24023000Y-10154600D01*
X24023000Y-10114600D02*
X23983000Y-10154600D01*
X23983000Y-10292400D02*
X24023000Y-10332400D01*
X24023000Y-10292400D02*
X23983000Y-10332400D01*
X23983000Y-10470200D02*
X24023000Y-10510200D01*
X24023000Y-10470200D02*
X23983000Y-10510200D01*
X23983000Y-11003600D02*
X24023000Y-11043600D01*
X24023000Y-11003600D02*
X23983000Y-11043600D01*
X23983000Y-11460800D02*
X24023000Y-11500800D01*
X24023000Y-11460800D02*
X23983000Y-11500800D01*
X23983000Y-11689400D02*
X24023000Y-11729400D01*
X24023000Y-11689400D02*
X23983000Y-11729400D01*
X23983000Y-11918000D02*
X24023000Y-11958000D01*
X24023000Y-11918000D02*
X23983000Y-11958000D01*
D13*
X18989400Y-9017500D02*
G75*
G03*
X18989400Y-9017500I-40000J0D01*
G01*
X18989400Y-9271500D02*
G75*
G03*
X18989400Y-9271500I-40000J0D01*
G01*
X18989400Y-9525500D02*
G75*
G03*
X18989400Y-9525500I-40000J0D01*
G01*
X18989400Y-9779500D02*
G75*
G03*
X18989400Y-9779500I-40000J0D01*
G01*
X18989400Y-10033500D02*
G75*
G03*
X18989400Y-10033500I-40000J0D01*
G01*
X18989400Y-10287500D02*
G75*
G03*
X18989400Y-10287500I-40000J0D01*
G01*
X18989400Y-10541500D02*
G75*
G03*
X18989400Y-10541500I-40000J0D01*
G01*
X18989400Y-10795500D02*
G75*
G03*
X18989400Y-10795500I-40000J0D01*
G01*
X18989400Y-11049500D02*
G75*
G03*
X18989400Y-11049500I-40000J0D01*
G01*
X18989400Y-11303500D02*
G75*
G03*
X18989400Y-11303500I-40000J0D01*
G01*
X19751400Y-9017500D02*
G75*
G03*
X19751400Y-9017500I-40000J0D01*
G01*
X19751400Y-9271500D02*
G75*
G03*
X19751400Y-9271500I-40000J0D01*
G01*
X19751400Y-9525500D02*
G75*
G03*
X19751400Y-9525500I-40000J0D01*
G01*
X19751400Y-9779500D02*
G75*
G03*
X19751400Y-9779500I-40000J0D01*
G01*
X19751400Y-10033500D02*
G75*
G03*
X19751400Y-10033500I-40000J0D01*
G01*
X19751400Y-10287500D02*
G75*
G03*
X19751400Y-10287500I-40000J0D01*
G01*
X19751400Y-10541500D02*
G75*
G03*
X19751400Y-10541500I-40000J0D01*
G01*
X19751400Y-10795500D02*
G75*
G03*
X19751400Y-10795500I-40000J0D01*
G01*
X19751400Y-11049500D02*
G75*
G03*
X19751400Y-11049500I-40000J0D01*
G01*
X19751400Y-11303500D02*
G75*
G03*
X19751400Y-11303500I-40000J0D01*
G01*
D10*
X18389600Y-8433600D02*
X18389600Y-8533600D01*
X18339600Y-8483600D02*
X18439600Y-8483600D01*
X18389600Y-8687600D02*
X18389600Y-8787600D01*
X18339600Y-8737600D02*
X18439600Y-8737600D01*
X18389600Y-8941600D02*
X18389600Y-9041600D01*
X18339600Y-8991600D02*
X18439600Y-8991600D01*
X18389600Y-9195600D02*
X18389600Y-9295600D01*
X18339600Y-9245600D02*
X18439600Y-9245600D01*
D14*
X17390691Y-8502291D02*
X17390691Y-8424509D01*
X17312909Y-8424509D01*
X17312909Y-8502291D01*
X17390691Y-8502291D01*
X17390691Y-9152291D02*
X17390691Y-9074509D01*
X17312909Y-9074509D01*
X17312909Y-9152291D01*
X17390691Y-9152291D01*
X17840691Y-8502291D02*
X17840691Y-8424509D01*
X17762909Y-8424509D01*
X17762909Y-8502291D01*
X17840691Y-8502291D01*
X17840691Y-9152291D02*
X17840691Y-9074509D01*
X17762909Y-9074509D01*
X17762909Y-9152291D01*
X17840691Y-9152291D01*
X17956291Y-12183691D02*
X17956291Y-12105909D01*
X17878509Y-12105909D01*
X17878509Y-12183691D01*
X17956291Y-12183691D01*
X17956291Y-12633691D02*
X17956291Y-12555909D01*
X17878509Y-12555909D01*
X17878509Y-12633691D01*
X17956291Y-12633691D01*
X18606291Y-12183691D02*
X18606291Y-12105909D01*
X18528509Y-12105909D01*
X18528509Y-12183691D01*
X18606291Y-12183691D01*
X18606291Y-12633691D02*
X18606291Y-12555909D01*
X18528509Y-12555909D01*
X18528509Y-12633691D01*
X18606291Y-12633691D01*
X19023091Y-12187291D02*
X19023091Y-12109509D01*
X18945309Y-12109509D01*
X18945309Y-12187291D01*
X19023091Y-12187291D01*
X19023091Y-12637291D02*
X19023091Y-12559509D01*
X18945309Y-12559509D01*
X18945309Y-12637291D01*
X19023091Y-12637291D01*
X19673091Y-12187291D02*
X19673091Y-12109509D01*
X19595309Y-12109509D01*
X19595309Y-12187291D01*
X19673091Y-12187291D01*
X19673091Y-12637291D02*
X19673091Y-12559509D01*
X19595309Y-12559509D01*
X19595309Y-12637291D01*
X19673091Y-12637291D01*
X20095091Y-12183691D02*
X20095091Y-12105909D01*
X20017309Y-12105909D01*
X20017309Y-12183691D01*
X20095091Y-12183691D01*
X20095091Y-12633691D02*
X20095091Y-12555909D01*
X20017309Y-12555909D01*
X20017309Y-12633691D01*
X20095091Y-12633691D01*
X20745091Y-12183691D02*
X20745091Y-12105909D01*
X20667309Y-12105909D01*
X20667309Y-12183691D01*
X20745091Y-12183691D01*
X20745091Y-12633691D02*
X20745091Y-12555909D01*
X20667309Y-12555909D01*
X20667309Y-12633691D01*
X20745091Y-12633691D01*
X21176891Y-12183691D02*
X21176891Y-12105909D01*
X21099109Y-12105909D01*
X21099109Y-12183691D01*
X21176891Y-12183691D01*
X21176891Y-12633691D02*
X21176891Y-12555909D01*
X21099109Y-12555909D01*
X21099109Y-12633691D01*
X21176891Y-12633691D01*
X21826891Y-12183691D02*
X21826891Y-12105909D01*
X21749109Y-12105909D01*
X21749109Y-12183691D01*
X21826891Y-12183691D01*
X21826891Y-12633691D02*
X21826891Y-12555909D01*
X21749109Y-12555909D01*
X21749109Y-12633691D01*
X21826891Y-12633691D01*
D15*
X23719000Y-8655400D02*
X23795000Y-8579400D01*
X23719000Y-8503400D01*
X23643000Y-8579400D01*
X23719000Y-8655400D01*
X23719000Y-9163400D02*
X23795000Y-9087400D01*
X23719000Y-9011400D01*
X23643000Y-9087400D01*
X23719000Y-9163400D01*
X23719000Y-11170000D02*
X23795000Y-11094000D01*
X23719000Y-11018000D01*
X23643000Y-11094000D01*
X23719000Y-11170000D01*
X23719000Y-11678000D02*
X23795000Y-11602000D01*
X23719000Y-11526000D01*
X23643000Y-11602000D01*
X23719000Y-11678000D01*
D11*
X17121377Y-13473684D02*
X17121377Y-13273684D01*
X17121377Y-13273684D02*
X17168996Y-13273684D01*
X17168996Y-13273684D02*
X17197567Y-13283208D01*
X17197567Y-13283208D02*
X17216615Y-13302255D01*
X17216615Y-13302255D02*
X17226139Y-13321303D01*
X17226139Y-13321303D02*
X17235663Y-13359398D01*
X17235663Y-13359398D02*
X17235663Y-13387969D01*
X17235663Y-13387969D02*
X17226139Y-13426065D01*
X17226139Y-13426065D02*
X17216615Y-13445112D01*
X17216615Y-13445112D02*
X17197567Y-13464160D01*
X17197567Y-13464160D02*
X17168996Y-13473684D01*
X17168996Y-13473684D02*
X17121377Y-13473684D01*
X17321377Y-13473684D02*
X17321377Y-13340350D01*
X17321377Y-13378446D02*
X17330901Y-13359398D01*
X17330901Y-13359398D02*
X17340424Y-13349874D01*
X17340424Y-13349874D02*
X17359472Y-13340350D01*
X17359472Y-13340350D02*
X17378520Y-13340350D01*
X17445186Y-13473684D02*
X17445186Y-13340350D01*
X17445186Y-13273684D02*
X17435663Y-13283208D01*
X17435663Y-13283208D02*
X17445186Y-13292731D01*
X17445186Y-13292731D02*
X17454710Y-13283208D01*
X17454710Y-13283208D02*
X17445186Y-13273684D01*
X17445186Y-13273684D02*
X17445186Y-13292731D01*
X17568996Y-13473684D02*
X17549948Y-13464160D01*
X17549948Y-13464160D02*
X17540424Y-13445112D01*
X17540424Y-13445112D02*
X17540424Y-13273684D01*
X17673758Y-13473684D02*
X17654710Y-13464160D01*
X17654710Y-13464160D02*
X17645186Y-13445112D01*
X17645186Y-13445112D02*
X17645186Y-13273684D01*
X17902329Y-13473684D02*
X17902329Y-13273684D01*
X17902329Y-13273684D02*
X17968996Y-13416541D01*
X17968996Y-13416541D02*
X18035663Y-13273684D01*
X18035663Y-13273684D02*
X18035663Y-13473684D01*
X18216615Y-13473684D02*
X18216615Y-13368922D01*
X18216615Y-13368922D02*
X18207091Y-13349874D01*
X18207091Y-13349874D02*
X18188044Y-13340350D01*
X18188044Y-13340350D02*
X18149948Y-13340350D01*
X18149948Y-13340350D02*
X18130901Y-13349874D01*
X18216615Y-13464160D02*
X18197567Y-13473684D01*
X18197567Y-13473684D02*
X18149948Y-13473684D01*
X18149948Y-13473684D02*
X18130901Y-13464160D01*
X18130901Y-13464160D02*
X18121377Y-13445112D01*
X18121377Y-13445112D02*
X18121377Y-13426065D01*
X18121377Y-13426065D02*
X18130901Y-13407017D01*
X18130901Y-13407017D02*
X18149948Y-13397493D01*
X18149948Y-13397493D02*
X18197567Y-13397493D01*
X18197567Y-13397493D02*
X18216615Y-13387969D01*
X18311853Y-13340350D02*
X18311853Y-13540350D01*
X18311853Y-13349874D02*
X18330901Y-13340350D01*
X18330901Y-13340350D02*
X18368996Y-13340350D01*
X18368996Y-13340350D02*
X18388044Y-13349874D01*
X18388044Y-13349874D02*
X18397567Y-13359398D01*
X18397567Y-13359398D02*
X18407091Y-13378446D01*
X18407091Y-13378446D02*
X18407091Y-13435588D01*
X18407091Y-13435588D02*
X18397567Y-13454636D01*
X18397567Y-13454636D02*
X18388044Y-13464160D01*
X18388044Y-13464160D02*
X18368996Y-13473684D01*
X18368996Y-13473684D02*
X18330901Y-13473684D01*
X18330901Y-13473684D02*
X18311853Y-13464160D01*
X18492805Y-13454636D02*
X18502329Y-13464160D01*
X18502329Y-13464160D02*
X18492805Y-13473684D01*
X18492805Y-13473684D02*
X18483282Y-13464160D01*
X18483282Y-13464160D02*
X18492805Y-13454636D01*
X18492805Y-13454636D02*
X18492805Y-13473684D01*
X18492805Y-13349874D02*
X18502329Y-13359398D01*
X18502329Y-13359398D02*
X18492805Y-13368922D01*
X18492805Y-13368922D02*
X18483282Y-13359398D01*
X18483282Y-13359398D02*
X18492805Y-13349874D01*
X18492805Y-13349874D02*
X18492805Y-13368922D01*
D12*
X16820600Y-13782200D02*
X16860600Y-13822200D01*
X16860600Y-13782200D02*
X16820600Y-13822200D01*
D11*
X17159472Y-13693684D02*
X17178520Y-13693684D01*
X17178520Y-13693684D02*
X17197567Y-13703208D01*
X17197567Y-13703208D02*
X17207091Y-13712731D01*
X17207091Y-13712731D02*
X17216615Y-13731779D01*
X17216615Y-13731779D02*
X17226139Y-13769874D01*
X17226139Y-13769874D02*
X17226139Y-13817493D01*
X17226139Y-13817493D02*
X17216615Y-13855588D01*
X17216615Y-13855588D02*
X17207091Y-13874636D01*
X17207091Y-13874636D02*
X17197567Y-13884160D01*
X17197567Y-13884160D02*
X17178520Y-13893684D01*
X17178520Y-13893684D02*
X17159472Y-13893684D01*
X17159472Y-13893684D02*
X17140424Y-13884160D01*
X17140424Y-13884160D02*
X17130901Y-13874636D01*
X17130901Y-13874636D02*
X17121377Y-13855588D01*
X17121377Y-13855588D02*
X17111853Y-13817493D01*
X17111853Y-13817493D02*
X17111853Y-13769874D01*
X17111853Y-13769874D02*
X17121377Y-13731779D01*
X17121377Y-13731779D02*
X17130901Y-13712731D01*
X17130901Y-13712731D02*
X17140424Y-13703208D01*
X17140424Y-13703208D02*
X17159472Y-13693684D01*
X17311853Y-13874636D02*
X17321377Y-13884160D01*
X17321377Y-13884160D02*
X17311853Y-13893684D01*
X17311853Y-13893684D02*
X17302329Y-13884160D01*
X17302329Y-13884160D02*
X17311853Y-13874636D01*
X17311853Y-13874636D02*
X17311853Y-13893684D01*
X17492805Y-13760350D02*
X17492805Y-13893684D01*
X17445186Y-13684160D02*
X17397567Y-13827017D01*
X17397567Y-13827017D02*
X17521377Y-13827017D01*
X17635663Y-13693684D02*
X17654710Y-13693684D01*
X17654710Y-13693684D02*
X17673758Y-13703208D01*
X17673758Y-13703208D02*
X17683282Y-13712731D01*
X17683282Y-13712731D02*
X17692805Y-13731779D01*
X17692805Y-13731779D02*
X17702329Y-13769874D01*
X17702329Y-13769874D02*
X17702329Y-13817493D01*
X17702329Y-13817493D02*
X17692805Y-13855588D01*
X17692805Y-13855588D02*
X17683282Y-13874636D01*
X17683282Y-13874636D02*
X17673758Y-13884160D01*
X17673758Y-13884160D02*
X17654710Y-13893684D01*
X17654710Y-13893684D02*
X17635663Y-13893684D01*
X17635663Y-13893684D02*
X17616615Y-13884160D01*
X17616615Y-13884160D02*
X17607091Y-13874636D01*
X17607091Y-13874636D02*
X17597567Y-13855588D01*
X17597567Y-13855588D02*
X17588044Y-13817493D01*
X17588044Y-13817493D02*
X17588044Y-13769874D01*
X17588044Y-13769874D02*
X17597567Y-13731779D01*
X17597567Y-13731779D02*
X17607091Y-13712731D01*
X17607091Y-13712731D02*
X17616615Y-13703208D01*
X17616615Y-13703208D02*
X17635663Y-13693684D01*
X17826139Y-13693684D02*
X17845186Y-13693684D01*
X17845186Y-13693684D02*
X17864234Y-13703208D01*
X17864234Y-13703208D02*
X17873758Y-13712731D01*
X17873758Y-13712731D02*
X17883282Y-13731779D01*
X17883282Y-13731779D02*
X17892805Y-13769874D01*
X17892805Y-13769874D02*
X17892805Y-13817493D01*
X17892805Y-13817493D02*
X17883282Y-13855588D01*
X17883282Y-13855588D02*
X17873758Y-13874636D01*
X17873758Y-13874636D02*
X17864234Y-13884160D01*
X17864234Y-13884160D02*
X17845186Y-13893684D01*
X17845186Y-13893684D02*
X17826139Y-13893684D01*
X17826139Y-13893684D02*
X17807091Y-13884160D01*
X17807091Y-13884160D02*
X17797567Y-13874636D01*
X17797567Y-13874636D02*
X17788044Y-13855588D01*
X17788044Y-13855588D02*
X17778520Y-13817493D01*
X17778520Y-13817493D02*
X17778520Y-13769874D01*
X17778520Y-13769874D02*
X17788044Y-13731779D01*
X17788044Y-13731779D02*
X17797567Y-13712731D01*
X17797567Y-13712731D02*
X17807091Y-13703208D01*
X17807091Y-13703208D02*
X17826139Y-13693684D01*
X17978520Y-13893684D02*
X17978520Y-13760350D01*
X17978520Y-13779398D02*
X17988044Y-13769874D01*
X17988044Y-13769874D02*
X18007091Y-13760350D01*
X18007091Y-13760350D02*
X18035663Y-13760350D01*
X18035663Y-13760350D02*
X18054710Y-13769874D01*
X18054710Y-13769874D02*
X18064234Y-13788922D01*
X18064234Y-13788922D02*
X18064234Y-13893684D01*
X18064234Y-13788922D02*
X18073758Y-13769874D01*
X18073758Y-13769874D02*
X18092805Y-13760350D01*
X18092805Y-13760350D02*
X18121377Y-13760350D01*
X18121377Y-13760350D02*
X18140425Y-13769874D01*
X18140425Y-13769874D02*
X18149948Y-13788922D01*
X18149948Y-13788922D02*
X18149948Y-13893684D01*
X18245186Y-13893684D02*
X18245186Y-13760350D01*
X18245186Y-13779398D02*
X18254710Y-13769874D01*
X18254710Y-13769874D02*
X18273758Y-13760350D01*
X18273758Y-13760350D02*
X18302329Y-13760350D01*
X18302329Y-13760350D02*
X18321377Y-13769874D01*
X18321377Y-13769874D02*
X18330901Y-13788922D01*
X18330901Y-13788922D02*
X18330901Y-13893684D01*
X18330901Y-13788922D02*
X18340425Y-13769874D01*
X18340425Y-13769874D02*
X18359472Y-13760350D01*
X18359472Y-13760350D02*
X18388044Y-13760350D01*
X18388044Y-13760350D02*
X18407091Y-13769874D01*
X18407091Y-13769874D02*
X18416615Y-13788922D01*
X18416615Y-13788922D02*
X18416615Y-13893684D01*
X18807091Y-13684160D02*
X18635663Y-13941303D01*
X19064234Y-13693684D02*
X19083282Y-13693684D01*
X19083282Y-13693684D02*
X19102329Y-13703208D01*
X19102329Y-13703208D02*
X19111853Y-13712731D01*
X19111853Y-13712731D02*
X19121377Y-13731779D01*
X19121377Y-13731779D02*
X19130901Y-13769874D01*
X19130901Y-13769874D02*
X19130901Y-13817493D01*
X19130901Y-13817493D02*
X19121377Y-13855588D01*
X19121377Y-13855588D02*
X19111853Y-13874636D01*
X19111853Y-13874636D02*
X19102329Y-13884160D01*
X19102329Y-13884160D02*
X19083282Y-13893684D01*
X19083282Y-13893684D02*
X19064234Y-13893684D01*
X19064234Y-13893684D02*
X19045187Y-13884160D01*
X19045187Y-13884160D02*
X19035663Y-13874636D01*
X19035663Y-13874636D02*
X19026139Y-13855588D01*
X19026139Y-13855588D02*
X19016615Y-13817493D01*
X19016615Y-13817493D02*
X19016615Y-13769874D01*
X19016615Y-13769874D02*
X19026139Y-13731779D01*
X19026139Y-13731779D02*
X19035663Y-13712731D01*
X19035663Y-13712731D02*
X19045187Y-13703208D01*
X19045187Y-13703208D02*
X19064234Y-13693684D01*
X19216615Y-13874636D02*
X19226139Y-13884160D01*
X19226139Y-13884160D02*
X19216615Y-13893684D01*
X19216615Y-13893684D02*
X19207091Y-13884160D01*
X19207091Y-13884160D02*
X19216615Y-13874636D01*
X19216615Y-13874636D02*
X19216615Y-13893684D01*
X19349948Y-13693684D02*
X19368996Y-13693684D01*
X19368996Y-13693684D02*
X19388044Y-13703208D01*
X19388044Y-13703208D02*
X19397568Y-13712731D01*
X19397568Y-13712731D02*
X19407091Y-13731779D01*
X19407091Y-13731779D02*
X19416615Y-13769874D01*
X19416615Y-13769874D02*
X19416615Y-13817493D01*
X19416615Y-13817493D02*
X19407091Y-13855588D01*
X19407091Y-13855588D02*
X19397568Y-13874636D01*
X19397568Y-13874636D02*
X19388044Y-13884160D01*
X19388044Y-13884160D02*
X19368996Y-13893684D01*
X19368996Y-13893684D02*
X19349948Y-13893684D01*
X19349948Y-13893684D02*
X19330901Y-13884160D01*
X19330901Y-13884160D02*
X19321377Y-13874636D01*
X19321377Y-13874636D02*
X19311853Y-13855588D01*
X19311853Y-13855588D02*
X19302329Y-13817493D01*
X19302329Y-13817493D02*
X19302329Y-13769874D01*
X19302329Y-13769874D02*
X19311853Y-13731779D01*
X19311853Y-13731779D02*
X19321377Y-13712731D01*
X19321377Y-13712731D02*
X19330901Y-13703208D01*
X19330901Y-13703208D02*
X19349948Y-13693684D01*
X19607091Y-13893684D02*
X19492806Y-13893684D01*
X19549948Y-13893684D02*
X19549948Y-13693684D01*
X19549948Y-13693684D02*
X19530901Y-13722255D01*
X19530901Y-13722255D02*
X19511853Y-13741303D01*
X19511853Y-13741303D02*
X19492806Y-13750827D01*
X19788044Y-13693684D02*
X19692806Y-13693684D01*
X19692806Y-13693684D02*
X19683282Y-13788922D01*
X19683282Y-13788922D02*
X19692806Y-13779398D01*
X19692806Y-13779398D02*
X19711853Y-13769874D01*
X19711853Y-13769874D02*
X19759472Y-13769874D01*
X19759472Y-13769874D02*
X19778520Y-13779398D01*
X19778520Y-13779398D02*
X19788044Y-13788922D01*
X19788044Y-13788922D02*
X19797568Y-13807969D01*
X19797568Y-13807969D02*
X19797568Y-13855588D01*
X19797568Y-13855588D02*
X19788044Y-13874636D01*
X19788044Y-13874636D02*
X19778520Y-13884160D01*
X19778520Y-13884160D02*
X19759472Y-13893684D01*
X19759472Y-13893684D02*
X19711853Y-13893684D01*
X19711853Y-13893684D02*
X19692806Y-13884160D01*
X19692806Y-13884160D02*
X19683282Y-13874636D01*
X19864234Y-13693684D02*
X19997568Y-13693684D01*
X19997568Y-13693684D02*
X19911853Y-13893684D01*
X20064234Y-13693684D02*
X20064234Y-13731779D01*
X20140425Y-13693684D02*
X20140425Y-13731779D01*
X20435663Y-13969874D02*
X20426139Y-13960350D01*
X20426139Y-13960350D02*
X20407091Y-13931779D01*
X20407091Y-13931779D02*
X20397568Y-13912731D01*
X20397568Y-13912731D02*
X20388044Y-13884160D01*
X20388044Y-13884160D02*
X20378520Y-13836541D01*
X20378520Y-13836541D02*
X20378520Y-13798446D01*
X20378520Y-13798446D02*
X20388044Y-13750827D01*
X20388044Y-13750827D02*
X20397568Y-13722255D01*
X20397568Y-13722255D02*
X20407091Y-13703208D01*
X20407091Y-13703208D02*
X20426139Y-13674636D01*
X20426139Y-13674636D02*
X20435663Y-13665112D01*
X20540425Y-13779398D02*
X20521377Y-13769874D01*
X20521377Y-13769874D02*
X20511853Y-13760350D01*
X20511853Y-13760350D02*
X20502330Y-13741303D01*
X20502330Y-13741303D02*
X20502330Y-13731779D01*
X20502330Y-13731779D02*
X20511853Y-13712731D01*
X20511853Y-13712731D02*
X20521377Y-13703208D01*
X20521377Y-13703208D02*
X20540425Y-13693684D01*
X20540425Y-13693684D02*
X20578520Y-13693684D01*
X20578520Y-13693684D02*
X20597568Y-13703208D01*
X20597568Y-13703208D02*
X20607091Y-13712731D01*
X20607091Y-13712731D02*
X20616615Y-13731779D01*
X20616615Y-13731779D02*
X20616615Y-13741303D01*
X20616615Y-13741303D02*
X20607091Y-13760350D01*
X20607091Y-13760350D02*
X20597568Y-13769874D01*
X20597568Y-13769874D02*
X20578520Y-13779398D01*
X20578520Y-13779398D02*
X20540425Y-13779398D01*
X20540425Y-13779398D02*
X20521377Y-13788922D01*
X20521377Y-13788922D02*
X20511853Y-13798446D01*
X20511853Y-13798446D02*
X20502330Y-13817493D01*
X20502330Y-13817493D02*
X20502330Y-13855588D01*
X20502330Y-13855588D02*
X20511853Y-13874636D01*
X20511853Y-13874636D02*
X20521377Y-13884160D01*
X20521377Y-13884160D02*
X20540425Y-13893684D01*
X20540425Y-13893684D02*
X20578520Y-13893684D01*
X20578520Y-13893684D02*
X20597568Y-13884160D01*
X20597568Y-13884160D02*
X20607091Y-13874636D01*
X20607091Y-13874636D02*
X20616615Y-13855588D01*
X20616615Y-13855588D02*
X20616615Y-13817493D01*
X20616615Y-13817493D02*
X20607091Y-13798446D01*
X20607091Y-13798446D02*
X20597568Y-13788922D01*
X20597568Y-13788922D02*
X20578520Y-13779398D01*
X20683282Y-13693684D02*
X20816615Y-13693684D01*
X20816615Y-13693684D02*
X20730901Y-13893684D01*
X21045187Y-13893684D02*
X21045187Y-13693684D01*
X21130901Y-13893684D02*
X21130901Y-13788922D01*
X21130901Y-13788922D02*
X21121377Y-13769874D01*
X21121377Y-13769874D02*
X21102330Y-13760350D01*
X21102330Y-13760350D02*
X21073758Y-13760350D01*
X21073758Y-13760350D02*
X21054711Y-13769874D01*
X21054711Y-13769874D02*
X21045187Y-13779398D01*
X21254711Y-13893684D02*
X21235663Y-13884160D01*
X21235663Y-13884160D02*
X21226139Y-13874636D01*
X21226139Y-13874636D02*
X21216615Y-13855588D01*
X21216615Y-13855588D02*
X21216615Y-13798446D01*
X21216615Y-13798446D02*
X21226139Y-13779398D01*
X21226139Y-13779398D02*
X21235663Y-13769874D01*
X21235663Y-13769874D02*
X21254711Y-13760350D01*
X21254711Y-13760350D02*
X21283282Y-13760350D01*
X21283282Y-13760350D02*
X21302330Y-13769874D01*
X21302330Y-13769874D02*
X21311853Y-13779398D01*
X21311853Y-13779398D02*
X21321377Y-13798446D01*
X21321377Y-13798446D02*
X21321377Y-13855588D01*
X21321377Y-13855588D02*
X21311853Y-13874636D01*
X21311853Y-13874636D02*
X21302330Y-13884160D01*
X21302330Y-13884160D02*
X21283282Y-13893684D01*
X21283282Y-13893684D02*
X21254711Y-13893684D01*
X21435663Y-13893684D02*
X21416615Y-13884160D01*
X21416615Y-13884160D02*
X21407092Y-13865112D01*
X21407092Y-13865112D02*
X21407092Y-13693684D01*
X21588044Y-13884160D02*
X21568996Y-13893684D01*
X21568996Y-13893684D02*
X21530901Y-13893684D01*
X21530901Y-13893684D02*
X21511853Y-13884160D01*
X21511853Y-13884160D02*
X21502330Y-13865112D01*
X21502330Y-13865112D02*
X21502330Y-13788922D01*
X21502330Y-13788922D02*
X21511853Y-13769874D01*
X21511853Y-13769874D02*
X21530901Y-13760350D01*
X21530901Y-13760350D02*
X21568996Y-13760350D01*
X21568996Y-13760350D02*
X21588044Y-13769874D01*
X21588044Y-13769874D02*
X21597568Y-13788922D01*
X21597568Y-13788922D02*
X21597568Y-13807969D01*
X21597568Y-13807969D02*
X21502330Y-13827017D01*
X21673758Y-13884160D02*
X21692806Y-13893684D01*
X21692806Y-13893684D02*
X21730901Y-13893684D01*
X21730901Y-13893684D02*
X21749949Y-13884160D01*
X21749949Y-13884160D02*
X21759473Y-13865112D01*
X21759473Y-13865112D02*
X21759473Y-13855588D01*
X21759473Y-13855588D02*
X21749949Y-13836541D01*
X21749949Y-13836541D02*
X21730901Y-13827017D01*
X21730901Y-13827017D02*
X21702330Y-13827017D01*
X21702330Y-13827017D02*
X21683282Y-13817493D01*
X21683282Y-13817493D02*
X21673758Y-13798446D01*
X21673758Y-13798446D02*
X21673758Y-13788922D01*
X21673758Y-13788922D02*
X21683282Y-13769874D01*
X21683282Y-13769874D02*
X21702330Y-13760350D01*
X21702330Y-13760350D02*
X21730901Y-13760350D01*
X21730901Y-13760350D02*
X21749949Y-13769874D01*
X21826139Y-13969874D02*
X21835663Y-13960350D01*
X21835663Y-13960350D02*
X21854711Y-13931779D01*
X21854711Y-13931779D02*
X21864234Y-13912731D01*
X21864234Y-13912731D02*
X21873758Y-13884160D01*
X21873758Y-13884160D02*
X21883282Y-13836541D01*
X21883282Y-13836541D02*
X21883282Y-13798446D01*
X21883282Y-13798446D02*
X21873758Y-13750827D01*
X21873758Y-13750827D02*
X21864234Y-13722255D01*
X21864234Y-13722255D02*
X21854711Y-13703208D01*
X21854711Y-13703208D02*
X21835663Y-13674636D01*
X21835663Y-13674636D02*
X21826139Y-13665112D01*
D13*
X16860600Y-14066200D02*
G75*
G03*
X16860600Y-14066200I-40000J0D01*
G01*
D11*
X17159472Y-13957684D02*
X17178520Y-13957684D01*
X17178520Y-13957684D02*
X17197567Y-13967208D01*
X17197567Y-13967208D02*
X17207091Y-13976731D01*
X17207091Y-13976731D02*
X17216615Y-13995779D01*
X17216615Y-13995779D02*
X17226139Y-14033874D01*
X17226139Y-14033874D02*
X17226139Y-14081493D01*
X17226139Y-14081493D02*
X17216615Y-14119588D01*
X17216615Y-14119588D02*
X17207091Y-14138636D01*
X17207091Y-14138636D02*
X17197567Y-14148160D01*
X17197567Y-14148160D02*
X17178520Y-14157684D01*
X17178520Y-14157684D02*
X17159472Y-14157684D01*
X17159472Y-14157684D02*
X17140424Y-14148160D01*
X17140424Y-14148160D02*
X17130901Y-14138636D01*
X17130901Y-14138636D02*
X17121377Y-14119588D01*
X17121377Y-14119588D02*
X17111853Y-14081493D01*
X17111853Y-14081493D02*
X17111853Y-14033874D01*
X17111853Y-14033874D02*
X17121377Y-13995779D01*
X17121377Y-13995779D02*
X17130901Y-13976731D01*
X17130901Y-13976731D02*
X17140424Y-13967208D01*
X17140424Y-13967208D02*
X17159472Y-13957684D01*
X17311853Y-14138636D02*
X17321377Y-14148160D01*
X17321377Y-14148160D02*
X17311853Y-14157684D01*
X17311853Y-14157684D02*
X17302329Y-14148160D01*
X17302329Y-14148160D02*
X17311853Y-14138636D01*
X17311853Y-14138636D02*
X17311853Y-14157684D01*
X17435663Y-14043398D02*
X17416615Y-14033874D01*
X17416615Y-14033874D02*
X17407091Y-14024350D01*
X17407091Y-14024350D02*
X17397567Y-14005303D01*
X17397567Y-14005303D02*
X17397567Y-13995779D01*
X17397567Y-13995779D02*
X17407091Y-13976731D01*
X17407091Y-13976731D02*
X17416615Y-13967208D01*
X17416615Y-13967208D02*
X17435663Y-13957684D01*
X17435663Y-13957684D02*
X17473758Y-13957684D01*
X17473758Y-13957684D02*
X17492805Y-13967208D01*
X17492805Y-13967208D02*
X17502329Y-13976731D01*
X17502329Y-13976731D02*
X17511853Y-13995779D01*
X17511853Y-13995779D02*
X17511853Y-14005303D01*
X17511853Y-14005303D02*
X17502329Y-14024350D01*
X17502329Y-14024350D02*
X17492805Y-14033874D01*
X17492805Y-14033874D02*
X17473758Y-14043398D01*
X17473758Y-14043398D02*
X17435663Y-14043398D01*
X17435663Y-14043398D02*
X17416615Y-14052922D01*
X17416615Y-14052922D02*
X17407091Y-14062446D01*
X17407091Y-14062446D02*
X17397567Y-14081493D01*
X17397567Y-14081493D02*
X17397567Y-14119588D01*
X17397567Y-14119588D02*
X17407091Y-14138636D01*
X17407091Y-14138636D02*
X17416615Y-14148160D01*
X17416615Y-14148160D02*
X17435663Y-14157684D01*
X17435663Y-14157684D02*
X17473758Y-14157684D01*
X17473758Y-14157684D02*
X17492805Y-14148160D01*
X17492805Y-14148160D02*
X17502329Y-14138636D01*
X17502329Y-14138636D02*
X17511853Y-14119588D01*
X17511853Y-14119588D02*
X17511853Y-14081493D01*
X17511853Y-14081493D02*
X17502329Y-14062446D01*
X17502329Y-14062446D02*
X17492805Y-14052922D01*
X17492805Y-14052922D02*
X17473758Y-14043398D01*
X17635663Y-13957684D02*
X17654710Y-13957684D01*
X17654710Y-13957684D02*
X17673758Y-13967208D01*
X17673758Y-13967208D02*
X17683282Y-13976731D01*
X17683282Y-13976731D02*
X17692805Y-13995779D01*
X17692805Y-13995779D02*
X17702329Y-14033874D01*
X17702329Y-14033874D02*
X17702329Y-14081493D01*
X17702329Y-14081493D02*
X17692805Y-14119588D01*
X17692805Y-14119588D02*
X17683282Y-14138636D01*
X17683282Y-14138636D02*
X17673758Y-14148160D01*
X17673758Y-14148160D02*
X17654710Y-14157684D01*
X17654710Y-14157684D02*
X17635663Y-14157684D01*
X17635663Y-14157684D02*
X17616615Y-14148160D01*
X17616615Y-14148160D02*
X17607091Y-14138636D01*
X17607091Y-14138636D02*
X17597567Y-14119588D01*
X17597567Y-14119588D02*
X17588044Y-14081493D01*
X17588044Y-14081493D02*
X17588044Y-14033874D01*
X17588044Y-14033874D02*
X17597567Y-13995779D01*
X17597567Y-13995779D02*
X17607091Y-13976731D01*
X17607091Y-13976731D02*
X17616615Y-13967208D01*
X17616615Y-13967208D02*
X17635663Y-13957684D01*
X17826139Y-13957684D02*
X17845186Y-13957684D01*
X17845186Y-13957684D02*
X17864234Y-13967208D01*
X17864234Y-13967208D02*
X17873758Y-13976731D01*
X17873758Y-13976731D02*
X17883282Y-13995779D01*
X17883282Y-13995779D02*
X17892805Y-14033874D01*
X17892805Y-14033874D02*
X17892805Y-14081493D01*
X17892805Y-14081493D02*
X17883282Y-14119588D01*
X17883282Y-14119588D02*
X17873758Y-14138636D01*
X17873758Y-14138636D02*
X17864234Y-14148160D01*
X17864234Y-14148160D02*
X17845186Y-14157684D01*
X17845186Y-14157684D02*
X17826139Y-14157684D01*
X17826139Y-14157684D02*
X17807091Y-14148160D01*
X17807091Y-14148160D02*
X17797567Y-14138636D01*
X17797567Y-14138636D02*
X17788044Y-14119588D01*
X17788044Y-14119588D02*
X17778520Y-14081493D01*
X17778520Y-14081493D02*
X17778520Y-14033874D01*
X17778520Y-14033874D02*
X17788044Y-13995779D01*
X17788044Y-13995779D02*
X17797567Y-13976731D01*
X17797567Y-13976731D02*
X17807091Y-13967208D01*
X17807091Y-13967208D02*
X17826139Y-13957684D01*
X17978520Y-14157684D02*
X17978520Y-14024350D01*
X17978520Y-14043398D02*
X17988044Y-14033874D01*
X17988044Y-14033874D02*
X18007091Y-14024350D01*
X18007091Y-14024350D02*
X18035663Y-14024350D01*
X18035663Y-14024350D02*
X18054710Y-14033874D01*
X18054710Y-14033874D02*
X18064234Y-14052922D01*
X18064234Y-14052922D02*
X18064234Y-14157684D01*
X18064234Y-14052922D02*
X18073758Y-14033874D01*
X18073758Y-14033874D02*
X18092805Y-14024350D01*
X18092805Y-14024350D02*
X18121377Y-14024350D01*
X18121377Y-14024350D02*
X18140425Y-14033874D01*
X18140425Y-14033874D02*
X18149948Y-14052922D01*
X18149948Y-14052922D02*
X18149948Y-14157684D01*
X18245186Y-14157684D02*
X18245186Y-14024350D01*
X18245186Y-14043398D02*
X18254710Y-14033874D01*
X18254710Y-14033874D02*
X18273758Y-14024350D01*
X18273758Y-14024350D02*
X18302329Y-14024350D01*
X18302329Y-14024350D02*
X18321377Y-14033874D01*
X18321377Y-14033874D02*
X18330901Y-14052922D01*
X18330901Y-14052922D02*
X18330901Y-14157684D01*
X18330901Y-14052922D02*
X18340425Y-14033874D01*
X18340425Y-14033874D02*
X18359472Y-14024350D01*
X18359472Y-14024350D02*
X18388044Y-14024350D01*
X18388044Y-14024350D02*
X18407091Y-14033874D01*
X18407091Y-14033874D02*
X18416615Y-14052922D01*
X18416615Y-14052922D02*
X18416615Y-14157684D01*
X18807091Y-13948160D02*
X18635663Y-14205303D01*
X19064234Y-13957684D02*
X19083282Y-13957684D01*
X19083282Y-13957684D02*
X19102329Y-13967208D01*
X19102329Y-13967208D02*
X19111853Y-13976731D01*
X19111853Y-13976731D02*
X19121377Y-13995779D01*
X19121377Y-13995779D02*
X19130901Y-14033874D01*
X19130901Y-14033874D02*
X19130901Y-14081493D01*
X19130901Y-14081493D02*
X19121377Y-14119588D01*
X19121377Y-14119588D02*
X19111853Y-14138636D01*
X19111853Y-14138636D02*
X19102329Y-14148160D01*
X19102329Y-14148160D02*
X19083282Y-14157684D01*
X19083282Y-14157684D02*
X19064234Y-14157684D01*
X19064234Y-14157684D02*
X19045187Y-14148160D01*
X19045187Y-14148160D02*
X19035663Y-14138636D01*
X19035663Y-14138636D02*
X19026139Y-14119588D01*
X19026139Y-14119588D02*
X19016615Y-14081493D01*
X19016615Y-14081493D02*
X19016615Y-14033874D01*
X19016615Y-14033874D02*
X19026139Y-13995779D01*
X19026139Y-13995779D02*
X19035663Y-13976731D01*
X19035663Y-13976731D02*
X19045187Y-13967208D01*
X19045187Y-13967208D02*
X19064234Y-13957684D01*
X19216615Y-14138636D02*
X19226139Y-14148160D01*
X19226139Y-14148160D02*
X19216615Y-14157684D01*
X19216615Y-14157684D02*
X19207091Y-14148160D01*
X19207091Y-14148160D02*
X19216615Y-14138636D01*
X19216615Y-14138636D02*
X19216615Y-14157684D01*
X19349948Y-13957684D02*
X19368996Y-13957684D01*
X19368996Y-13957684D02*
X19388044Y-13967208D01*
X19388044Y-13967208D02*
X19397568Y-13976731D01*
X19397568Y-13976731D02*
X19407091Y-13995779D01*
X19407091Y-13995779D02*
X19416615Y-14033874D01*
X19416615Y-14033874D02*
X19416615Y-14081493D01*
X19416615Y-14081493D02*
X19407091Y-14119588D01*
X19407091Y-14119588D02*
X19397568Y-14138636D01*
X19397568Y-14138636D02*
X19388044Y-14148160D01*
X19388044Y-14148160D02*
X19368996Y-14157684D01*
X19368996Y-14157684D02*
X19349948Y-14157684D01*
X19349948Y-14157684D02*
X19330901Y-14148160D01*
X19330901Y-14148160D02*
X19321377Y-14138636D01*
X19321377Y-14138636D02*
X19311853Y-14119588D01*
X19311853Y-14119588D02*
X19302329Y-14081493D01*
X19302329Y-14081493D02*
X19302329Y-14033874D01*
X19302329Y-14033874D02*
X19311853Y-13995779D01*
X19311853Y-13995779D02*
X19321377Y-13976731D01*
X19321377Y-13976731D02*
X19330901Y-13967208D01*
X19330901Y-13967208D02*
X19349948Y-13957684D01*
X19483282Y-13957684D02*
X19607091Y-13957684D01*
X19607091Y-13957684D02*
X19540425Y-14033874D01*
X19540425Y-14033874D02*
X19568996Y-14033874D01*
X19568996Y-14033874D02*
X19588044Y-14043398D01*
X19588044Y-14043398D02*
X19597568Y-14052922D01*
X19597568Y-14052922D02*
X19607091Y-14071969D01*
X19607091Y-14071969D02*
X19607091Y-14119588D01*
X19607091Y-14119588D02*
X19597568Y-14138636D01*
X19597568Y-14138636D02*
X19588044Y-14148160D01*
X19588044Y-14148160D02*
X19568996Y-14157684D01*
X19568996Y-14157684D02*
X19511853Y-14157684D01*
X19511853Y-14157684D02*
X19492806Y-14148160D01*
X19492806Y-14148160D02*
X19483282Y-14138636D01*
X19797568Y-14157684D02*
X19683282Y-14157684D01*
X19740425Y-14157684D02*
X19740425Y-13957684D01*
X19740425Y-13957684D02*
X19721377Y-13986255D01*
X19721377Y-13986255D02*
X19702329Y-14005303D01*
X19702329Y-14005303D02*
X19683282Y-14014827D01*
X19978520Y-13957684D02*
X19883282Y-13957684D01*
X19883282Y-13957684D02*
X19873758Y-14052922D01*
X19873758Y-14052922D02*
X19883282Y-14043398D01*
X19883282Y-14043398D02*
X19902329Y-14033874D01*
X19902329Y-14033874D02*
X19949949Y-14033874D01*
X19949949Y-14033874D02*
X19968996Y-14043398D01*
X19968996Y-14043398D02*
X19978520Y-14052922D01*
X19978520Y-14052922D02*
X19988044Y-14071969D01*
X19988044Y-14071969D02*
X19988044Y-14119588D01*
X19988044Y-14119588D02*
X19978520Y-14138636D01*
X19978520Y-14138636D02*
X19968996Y-14148160D01*
X19968996Y-14148160D02*
X19949949Y-14157684D01*
X19949949Y-14157684D02*
X19902329Y-14157684D01*
X19902329Y-14157684D02*
X19883282Y-14148160D01*
X19883282Y-14148160D02*
X19873758Y-14138636D01*
X20064234Y-13957684D02*
X20064234Y-13995779D01*
X20140425Y-13957684D02*
X20140425Y-13995779D01*
X20435663Y-14233874D02*
X20426139Y-14224350D01*
X20426139Y-14224350D02*
X20407091Y-14195779D01*
X20407091Y-14195779D02*
X20397568Y-14176731D01*
X20397568Y-14176731D02*
X20388044Y-14148160D01*
X20388044Y-14148160D02*
X20378520Y-14100541D01*
X20378520Y-14100541D02*
X20378520Y-14062446D01*
X20378520Y-14062446D02*
X20388044Y-14014827D01*
X20388044Y-14014827D02*
X20397568Y-13986255D01*
X20397568Y-13986255D02*
X20407091Y-13967208D01*
X20407091Y-13967208D02*
X20426139Y-13938636D01*
X20426139Y-13938636D02*
X20435663Y-13929112D01*
X20502330Y-13976731D02*
X20511853Y-13967208D01*
X20511853Y-13967208D02*
X20530901Y-13957684D01*
X20530901Y-13957684D02*
X20578520Y-13957684D01*
X20578520Y-13957684D02*
X20597568Y-13967208D01*
X20597568Y-13967208D02*
X20607091Y-13976731D01*
X20607091Y-13976731D02*
X20616615Y-13995779D01*
X20616615Y-13995779D02*
X20616615Y-14014827D01*
X20616615Y-14014827D02*
X20607091Y-14043398D01*
X20607091Y-14043398D02*
X20492806Y-14157684D01*
X20492806Y-14157684D02*
X20616615Y-14157684D01*
X20740425Y-13957684D02*
X20759472Y-13957684D01*
X20759472Y-13957684D02*
X20778520Y-13967208D01*
X20778520Y-13967208D02*
X20788044Y-13976731D01*
X20788044Y-13976731D02*
X20797568Y-13995779D01*
X20797568Y-13995779D02*
X20807091Y-14033874D01*
X20807091Y-14033874D02*
X20807091Y-14081493D01*
X20807091Y-14081493D02*
X20797568Y-14119588D01*
X20797568Y-14119588D02*
X20788044Y-14138636D01*
X20788044Y-14138636D02*
X20778520Y-14148160D01*
X20778520Y-14148160D02*
X20759472Y-14157684D01*
X20759472Y-14157684D02*
X20740425Y-14157684D01*
X20740425Y-14157684D02*
X20721377Y-14148160D01*
X20721377Y-14148160D02*
X20711853Y-14138636D01*
X20711853Y-14138636D02*
X20702330Y-14119588D01*
X20702330Y-14119588D02*
X20692806Y-14081493D01*
X20692806Y-14081493D02*
X20692806Y-14033874D01*
X20692806Y-14033874D02*
X20702330Y-13995779D01*
X20702330Y-13995779D02*
X20711853Y-13976731D01*
X20711853Y-13976731D02*
X20721377Y-13967208D01*
X20721377Y-13967208D02*
X20740425Y-13957684D01*
X21045187Y-14157684D02*
X21045187Y-13957684D01*
X21130901Y-14157684D02*
X21130901Y-14052922D01*
X21130901Y-14052922D02*
X21121377Y-14033874D01*
X21121377Y-14033874D02*
X21102330Y-14024350D01*
X21102330Y-14024350D02*
X21073758Y-14024350D01*
X21073758Y-14024350D02*
X21054711Y-14033874D01*
X21054711Y-14033874D02*
X21045187Y-14043398D01*
X21254711Y-14157684D02*
X21235663Y-14148160D01*
X21235663Y-14148160D02*
X21226139Y-14138636D01*
X21226139Y-14138636D02*
X21216615Y-14119588D01*
X21216615Y-14119588D02*
X21216615Y-14062446D01*
X21216615Y-14062446D02*
X21226139Y-14043398D01*
X21226139Y-14043398D02*
X21235663Y-14033874D01*
X21235663Y-14033874D02*
X21254711Y-14024350D01*
X21254711Y-14024350D02*
X21283282Y-14024350D01*
X21283282Y-14024350D02*
X21302330Y-14033874D01*
X21302330Y-14033874D02*
X21311853Y-14043398D01*
X21311853Y-14043398D02*
X21321377Y-14062446D01*
X21321377Y-14062446D02*
X21321377Y-14119588D01*
X21321377Y-14119588D02*
X21311853Y-14138636D01*
X21311853Y-14138636D02*
X21302330Y-14148160D01*
X21302330Y-14148160D02*
X21283282Y-14157684D01*
X21283282Y-14157684D02*
X21254711Y-14157684D01*
X21435663Y-14157684D02*
X21416615Y-14148160D01*
X21416615Y-14148160D02*
X21407092Y-14129112D01*
X21407092Y-14129112D02*
X21407092Y-13957684D01*
X21588044Y-14148160D02*
X21568996Y-14157684D01*
X21568996Y-14157684D02*
X21530901Y-14157684D01*
X21530901Y-14157684D02*
X21511853Y-14148160D01*
X21511853Y-14148160D02*
X21502330Y-14129112D01*
X21502330Y-14129112D02*
X21502330Y-14052922D01*
X21502330Y-14052922D02*
X21511853Y-14033874D01*
X21511853Y-14033874D02*
X21530901Y-14024350D01*
X21530901Y-14024350D02*
X21568996Y-14024350D01*
X21568996Y-14024350D02*
X21588044Y-14033874D01*
X21588044Y-14033874D02*
X21597568Y-14052922D01*
X21597568Y-14052922D02*
X21597568Y-14071969D01*
X21597568Y-14071969D02*
X21502330Y-14091017D01*
X21673758Y-14148160D02*
X21692806Y-14157684D01*
X21692806Y-14157684D02*
X21730901Y-14157684D01*
X21730901Y-14157684D02*
X21749949Y-14148160D01*
X21749949Y-14148160D02*
X21759473Y-14129112D01*
X21759473Y-14129112D02*
X21759473Y-14119588D01*
X21759473Y-14119588D02*
X21749949Y-14100541D01*
X21749949Y-14100541D02*
X21730901Y-14091017D01*
X21730901Y-14091017D02*
X21702330Y-14091017D01*
X21702330Y-14091017D02*
X21683282Y-14081493D01*
X21683282Y-14081493D02*
X21673758Y-14062446D01*
X21673758Y-14062446D02*
X21673758Y-14052922D01*
X21673758Y-14052922D02*
X21683282Y-14033874D01*
X21683282Y-14033874D02*
X21702330Y-14024350D01*
X21702330Y-14024350D02*
X21730901Y-14024350D01*
X21730901Y-14024350D02*
X21749949Y-14033874D01*
X21826139Y-14233874D02*
X21835663Y-14224350D01*
X21835663Y-14224350D02*
X21854711Y-14195779D01*
X21854711Y-14195779D02*
X21864234Y-14176731D01*
X21864234Y-14176731D02*
X21873758Y-14148160D01*
X21873758Y-14148160D02*
X21883282Y-14100541D01*
X21883282Y-14100541D02*
X21883282Y-14062446D01*
X21883282Y-14062446D02*
X21873758Y-14014827D01*
X21873758Y-14014827D02*
X21864234Y-13986255D01*
X21864234Y-13986255D02*
X21854711Y-13967208D01*
X21854711Y-13967208D02*
X21835663Y-13938636D01*
X21835663Y-13938636D02*
X21826139Y-13929112D01*
D10*
X16810600Y-14280200D02*
X16810600Y-14380200D01*
X16760600Y-14330200D02*
X16860600Y-14330200D01*
D11*
X17226139Y-14421684D02*
X17111853Y-14421684D01*
X17168996Y-14421684D02*
X17168996Y-14221684D01*
X17168996Y-14221684D02*
X17149948Y-14250255D01*
X17149948Y-14250255D02*
X17130901Y-14269303D01*
X17130901Y-14269303D02*
X17111853Y-14278827D01*
X17311853Y-14402636D02*
X17321377Y-14412160D01*
X17321377Y-14412160D02*
X17311853Y-14421684D01*
X17311853Y-14421684D02*
X17302329Y-14412160D01*
X17302329Y-14412160D02*
X17311853Y-14402636D01*
X17311853Y-14402636D02*
X17311853Y-14421684D01*
X17445186Y-14221684D02*
X17464234Y-14221684D01*
X17464234Y-14221684D02*
X17483282Y-14231208D01*
X17483282Y-14231208D02*
X17492805Y-14240731D01*
X17492805Y-14240731D02*
X17502329Y-14259779D01*
X17502329Y-14259779D02*
X17511853Y-14297874D01*
X17511853Y-14297874D02*
X17511853Y-14345493D01*
X17511853Y-14345493D02*
X17502329Y-14383588D01*
X17502329Y-14383588D02*
X17492805Y-14402636D01*
X17492805Y-14402636D02*
X17483282Y-14412160D01*
X17483282Y-14412160D02*
X17464234Y-14421684D01*
X17464234Y-14421684D02*
X17445186Y-14421684D01*
X17445186Y-14421684D02*
X17426139Y-14412160D01*
X17426139Y-14412160D02*
X17416615Y-14402636D01*
X17416615Y-14402636D02*
X17407091Y-14383588D01*
X17407091Y-14383588D02*
X17397567Y-14345493D01*
X17397567Y-14345493D02*
X17397567Y-14297874D01*
X17397567Y-14297874D02*
X17407091Y-14259779D01*
X17407091Y-14259779D02*
X17416615Y-14240731D01*
X17416615Y-14240731D02*
X17426139Y-14231208D01*
X17426139Y-14231208D02*
X17445186Y-14221684D01*
X17635663Y-14221684D02*
X17654710Y-14221684D01*
X17654710Y-14221684D02*
X17673758Y-14231208D01*
X17673758Y-14231208D02*
X17683282Y-14240731D01*
X17683282Y-14240731D02*
X17692805Y-14259779D01*
X17692805Y-14259779D02*
X17702329Y-14297874D01*
X17702329Y-14297874D02*
X17702329Y-14345493D01*
X17702329Y-14345493D02*
X17692805Y-14383588D01*
X17692805Y-14383588D02*
X17683282Y-14402636D01*
X17683282Y-14402636D02*
X17673758Y-14412160D01*
X17673758Y-14412160D02*
X17654710Y-14421684D01*
X17654710Y-14421684D02*
X17635663Y-14421684D01*
X17635663Y-14421684D02*
X17616615Y-14412160D01*
X17616615Y-14412160D02*
X17607091Y-14402636D01*
X17607091Y-14402636D02*
X17597567Y-14383588D01*
X17597567Y-14383588D02*
X17588044Y-14345493D01*
X17588044Y-14345493D02*
X17588044Y-14297874D01*
X17588044Y-14297874D02*
X17597567Y-14259779D01*
X17597567Y-14259779D02*
X17607091Y-14240731D01*
X17607091Y-14240731D02*
X17616615Y-14231208D01*
X17616615Y-14231208D02*
X17635663Y-14221684D01*
X17826139Y-14221684D02*
X17845186Y-14221684D01*
X17845186Y-14221684D02*
X17864234Y-14231208D01*
X17864234Y-14231208D02*
X17873758Y-14240731D01*
X17873758Y-14240731D02*
X17883282Y-14259779D01*
X17883282Y-14259779D02*
X17892805Y-14297874D01*
X17892805Y-14297874D02*
X17892805Y-14345493D01*
X17892805Y-14345493D02*
X17883282Y-14383588D01*
X17883282Y-14383588D02*
X17873758Y-14402636D01*
X17873758Y-14402636D02*
X17864234Y-14412160D01*
X17864234Y-14412160D02*
X17845186Y-14421684D01*
X17845186Y-14421684D02*
X17826139Y-14421684D01*
X17826139Y-14421684D02*
X17807091Y-14412160D01*
X17807091Y-14412160D02*
X17797567Y-14402636D01*
X17797567Y-14402636D02*
X17788044Y-14383588D01*
X17788044Y-14383588D02*
X17778520Y-14345493D01*
X17778520Y-14345493D02*
X17778520Y-14297874D01*
X17778520Y-14297874D02*
X17788044Y-14259779D01*
X17788044Y-14259779D02*
X17797567Y-14240731D01*
X17797567Y-14240731D02*
X17807091Y-14231208D01*
X17807091Y-14231208D02*
X17826139Y-14221684D01*
X17978520Y-14421684D02*
X17978520Y-14288350D01*
X17978520Y-14307398D02*
X17988044Y-14297874D01*
X17988044Y-14297874D02*
X18007091Y-14288350D01*
X18007091Y-14288350D02*
X18035663Y-14288350D01*
X18035663Y-14288350D02*
X18054710Y-14297874D01*
X18054710Y-14297874D02*
X18064234Y-14316922D01*
X18064234Y-14316922D02*
X18064234Y-14421684D01*
X18064234Y-14316922D02*
X18073758Y-14297874D01*
X18073758Y-14297874D02*
X18092805Y-14288350D01*
X18092805Y-14288350D02*
X18121377Y-14288350D01*
X18121377Y-14288350D02*
X18140425Y-14297874D01*
X18140425Y-14297874D02*
X18149948Y-14316922D01*
X18149948Y-14316922D02*
X18149948Y-14421684D01*
X18245186Y-14421684D02*
X18245186Y-14288350D01*
X18245186Y-14307398D02*
X18254710Y-14297874D01*
X18254710Y-14297874D02*
X18273758Y-14288350D01*
X18273758Y-14288350D02*
X18302329Y-14288350D01*
X18302329Y-14288350D02*
X18321377Y-14297874D01*
X18321377Y-14297874D02*
X18330901Y-14316922D01*
X18330901Y-14316922D02*
X18330901Y-14421684D01*
X18330901Y-14316922D02*
X18340425Y-14297874D01*
X18340425Y-14297874D02*
X18359472Y-14288350D01*
X18359472Y-14288350D02*
X18388044Y-14288350D01*
X18388044Y-14288350D02*
X18407091Y-14297874D01*
X18407091Y-14297874D02*
X18416615Y-14316922D01*
X18416615Y-14316922D02*
X18416615Y-14421684D01*
X18807091Y-14212160D02*
X18635663Y-14469303D01*
X19064234Y-14221684D02*
X19083282Y-14221684D01*
X19083282Y-14221684D02*
X19102329Y-14231208D01*
X19102329Y-14231208D02*
X19111853Y-14240731D01*
X19111853Y-14240731D02*
X19121377Y-14259779D01*
X19121377Y-14259779D02*
X19130901Y-14297874D01*
X19130901Y-14297874D02*
X19130901Y-14345493D01*
X19130901Y-14345493D02*
X19121377Y-14383588D01*
X19121377Y-14383588D02*
X19111853Y-14402636D01*
X19111853Y-14402636D02*
X19102329Y-14412160D01*
X19102329Y-14412160D02*
X19083282Y-14421684D01*
X19083282Y-14421684D02*
X19064234Y-14421684D01*
X19064234Y-14421684D02*
X19045187Y-14412160D01*
X19045187Y-14412160D02*
X19035663Y-14402636D01*
X19035663Y-14402636D02*
X19026139Y-14383588D01*
X19026139Y-14383588D02*
X19016615Y-14345493D01*
X19016615Y-14345493D02*
X19016615Y-14297874D01*
X19016615Y-14297874D02*
X19026139Y-14259779D01*
X19026139Y-14259779D02*
X19035663Y-14240731D01*
X19035663Y-14240731D02*
X19045187Y-14231208D01*
X19045187Y-14231208D02*
X19064234Y-14221684D01*
X19216615Y-14402636D02*
X19226139Y-14412160D01*
X19226139Y-14412160D02*
X19216615Y-14421684D01*
X19216615Y-14421684D02*
X19207091Y-14412160D01*
X19207091Y-14412160D02*
X19216615Y-14402636D01*
X19216615Y-14402636D02*
X19216615Y-14421684D01*
X19349948Y-14221684D02*
X19368996Y-14221684D01*
X19368996Y-14221684D02*
X19388044Y-14231208D01*
X19388044Y-14231208D02*
X19397568Y-14240731D01*
X19397568Y-14240731D02*
X19407091Y-14259779D01*
X19407091Y-14259779D02*
X19416615Y-14297874D01*
X19416615Y-14297874D02*
X19416615Y-14345493D01*
X19416615Y-14345493D02*
X19407091Y-14383588D01*
X19407091Y-14383588D02*
X19397568Y-14402636D01*
X19397568Y-14402636D02*
X19388044Y-14412160D01*
X19388044Y-14412160D02*
X19368996Y-14421684D01*
X19368996Y-14421684D02*
X19349948Y-14421684D01*
X19349948Y-14421684D02*
X19330901Y-14412160D01*
X19330901Y-14412160D02*
X19321377Y-14402636D01*
X19321377Y-14402636D02*
X19311853Y-14383588D01*
X19311853Y-14383588D02*
X19302329Y-14345493D01*
X19302329Y-14345493D02*
X19302329Y-14297874D01*
X19302329Y-14297874D02*
X19311853Y-14259779D01*
X19311853Y-14259779D02*
X19321377Y-14240731D01*
X19321377Y-14240731D02*
X19330901Y-14231208D01*
X19330901Y-14231208D02*
X19349948Y-14221684D01*
X19483282Y-14221684D02*
X19607091Y-14221684D01*
X19607091Y-14221684D02*
X19540425Y-14297874D01*
X19540425Y-14297874D02*
X19568996Y-14297874D01*
X19568996Y-14297874D02*
X19588044Y-14307398D01*
X19588044Y-14307398D02*
X19597568Y-14316922D01*
X19597568Y-14316922D02*
X19607091Y-14335969D01*
X19607091Y-14335969D02*
X19607091Y-14383588D01*
X19607091Y-14383588D02*
X19597568Y-14402636D01*
X19597568Y-14402636D02*
X19588044Y-14412160D01*
X19588044Y-14412160D02*
X19568996Y-14421684D01*
X19568996Y-14421684D02*
X19511853Y-14421684D01*
X19511853Y-14421684D02*
X19492806Y-14412160D01*
X19492806Y-14412160D02*
X19483282Y-14402636D01*
X19702329Y-14421684D02*
X19740425Y-14421684D01*
X19740425Y-14421684D02*
X19759472Y-14412160D01*
X19759472Y-14412160D02*
X19768996Y-14402636D01*
X19768996Y-14402636D02*
X19788044Y-14374065D01*
X19788044Y-14374065D02*
X19797568Y-14335969D01*
X19797568Y-14335969D02*
X19797568Y-14259779D01*
X19797568Y-14259779D02*
X19788044Y-14240731D01*
X19788044Y-14240731D02*
X19778520Y-14231208D01*
X19778520Y-14231208D02*
X19759472Y-14221684D01*
X19759472Y-14221684D02*
X19721377Y-14221684D01*
X19721377Y-14221684D02*
X19702329Y-14231208D01*
X19702329Y-14231208D02*
X19692806Y-14240731D01*
X19692806Y-14240731D02*
X19683282Y-14259779D01*
X19683282Y-14259779D02*
X19683282Y-14307398D01*
X19683282Y-14307398D02*
X19692806Y-14326446D01*
X19692806Y-14326446D02*
X19702329Y-14335969D01*
X19702329Y-14335969D02*
X19721377Y-14345493D01*
X19721377Y-14345493D02*
X19759472Y-14345493D01*
X19759472Y-14345493D02*
X19778520Y-14335969D01*
X19778520Y-14335969D02*
X19788044Y-14326446D01*
X19788044Y-14326446D02*
X19797568Y-14307398D01*
X19968996Y-14288350D02*
X19968996Y-14421684D01*
X19921377Y-14212160D02*
X19873758Y-14355017D01*
X19873758Y-14355017D02*
X19997568Y-14355017D01*
X20064234Y-14221684D02*
X20064234Y-14259779D01*
X20140425Y-14221684D02*
X20140425Y-14259779D01*
X20435663Y-14497874D02*
X20426139Y-14488350D01*
X20426139Y-14488350D02*
X20407091Y-14459779D01*
X20407091Y-14459779D02*
X20397568Y-14440731D01*
X20397568Y-14440731D02*
X20388044Y-14412160D01*
X20388044Y-14412160D02*
X20378520Y-14364541D01*
X20378520Y-14364541D02*
X20378520Y-14326446D01*
X20378520Y-14326446D02*
X20388044Y-14278827D01*
X20388044Y-14278827D02*
X20397568Y-14250255D01*
X20397568Y-14250255D02*
X20407091Y-14231208D01*
X20407091Y-14231208D02*
X20426139Y-14202636D01*
X20426139Y-14202636D02*
X20435663Y-14193112D01*
X20597568Y-14288350D02*
X20597568Y-14421684D01*
X20549949Y-14212160D02*
X20502330Y-14355017D01*
X20502330Y-14355017D02*
X20626139Y-14355017D01*
X20854711Y-14421684D02*
X20854711Y-14221684D01*
X20940425Y-14421684D02*
X20940425Y-14316922D01*
X20940425Y-14316922D02*
X20930901Y-14297874D01*
X20930901Y-14297874D02*
X20911853Y-14288350D01*
X20911853Y-14288350D02*
X20883282Y-14288350D01*
X20883282Y-14288350D02*
X20864234Y-14297874D01*
X20864234Y-14297874D02*
X20854711Y-14307398D01*
X21064234Y-14421684D02*
X21045187Y-14412160D01*
X21045187Y-14412160D02*
X21035663Y-14402636D01*
X21035663Y-14402636D02*
X21026139Y-14383588D01*
X21026139Y-14383588D02*
X21026139Y-14326446D01*
X21026139Y-14326446D02*
X21035663Y-14307398D01*
X21035663Y-14307398D02*
X21045187Y-14297874D01*
X21045187Y-14297874D02*
X21064234Y-14288350D01*
X21064234Y-14288350D02*
X21092806Y-14288350D01*
X21092806Y-14288350D02*
X21111853Y-14297874D01*
X21111853Y-14297874D02*
X21121377Y-14307398D01*
X21121377Y-14307398D02*
X21130901Y-14326446D01*
X21130901Y-14326446D02*
X21130901Y-14383588D01*
X21130901Y-14383588D02*
X21121377Y-14402636D01*
X21121377Y-14402636D02*
X21111853Y-14412160D01*
X21111853Y-14412160D02*
X21092806Y-14421684D01*
X21092806Y-14421684D02*
X21064234Y-14421684D01*
X21245187Y-14421684D02*
X21226139Y-14412160D01*
X21226139Y-14412160D02*
X21216615Y-14393112D01*
X21216615Y-14393112D02*
X21216615Y-14221684D01*
X21397568Y-14412160D02*
X21378520Y-14421684D01*
X21378520Y-14421684D02*
X21340425Y-14421684D01*
X21340425Y-14421684D02*
X21321377Y-14412160D01*
X21321377Y-14412160D02*
X21311853Y-14393112D01*
X21311853Y-14393112D02*
X21311853Y-14316922D01*
X21311853Y-14316922D02*
X21321377Y-14297874D01*
X21321377Y-14297874D02*
X21340425Y-14288350D01*
X21340425Y-14288350D02*
X21378520Y-14288350D01*
X21378520Y-14288350D02*
X21397568Y-14297874D01*
X21397568Y-14297874D02*
X21407092Y-14316922D01*
X21407092Y-14316922D02*
X21407092Y-14335969D01*
X21407092Y-14335969D02*
X21311853Y-14355017D01*
X21483282Y-14412160D02*
X21502330Y-14421684D01*
X21502330Y-14421684D02*
X21540425Y-14421684D01*
X21540425Y-14421684D02*
X21559473Y-14412160D01*
X21559473Y-14412160D02*
X21568996Y-14393112D01*
X21568996Y-14393112D02*
X21568996Y-14383588D01*
X21568996Y-14383588D02*
X21559473Y-14364541D01*
X21559473Y-14364541D02*
X21540425Y-14355017D01*
X21540425Y-14355017D02*
X21511853Y-14355017D01*
X21511853Y-14355017D02*
X21492806Y-14345493D01*
X21492806Y-14345493D02*
X21483282Y-14326446D01*
X21483282Y-14326446D02*
X21483282Y-14316922D01*
X21483282Y-14316922D02*
X21492806Y-14297874D01*
X21492806Y-14297874D02*
X21511853Y-14288350D01*
X21511853Y-14288350D02*
X21540425Y-14288350D01*
X21540425Y-14288350D02*
X21559473Y-14297874D01*
X21635663Y-14497874D02*
X21645187Y-14488350D01*
X21645187Y-14488350D02*
X21664234Y-14459779D01*
X21664234Y-14459779D02*
X21673758Y-14440731D01*
X21673758Y-14440731D02*
X21683282Y-14412160D01*
X21683282Y-14412160D02*
X21692806Y-14364541D01*
X21692806Y-14364541D02*
X21692806Y-14326446D01*
X21692806Y-14326446D02*
X21683282Y-14278827D01*
X21683282Y-14278827D02*
X21673758Y-14250255D01*
X21673758Y-14250255D02*
X21664234Y-14231208D01*
X21664234Y-14231208D02*
X21645187Y-14202636D01*
X21645187Y-14202636D02*
X21635663Y-14193112D01*
D14*
X16844491Y-14633091D02*
X16844491Y-14555309D01*
X16766709Y-14555309D01*
X16766709Y-14633091D01*
X16844491Y-14633091D01*
D11*
X17226139Y-14685684D02*
X17111853Y-14685684D01*
X17168996Y-14685684D02*
X17168996Y-14485684D01*
X17168996Y-14485684D02*
X17149948Y-14514255D01*
X17149948Y-14514255D02*
X17130901Y-14533303D01*
X17130901Y-14533303D02*
X17111853Y-14542827D01*
X17311853Y-14666636D02*
X17321377Y-14676160D01*
X17321377Y-14676160D02*
X17311853Y-14685684D01*
X17311853Y-14685684D02*
X17302329Y-14676160D01*
X17302329Y-14676160D02*
X17311853Y-14666636D01*
X17311853Y-14666636D02*
X17311853Y-14685684D01*
X17511853Y-14685684D02*
X17397567Y-14685684D01*
X17454710Y-14685684D02*
X17454710Y-14485684D01*
X17454710Y-14485684D02*
X17435663Y-14514255D01*
X17435663Y-14514255D02*
X17416615Y-14533303D01*
X17416615Y-14533303D02*
X17397567Y-14542827D01*
X17635663Y-14485684D02*
X17654710Y-14485684D01*
X17654710Y-14485684D02*
X17673758Y-14495208D01*
X17673758Y-14495208D02*
X17683282Y-14504731D01*
X17683282Y-14504731D02*
X17692805Y-14523779D01*
X17692805Y-14523779D02*
X17702329Y-14561874D01*
X17702329Y-14561874D02*
X17702329Y-14609493D01*
X17702329Y-14609493D02*
X17692805Y-14647588D01*
X17692805Y-14647588D02*
X17683282Y-14666636D01*
X17683282Y-14666636D02*
X17673758Y-14676160D01*
X17673758Y-14676160D02*
X17654710Y-14685684D01*
X17654710Y-14685684D02*
X17635663Y-14685684D01*
X17635663Y-14685684D02*
X17616615Y-14676160D01*
X17616615Y-14676160D02*
X17607091Y-14666636D01*
X17607091Y-14666636D02*
X17597567Y-14647588D01*
X17597567Y-14647588D02*
X17588044Y-14609493D01*
X17588044Y-14609493D02*
X17588044Y-14561874D01*
X17588044Y-14561874D02*
X17597567Y-14523779D01*
X17597567Y-14523779D02*
X17607091Y-14504731D01*
X17607091Y-14504731D02*
X17616615Y-14495208D01*
X17616615Y-14495208D02*
X17635663Y-14485684D01*
X17826139Y-14485684D02*
X17845186Y-14485684D01*
X17845186Y-14485684D02*
X17864234Y-14495208D01*
X17864234Y-14495208D02*
X17873758Y-14504731D01*
X17873758Y-14504731D02*
X17883282Y-14523779D01*
X17883282Y-14523779D02*
X17892805Y-14561874D01*
X17892805Y-14561874D02*
X17892805Y-14609493D01*
X17892805Y-14609493D02*
X17883282Y-14647588D01*
X17883282Y-14647588D02*
X17873758Y-14666636D01*
X17873758Y-14666636D02*
X17864234Y-14676160D01*
X17864234Y-14676160D02*
X17845186Y-14685684D01*
X17845186Y-14685684D02*
X17826139Y-14685684D01*
X17826139Y-14685684D02*
X17807091Y-14676160D01*
X17807091Y-14676160D02*
X17797567Y-14666636D01*
X17797567Y-14666636D02*
X17788044Y-14647588D01*
X17788044Y-14647588D02*
X17778520Y-14609493D01*
X17778520Y-14609493D02*
X17778520Y-14561874D01*
X17778520Y-14561874D02*
X17788044Y-14523779D01*
X17788044Y-14523779D02*
X17797567Y-14504731D01*
X17797567Y-14504731D02*
X17807091Y-14495208D01*
X17807091Y-14495208D02*
X17826139Y-14485684D01*
X17978520Y-14685684D02*
X17978520Y-14552350D01*
X17978520Y-14571398D02*
X17988044Y-14561874D01*
X17988044Y-14561874D02*
X18007091Y-14552350D01*
X18007091Y-14552350D02*
X18035663Y-14552350D01*
X18035663Y-14552350D02*
X18054710Y-14561874D01*
X18054710Y-14561874D02*
X18064234Y-14580922D01*
X18064234Y-14580922D02*
X18064234Y-14685684D01*
X18064234Y-14580922D02*
X18073758Y-14561874D01*
X18073758Y-14561874D02*
X18092805Y-14552350D01*
X18092805Y-14552350D02*
X18121377Y-14552350D01*
X18121377Y-14552350D02*
X18140425Y-14561874D01*
X18140425Y-14561874D02*
X18149948Y-14580922D01*
X18149948Y-14580922D02*
X18149948Y-14685684D01*
X18245186Y-14685684D02*
X18245186Y-14552350D01*
X18245186Y-14571398D02*
X18254710Y-14561874D01*
X18254710Y-14561874D02*
X18273758Y-14552350D01*
X18273758Y-14552350D02*
X18302329Y-14552350D01*
X18302329Y-14552350D02*
X18321377Y-14561874D01*
X18321377Y-14561874D02*
X18330901Y-14580922D01*
X18330901Y-14580922D02*
X18330901Y-14685684D01*
X18330901Y-14580922D02*
X18340425Y-14561874D01*
X18340425Y-14561874D02*
X18359472Y-14552350D01*
X18359472Y-14552350D02*
X18388044Y-14552350D01*
X18388044Y-14552350D02*
X18407091Y-14561874D01*
X18407091Y-14561874D02*
X18416615Y-14580922D01*
X18416615Y-14580922D02*
X18416615Y-14685684D01*
X18807091Y-14476160D02*
X18635663Y-14733303D01*
X19064234Y-14485684D02*
X19083282Y-14485684D01*
X19083282Y-14485684D02*
X19102329Y-14495208D01*
X19102329Y-14495208D02*
X19111853Y-14504731D01*
X19111853Y-14504731D02*
X19121377Y-14523779D01*
X19121377Y-14523779D02*
X19130901Y-14561874D01*
X19130901Y-14561874D02*
X19130901Y-14609493D01*
X19130901Y-14609493D02*
X19121377Y-14647588D01*
X19121377Y-14647588D02*
X19111853Y-14666636D01*
X19111853Y-14666636D02*
X19102329Y-14676160D01*
X19102329Y-14676160D02*
X19083282Y-14685684D01*
X19083282Y-14685684D02*
X19064234Y-14685684D01*
X19064234Y-14685684D02*
X19045187Y-14676160D01*
X19045187Y-14676160D02*
X19035663Y-14666636D01*
X19035663Y-14666636D02*
X19026139Y-14647588D01*
X19026139Y-14647588D02*
X19016615Y-14609493D01*
X19016615Y-14609493D02*
X19016615Y-14561874D01*
X19016615Y-14561874D02*
X19026139Y-14523779D01*
X19026139Y-14523779D02*
X19035663Y-14504731D01*
X19035663Y-14504731D02*
X19045187Y-14495208D01*
X19045187Y-14495208D02*
X19064234Y-14485684D01*
X19216615Y-14666636D02*
X19226139Y-14676160D01*
X19226139Y-14676160D02*
X19216615Y-14685684D01*
X19216615Y-14685684D02*
X19207091Y-14676160D01*
X19207091Y-14676160D02*
X19216615Y-14666636D01*
X19216615Y-14666636D02*
X19216615Y-14685684D01*
X19349948Y-14485684D02*
X19368996Y-14485684D01*
X19368996Y-14485684D02*
X19388044Y-14495208D01*
X19388044Y-14495208D02*
X19397568Y-14504731D01*
X19397568Y-14504731D02*
X19407091Y-14523779D01*
X19407091Y-14523779D02*
X19416615Y-14561874D01*
X19416615Y-14561874D02*
X19416615Y-14609493D01*
X19416615Y-14609493D02*
X19407091Y-14647588D01*
X19407091Y-14647588D02*
X19397568Y-14666636D01*
X19397568Y-14666636D02*
X19388044Y-14676160D01*
X19388044Y-14676160D02*
X19368996Y-14685684D01*
X19368996Y-14685684D02*
X19349948Y-14685684D01*
X19349948Y-14685684D02*
X19330901Y-14676160D01*
X19330901Y-14676160D02*
X19321377Y-14666636D01*
X19321377Y-14666636D02*
X19311853Y-14647588D01*
X19311853Y-14647588D02*
X19302329Y-14609493D01*
X19302329Y-14609493D02*
X19302329Y-14561874D01*
X19302329Y-14561874D02*
X19311853Y-14523779D01*
X19311853Y-14523779D02*
X19321377Y-14504731D01*
X19321377Y-14504731D02*
X19330901Y-14495208D01*
X19330901Y-14495208D02*
X19349948Y-14485684D01*
X19588044Y-14552350D02*
X19588044Y-14685684D01*
X19540425Y-14476160D02*
X19492806Y-14619017D01*
X19492806Y-14619017D02*
X19616615Y-14619017D01*
X19673758Y-14485684D02*
X19797568Y-14485684D01*
X19797568Y-14485684D02*
X19730901Y-14561874D01*
X19730901Y-14561874D02*
X19759472Y-14561874D01*
X19759472Y-14561874D02*
X19778520Y-14571398D01*
X19778520Y-14571398D02*
X19788044Y-14580922D01*
X19788044Y-14580922D02*
X19797568Y-14599969D01*
X19797568Y-14599969D02*
X19797568Y-14647588D01*
X19797568Y-14647588D02*
X19788044Y-14666636D01*
X19788044Y-14666636D02*
X19778520Y-14676160D01*
X19778520Y-14676160D02*
X19759472Y-14685684D01*
X19759472Y-14685684D02*
X19702329Y-14685684D01*
X19702329Y-14685684D02*
X19683282Y-14676160D01*
X19683282Y-14676160D02*
X19673758Y-14666636D01*
X19864234Y-14485684D02*
X19988044Y-14485684D01*
X19988044Y-14485684D02*
X19921377Y-14561874D01*
X19921377Y-14561874D02*
X19949949Y-14561874D01*
X19949949Y-14561874D02*
X19968996Y-14571398D01*
X19968996Y-14571398D02*
X19978520Y-14580922D01*
X19978520Y-14580922D02*
X19988044Y-14599969D01*
X19988044Y-14599969D02*
X19988044Y-14647588D01*
X19988044Y-14647588D02*
X19978520Y-14666636D01*
X19978520Y-14666636D02*
X19968996Y-14676160D01*
X19968996Y-14676160D02*
X19949949Y-14685684D01*
X19949949Y-14685684D02*
X19892806Y-14685684D01*
X19892806Y-14685684D02*
X19873758Y-14676160D01*
X19873758Y-14676160D02*
X19864234Y-14666636D01*
X20064234Y-14485684D02*
X20064234Y-14523779D01*
X20140425Y-14485684D02*
X20140425Y-14523779D01*
X20435663Y-14761874D02*
X20426139Y-14752350D01*
X20426139Y-14752350D02*
X20407091Y-14723779D01*
X20407091Y-14723779D02*
X20397568Y-14704731D01*
X20397568Y-14704731D02*
X20388044Y-14676160D01*
X20388044Y-14676160D02*
X20378520Y-14628541D01*
X20378520Y-14628541D02*
X20378520Y-14590446D01*
X20378520Y-14590446D02*
X20388044Y-14542827D01*
X20388044Y-14542827D02*
X20397568Y-14514255D01*
X20397568Y-14514255D02*
X20407091Y-14495208D01*
X20407091Y-14495208D02*
X20426139Y-14466636D01*
X20426139Y-14466636D02*
X20435663Y-14457112D01*
X20502330Y-14504731D02*
X20511853Y-14495208D01*
X20511853Y-14495208D02*
X20530901Y-14485684D01*
X20530901Y-14485684D02*
X20578520Y-14485684D01*
X20578520Y-14485684D02*
X20597568Y-14495208D01*
X20597568Y-14495208D02*
X20607091Y-14504731D01*
X20607091Y-14504731D02*
X20616615Y-14523779D01*
X20616615Y-14523779D02*
X20616615Y-14542827D01*
X20616615Y-14542827D02*
X20607091Y-14571398D01*
X20607091Y-14571398D02*
X20492806Y-14685684D01*
X20492806Y-14685684D02*
X20616615Y-14685684D01*
X20740425Y-14485684D02*
X20759472Y-14485684D01*
X20759472Y-14485684D02*
X20778520Y-14495208D01*
X20778520Y-14495208D02*
X20788044Y-14504731D01*
X20788044Y-14504731D02*
X20797568Y-14523779D01*
X20797568Y-14523779D02*
X20807091Y-14561874D01*
X20807091Y-14561874D02*
X20807091Y-14609493D01*
X20807091Y-14609493D02*
X20797568Y-14647588D01*
X20797568Y-14647588D02*
X20788044Y-14666636D01*
X20788044Y-14666636D02*
X20778520Y-14676160D01*
X20778520Y-14676160D02*
X20759472Y-14685684D01*
X20759472Y-14685684D02*
X20740425Y-14685684D01*
X20740425Y-14685684D02*
X20721377Y-14676160D01*
X20721377Y-14676160D02*
X20711853Y-14666636D01*
X20711853Y-14666636D02*
X20702330Y-14647588D01*
X20702330Y-14647588D02*
X20692806Y-14609493D01*
X20692806Y-14609493D02*
X20692806Y-14561874D01*
X20692806Y-14561874D02*
X20702330Y-14523779D01*
X20702330Y-14523779D02*
X20711853Y-14504731D01*
X20711853Y-14504731D02*
X20721377Y-14495208D01*
X20721377Y-14495208D02*
X20740425Y-14485684D01*
X21045187Y-14685684D02*
X21045187Y-14485684D01*
X21130901Y-14685684D02*
X21130901Y-14580922D01*
X21130901Y-14580922D02*
X21121377Y-14561874D01*
X21121377Y-14561874D02*
X21102330Y-14552350D01*
X21102330Y-14552350D02*
X21073758Y-14552350D01*
X21073758Y-14552350D02*
X21054711Y-14561874D01*
X21054711Y-14561874D02*
X21045187Y-14571398D01*
X21254711Y-14685684D02*
X21235663Y-14676160D01*
X21235663Y-14676160D02*
X21226139Y-14666636D01*
X21226139Y-14666636D02*
X21216615Y-14647588D01*
X21216615Y-14647588D02*
X21216615Y-14590446D01*
X21216615Y-14590446D02*
X21226139Y-14571398D01*
X21226139Y-14571398D02*
X21235663Y-14561874D01*
X21235663Y-14561874D02*
X21254711Y-14552350D01*
X21254711Y-14552350D02*
X21283282Y-14552350D01*
X21283282Y-14552350D02*
X21302330Y-14561874D01*
X21302330Y-14561874D02*
X21311853Y-14571398D01*
X21311853Y-14571398D02*
X21321377Y-14590446D01*
X21321377Y-14590446D02*
X21321377Y-14647588D01*
X21321377Y-14647588D02*
X21311853Y-14666636D01*
X21311853Y-14666636D02*
X21302330Y-14676160D01*
X21302330Y-14676160D02*
X21283282Y-14685684D01*
X21283282Y-14685684D02*
X21254711Y-14685684D01*
X21435663Y-14685684D02*
X21416615Y-14676160D01*
X21416615Y-14676160D02*
X21407092Y-14657112D01*
X21407092Y-14657112D02*
X21407092Y-14485684D01*
X21588044Y-14676160D02*
X21568996Y-14685684D01*
X21568996Y-14685684D02*
X21530901Y-14685684D01*
X21530901Y-14685684D02*
X21511853Y-14676160D01*
X21511853Y-14676160D02*
X21502330Y-14657112D01*
X21502330Y-14657112D02*
X21502330Y-14580922D01*
X21502330Y-14580922D02*
X21511853Y-14561874D01*
X21511853Y-14561874D02*
X21530901Y-14552350D01*
X21530901Y-14552350D02*
X21568996Y-14552350D01*
X21568996Y-14552350D02*
X21588044Y-14561874D01*
X21588044Y-14561874D02*
X21597568Y-14580922D01*
X21597568Y-14580922D02*
X21597568Y-14599969D01*
X21597568Y-14599969D02*
X21502330Y-14619017D01*
X21673758Y-14676160D02*
X21692806Y-14685684D01*
X21692806Y-14685684D02*
X21730901Y-14685684D01*
X21730901Y-14685684D02*
X21749949Y-14676160D01*
X21749949Y-14676160D02*
X21759473Y-14657112D01*
X21759473Y-14657112D02*
X21759473Y-14647588D01*
X21759473Y-14647588D02*
X21749949Y-14628541D01*
X21749949Y-14628541D02*
X21730901Y-14619017D01*
X21730901Y-14619017D02*
X21702330Y-14619017D01*
X21702330Y-14619017D02*
X21683282Y-14609493D01*
X21683282Y-14609493D02*
X21673758Y-14590446D01*
X21673758Y-14590446D02*
X21673758Y-14580922D01*
X21673758Y-14580922D02*
X21683282Y-14561874D01*
X21683282Y-14561874D02*
X21702330Y-14552350D01*
X21702330Y-14552350D02*
X21730901Y-14552350D01*
X21730901Y-14552350D02*
X21749949Y-14561874D01*
X21826139Y-14761874D02*
X21835663Y-14752350D01*
X21835663Y-14752350D02*
X21854711Y-14723779D01*
X21854711Y-14723779D02*
X21864234Y-14704731D01*
X21864234Y-14704731D02*
X21873758Y-14676160D01*
X21873758Y-14676160D02*
X21883282Y-14628541D01*
X21883282Y-14628541D02*
X21883282Y-14590446D01*
X21883282Y-14590446D02*
X21873758Y-14542827D01*
X21873758Y-14542827D02*
X21864234Y-14514255D01*
X21864234Y-14514255D02*
X21854711Y-14495208D01*
X21854711Y-14495208D02*
X21835663Y-14466636D01*
X21835663Y-14466636D02*
X21826139Y-14457112D01*
D15*
X16784600Y-14934200D02*
X16860600Y-14858200D01*
X16784600Y-14782200D01*
X16708600Y-14858200D01*
X16784600Y-14934200D01*
D11*
X17226139Y-14949684D02*
X17111853Y-14949684D01*
X17168996Y-14949684D02*
X17168996Y-14749684D01*
X17168996Y-14749684D02*
X17149948Y-14778255D01*
X17149948Y-14778255D02*
X17130901Y-14797303D01*
X17130901Y-14797303D02*
X17111853Y-14806827D01*
X17311853Y-14930636D02*
X17321377Y-14940160D01*
X17321377Y-14940160D02*
X17311853Y-14949684D01*
X17311853Y-14949684D02*
X17302329Y-14940160D01*
X17302329Y-14940160D02*
X17311853Y-14930636D01*
X17311853Y-14930636D02*
X17311853Y-14949684D01*
X17502329Y-14749684D02*
X17407091Y-14749684D01*
X17407091Y-14749684D02*
X17397567Y-14844922D01*
X17397567Y-14844922D02*
X17407091Y-14835398D01*
X17407091Y-14835398D02*
X17426139Y-14825874D01*
X17426139Y-14825874D02*
X17473758Y-14825874D01*
X17473758Y-14825874D02*
X17492805Y-14835398D01*
X17492805Y-14835398D02*
X17502329Y-14844922D01*
X17502329Y-14844922D02*
X17511853Y-14863969D01*
X17511853Y-14863969D02*
X17511853Y-14911588D01*
X17511853Y-14911588D02*
X17502329Y-14930636D01*
X17502329Y-14930636D02*
X17492805Y-14940160D01*
X17492805Y-14940160D02*
X17473758Y-14949684D01*
X17473758Y-14949684D02*
X17426139Y-14949684D01*
X17426139Y-14949684D02*
X17407091Y-14940160D01*
X17407091Y-14940160D02*
X17397567Y-14930636D01*
X17588044Y-14768731D02*
X17597567Y-14759208D01*
X17597567Y-14759208D02*
X17616615Y-14749684D01*
X17616615Y-14749684D02*
X17664234Y-14749684D01*
X17664234Y-14749684D02*
X17683282Y-14759208D01*
X17683282Y-14759208D02*
X17692805Y-14768731D01*
X17692805Y-14768731D02*
X17702329Y-14787779D01*
X17702329Y-14787779D02*
X17702329Y-14806827D01*
X17702329Y-14806827D02*
X17692805Y-14835398D01*
X17692805Y-14835398D02*
X17578520Y-14949684D01*
X17578520Y-14949684D02*
X17702329Y-14949684D01*
X17826139Y-14749684D02*
X17845186Y-14749684D01*
X17845186Y-14749684D02*
X17864234Y-14759208D01*
X17864234Y-14759208D02*
X17873758Y-14768731D01*
X17873758Y-14768731D02*
X17883282Y-14787779D01*
X17883282Y-14787779D02*
X17892805Y-14825874D01*
X17892805Y-14825874D02*
X17892805Y-14873493D01*
X17892805Y-14873493D02*
X17883282Y-14911588D01*
X17883282Y-14911588D02*
X17873758Y-14930636D01*
X17873758Y-14930636D02*
X17864234Y-14940160D01*
X17864234Y-14940160D02*
X17845186Y-14949684D01*
X17845186Y-14949684D02*
X17826139Y-14949684D01*
X17826139Y-14949684D02*
X17807091Y-14940160D01*
X17807091Y-14940160D02*
X17797567Y-14930636D01*
X17797567Y-14930636D02*
X17788044Y-14911588D01*
X17788044Y-14911588D02*
X17778520Y-14873493D01*
X17778520Y-14873493D02*
X17778520Y-14825874D01*
X17778520Y-14825874D02*
X17788044Y-14787779D01*
X17788044Y-14787779D02*
X17797567Y-14768731D01*
X17797567Y-14768731D02*
X17807091Y-14759208D01*
X17807091Y-14759208D02*
X17826139Y-14749684D01*
X17978520Y-14949684D02*
X17978520Y-14816350D01*
X17978520Y-14835398D02*
X17988044Y-14825874D01*
X17988044Y-14825874D02*
X18007091Y-14816350D01*
X18007091Y-14816350D02*
X18035663Y-14816350D01*
X18035663Y-14816350D02*
X18054710Y-14825874D01*
X18054710Y-14825874D02*
X18064234Y-14844922D01*
X18064234Y-14844922D02*
X18064234Y-14949684D01*
X18064234Y-14844922D02*
X18073758Y-14825874D01*
X18073758Y-14825874D02*
X18092805Y-14816350D01*
X18092805Y-14816350D02*
X18121377Y-14816350D01*
X18121377Y-14816350D02*
X18140425Y-14825874D01*
X18140425Y-14825874D02*
X18149948Y-14844922D01*
X18149948Y-14844922D02*
X18149948Y-14949684D01*
X18245186Y-14949684D02*
X18245186Y-14816350D01*
X18245186Y-14835398D02*
X18254710Y-14825874D01*
X18254710Y-14825874D02*
X18273758Y-14816350D01*
X18273758Y-14816350D02*
X18302329Y-14816350D01*
X18302329Y-14816350D02*
X18321377Y-14825874D01*
X18321377Y-14825874D02*
X18330901Y-14844922D01*
X18330901Y-14844922D02*
X18330901Y-14949684D01*
X18330901Y-14844922D02*
X18340425Y-14825874D01*
X18340425Y-14825874D02*
X18359472Y-14816350D01*
X18359472Y-14816350D02*
X18388044Y-14816350D01*
X18388044Y-14816350D02*
X18407091Y-14825874D01*
X18407091Y-14825874D02*
X18416615Y-14844922D01*
X18416615Y-14844922D02*
X18416615Y-14949684D01*
X18807091Y-14740160D02*
X18635663Y-14997303D01*
X19064234Y-14749684D02*
X19083282Y-14749684D01*
X19083282Y-14749684D02*
X19102329Y-14759208D01*
X19102329Y-14759208D02*
X19111853Y-14768731D01*
X19111853Y-14768731D02*
X19121377Y-14787779D01*
X19121377Y-14787779D02*
X19130901Y-14825874D01*
X19130901Y-14825874D02*
X19130901Y-14873493D01*
X19130901Y-14873493D02*
X19121377Y-14911588D01*
X19121377Y-14911588D02*
X19111853Y-14930636D01*
X19111853Y-14930636D02*
X19102329Y-14940160D01*
X19102329Y-14940160D02*
X19083282Y-14949684D01*
X19083282Y-14949684D02*
X19064234Y-14949684D01*
X19064234Y-14949684D02*
X19045187Y-14940160D01*
X19045187Y-14940160D02*
X19035663Y-14930636D01*
X19035663Y-14930636D02*
X19026139Y-14911588D01*
X19026139Y-14911588D02*
X19016615Y-14873493D01*
X19016615Y-14873493D02*
X19016615Y-14825874D01*
X19016615Y-14825874D02*
X19026139Y-14787779D01*
X19026139Y-14787779D02*
X19035663Y-14768731D01*
X19035663Y-14768731D02*
X19045187Y-14759208D01*
X19045187Y-14759208D02*
X19064234Y-14749684D01*
X19216615Y-14930636D02*
X19226139Y-14940160D01*
X19226139Y-14940160D02*
X19216615Y-14949684D01*
X19216615Y-14949684D02*
X19207091Y-14940160D01*
X19207091Y-14940160D02*
X19216615Y-14930636D01*
X19216615Y-14930636D02*
X19216615Y-14949684D01*
X19349948Y-14749684D02*
X19368996Y-14749684D01*
X19368996Y-14749684D02*
X19388044Y-14759208D01*
X19388044Y-14759208D02*
X19397568Y-14768731D01*
X19397568Y-14768731D02*
X19407091Y-14787779D01*
X19407091Y-14787779D02*
X19416615Y-14825874D01*
X19416615Y-14825874D02*
X19416615Y-14873493D01*
X19416615Y-14873493D02*
X19407091Y-14911588D01*
X19407091Y-14911588D02*
X19397568Y-14930636D01*
X19397568Y-14930636D02*
X19388044Y-14940160D01*
X19388044Y-14940160D02*
X19368996Y-14949684D01*
X19368996Y-14949684D02*
X19349948Y-14949684D01*
X19349948Y-14949684D02*
X19330901Y-14940160D01*
X19330901Y-14940160D02*
X19321377Y-14930636D01*
X19321377Y-14930636D02*
X19311853Y-14911588D01*
X19311853Y-14911588D02*
X19302329Y-14873493D01*
X19302329Y-14873493D02*
X19302329Y-14825874D01*
X19302329Y-14825874D02*
X19311853Y-14787779D01*
X19311853Y-14787779D02*
X19321377Y-14768731D01*
X19321377Y-14768731D02*
X19330901Y-14759208D01*
X19330901Y-14759208D02*
X19349948Y-14749684D01*
X19597568Y-14749684D02*
X19502329Y-14749684D01*
X19502329Y-14749684D02*
X19492806Y-14844922D01*
X19492806Y-14844922D02*
X19502329Y-14835398D01*
X19502329Y-14835398D02*
X19521377Y-14825874D01*
X19521377Y-14825874D02*
X19568996Y-14825874D01*
X19568996Y-14825874D02*
X19588044Y-14835398D01*
X19588044Y-14835398D02*
X19597568Y-14844922D01*
X19597568Y-14844922D02*
X19607091Y-14863969D01*
X19607091Y-14863969D02*
X19607091Y-14911588D01*
X19607091Y-14911588D02*
X19597568Y-14930636D01*
X19597568Y-14930636D02*
X19588044Y-14940160D01*
X19588044Y-14940160D02*
X19568996Y-14949684D01*
X19568996Y-14949684D02*
X19521377Y-14949684D01*
X19521377Y-14949684D02*
X19502329Y-14940160D01*
X19502329Y-14940160D02*
X19492806Y-14930636D01*
X19702329Y-14949684D02*
X19740425Y-14949684D01*
X19740425Y-14949684D02*
X19759472Y-14940160D01*
X19759472Y-14940160D02*
X19768996Y-14930636D01*
X19768996Y-14930636D02*
X19788044Y-14902065D01*
X19788044Y-14902065D02*
X19797568Y-14863969D01*
X19797568Y-14863969D02*
X19797568Y-14787779D01*
X19797568Y-14787779D02*
X19788044Y-14768731D01*
X19788044Y-14768731D02*
X19778520Y-14759208D01*
X19778520Y-14759208D02*
X19759472Y-14749684D01*
X19759472Y-14749684D02*
X19721377Y-14749684D01*
X19721377Y-14749684D02*
X19702329Y-14759208D01*
X19702329Y-14759208D02*
X19692806Y-14768731D01*
X19692806Y-14768731D02*
X19683282Y-14787779D01*
X19683282Y-14787779D02*
X19683282Y-14835398D01*
X19683282Y-14835398D02*
X19692806Y-14854446D01*
X19692806Y-14854446D02*
X19702329Y-14863969D01*
X19702329Y-14863969D02*
X19721377Y-14873493D01*
X19721377Y-14873493D02*
X19759472Y-14873493D01*
X19759472Y-14873493D02*
X19778520Y-14863969D01*
X19778520Y-14863969D02*
X19788044Y-14854446D01*
X19788044Y-14854446D02*
X19797568Y-14835398D01*
X19911853Y-14835398D02*
X19892806Y-14825874D01*
X19892806Y-14825874D02*
X19883282Y-14816350D01*
X19883282Y-14816350D02*
X19873758Y-14797303D01*
X19873758Y-14797303D02*
X19873758Y-14787779D01*
X19873758Y-14787779D02*
X19883282Y-14768731D01*
X19883282Y-14768731D02*
X19892806Y-14759208D01*
X19892806Y-14759208D02*
X19911853Y-14749684D01*
X19911853Y-14749684D02*
X19949949Y-14749684D01*
X19949949Y-14749684D02*
X19968996Y-14759208D01*
X19968996Y-14759208D02*
X19978520Y-14768731D01*
X19978520Y-14768731D02*
X19988044Y-14787779D01*
X19988044Y-14787779D02*
X19988044Y-14797303D01*
X19988044Y-14797303D02*
X19978520Y-14816350D01*
X19978520Y-14816350D02*
X19968996Y-14825874D01*
X19968996Y-14825874D02*
X19949949Y-14835398D01*
X19949949Y-14835398D02*
X19911853Y-14835398D01*
X19911853Y-14835398D02*
X19892806Y-14844922D01*
X19892806Y-14844922D02*
X19883282Y-14854446D01*
X19883282Y-14854446D02*
X19873758Y-14873493D01*
X19873758Y-14873493D02*
X19873758Y-14911588D01*
X19873758Y-14911588D02*
X19883282Y-14930636D01*
X19883282Y-14930636D02*
X19892806Y-14940160D01*
X19892806Y-14940160D02*
X19911853Y-14949684D01*
X19911853Y-14949684D02*
X19949949Y-14949684D01*
X19949949Y-14949684D02*
X19968996Y-14940160D01*
X19968996Y-14940160D02*
X19978520Y-14930636D01*
X19978520Y-14930636D02*
X19988044Y-14911588D01*
X19988044Y-14911588D02*
X19988044Y-14873493D01*
X19988044Y-14873493D02*
X19978520Y-14854446D01*
X19978520Y-14854446D02*
X19968996Y-14844922D01*
X19968996Y-14844922D02*
X19949949Y-14835398D01*
X20064234Y-14749684D02*
X20064234Y-14787779D01*
X20140425Y-14749684D02*
X20140425Y-14787779D01*
X20435663Y-15025874D02*
X20426139Y-15016350D01*
X20426139Y-15016350D02*
X20407091Y-14987779D01*
X20407091Y-14987779D02*
X20397568Y-14968731D01*
X20397568Y-14968731D02*
X20388044Y-14940160D01*
X20388044Y-14940160D02*
X20378520Y-14892541D01*
X20378520Y-14892541D02*
X20378520Y-14854446D01*
X20378520Y-14854446D02*
X20388044Y-14806827D01*
X20388044Y-14806827D02*
X20397568Y-14778255D01*
X20397568Y-14778255D02*
X20407091Y-14759208D01*
X20407091Y-14759208D02*
X20426139Y-14730636D01*
X20426139Y-14730636D02*
X20435663Y-14721112D01*
X20597568Y-14816350D02*
X20597568Y-14949684D01*
X20549949Y-14740160D02*
X20502330Y-14883017D01*
X20502330Y-14883017D02*
X20626139Y-14883017D01*
X20854711Y-14949684D02*
X20854711Y-14749684D01*
X20940425Y-14949684D02*
X20940425Y-14844922D01*
X20940425Y-14844922D02*
X20930901Y-14825874D01*
X20930901Y-14825874D02*
X20911853Y-14816350D01*
X20911853Y-14816350D02*
X20883282Y-14816350D01*
X20883282Y-14816350D02*
X20864234Y-14825874D01*
X20864234Y-14825874D02*
X20854711Y-14835398D01*
X21064234Y-14949684D02*
X21045187Y-14940160D01*
X21045187Y-14940160D02*
X21035663Y-14930636D01*
X21035663Y-14930636D02*
X21026139Y-14911588D01*
X21026139Y-14911588D02*
X21026139Y-14854446D01*
X21026139Y-14854446D02*
X21035663Y-14835398D01*
X21035663Y-14835398D02*
X21045187Y-14825874D01*
X21045187Y-14825874D02*
X21064234Y-14816350D01*
X21064234Y-14816350D02*
X21092806Y-14816350D01*
X21092806Y-14816350D02*
X21111853Y-14825874D01*
X21111853Y-14825874D02*
X21121377Y-14835398D01*
X21121377Y-14835398D02*
X21130901Y-14854446D01*
X21130901Y-14854446D02*
X21130901Y-14911588D01*
X21130901Y-14911588D02*
X21121377Y-14930636D01*
X21121377Y-14930636D02*
X21111853Y-14940160D01*
X21111853Y-14940160D02*
X21092806Y-14949684D01*
X21092806Y-14949684D02*
X21064234Y-14949684D01*
X21245187Y-14949684D02*
X21226139Y-14940160D01*
X21226139Y-14940160D02*
X21216615Y-14921112D01*
X21216615Y-14921112D02*
X21216615Y-14749684D01*
X21397568Y-14940160D02*
X21378520Y-14949684D01*
X21378520Y-14949684D02*
X21340425Y-14949684D01*
X21340425Y-14949684D02*
X21321377Y-14940160D01*
X21321377Y-14940160D02*
X21311853Y-14921112D01*
X21311853Y-14921112D02*
X21311853Y-14844922D01*
X21311853Y-14844922D02*
X21321377Y-14825874D01*
X21321377Y-14825874D02*
X21340425Y-14816350D01*
X21340425Y-14816350D02*
X21378520Y-14816350D01*
X21378520Y-14816350D02*
X21397568Y-14825874D01*
X21397568Y-14825874D02*
X21407092Y-14844922D01*
X21407092Y-14844922D02*
X21407092Y-14863969D01*
X21407092Y-14863969D02*
X21311853Y-14883017D01*
X21483282Y-14940160D02*
X21502330Y-14949684D01*
X21502330Y-14949684D02*
X21540425Y-14949684D01*
X21540425Y-14949684D02*
X21559473Y-14940160D01*
X21559473Y-14940160D02*
X21568996Y-14921112D01*
X21568996Y-14921112D02*
X21568996Y-14911588D01*
X21568996Y-14911588D02*
X21559473Y-14892541D01*
X21559473Y-14892541D02*
X21540425Y-14883017D01*
X21540425Y-14883017D02*
X21511853Y-14883017D01*
X21511853Y-14883017D02*
X21492806Y-14873493D01*
X21492806Y-14873493D02*
X21483282Y-14854446D01*
X21483282Y-14854446D02*
X21483282Y-14844922D01*
X21483282Y-14844922D02*
X21492806Y-14825874D01*
X21492806Y-14825874D02*
X21511853Y-14816350D01*
X21511853Y-14816350D02*
X21540425Y-14816350D01*
X21540425Y-14816350D02*
X21559473Y-14825874D01*
X21635663Y-15025874D02*
X21645187Y-15016350D01*
X21645187Y-15016350D02*
X21664234Y-14987779D01*
X21664234Y-14987779D02*
X21673758Y-14968731D01*
X21673758Y-14968731D02*
X21683282Y-14940160D01*
X21683282Y-14940160D02*
X21692806Y-14892541D01*
X21692806Y-14892541D02*
X21692806Y-14854446D01*
X21692806Y-14854446D02*
X21683282Y-14806827D01*
X21683282Y-14806827D02*
X21673758Y-14778255D01*
X21673758Y-14778255D02*
X21664234Y-14759208D01*
X21664234Y-14759208D02*
X21645187Y-14730636D01*
X21645187Y-14730636D02*
X21635663Y-14721112D01*
M02*
